{
.appVersion = "3151";
.formatVersion = 3;
DisplayStrings = (
RISD
);
axes = (
{
name = Burst;
tag = BRST;
}
);
customParameters = (
{
name = panose;
value = (
0,
0,
5,
0,
0,
0,
0,
0,
0,
0
);
},
{
name = unicodeRanges;
value = (
0,
1
);
},
{
name = codePageRanges;
value = (
"1252",
"bit 29"
);
},
{
name = blueScale;
value = 0.037;
},
{
name = glyphOrder;
value = (
.notdef,
space,
A,
Aacute,
Acircumflex,
Adieresis,
Agrave,
Aring,
Atilde,
AE,
B,
C,
Ccedilla,
D,
E,
Eacute,
Ecircumflex,
Edieresis,
Egrave,
F,
G,
H,
I,
Iacute,
Icircumflex,
Idieresis,
Igrave,
J,
K,
L,
M,
N,
Ntilde,
O,
Oacute,
Ocircumflex,
Odieresis,
Ograve,
Oslash,
OE,
P,
Q,
R,
S,
T,
U,
Uacute,
Ucircumflex,
Udieresis,
Ugrave,
V,
W,
X,
Y,
Yacute,
Ycircumflex,
Ydieresis,
Ygrave,
Z,
A.ss01,
B.ss01,
C.ss01,
D.ss01,
E.ss01,
F.ss01,
G.ss01,
H.ss01,
I.ss01,
J.ss01,
K.ss01,
L.ss01,
M.ss01,
O.ss01,
P.ss01,
Q.ss01,
R.ss01,
S.ss01,
T.ss01,
A.ss02,
B.ss02,
C.ss02,
D.ss02,
E.ss02,
F.ss02,
G.ss02,
H.ss02,
I.ss02,
J.ss02,
K.ss02,
L.ss02,
M.ss02,
O.ss02,
P.ss02,
Q.ss02,
R.ss02,
S.ss02,
T.ss02,
a,
aacute,
acircumflex,
adieresis,
agrave,
aring,
atilde,
ae,
b,
c,
ccedilla,
d,
e,
eacute,
ecircumflex,
edieresis,
egrave,
f,
g,
h,
i,
dotlessi,
iacute,
icircumflex,
idieresis,
igrave,
j,
k,
l,
m,
n,
ntilde,
o,
oacute,
ocircumflex,
odieresis,
ograve,
oslash,
oe,
p,
q,
r,
s,
germandbls,
t,
u,
uacute,
ucircumflex,
udieresis,
ugrave,
v,
w,
x,
y,
yacute,
ycircumflex,
ydieresis,
ygrave,
z,
a.ss01,
b.ss01,
d.ss01,
g.ss01,
i.ss01,
j.ss01,
k.ss01,
m.ss01,
n.ss01,
o.ss01,
p.ss01,
q.ss01,
r.ss01,
t.ss01,
y.ss01,
z.ss01,
a.ss02,
b.ss02,
d.ss02,
g.ss02,
i.ss02,
j.ss02,
k.ss02,
m.ss02,
n.ss02,
o.ss02,
p.ss02,
q.ss02,
r.ss02,
t.ss02,
y.ss02,
z.ss02,
zero,
one,
two,
three,
four,
five,
six,
seven,
eight,
nine,
period,
comma,
colon,
semicolon,
ellipsis,
exclam,
exclamdown,
question,
questiondown,
periodcentered,
asterisk,
numbersign,
slash,
backslash,
parenleft,
parenright,
braceleft,
braceright,
bracketleft,
bracketright,
hyphen,
endash,
emdash,

glyphs = (
{
glyphname = .notdef;
lastChange = "2024-02-25 17:05:27 +0000";
layers = (
{
hints = (
{
horizontal = 1;
place = (-150, 15);
place = (-150, 15);
type = Stem;
},
{
horizontal = 1;
place = (-105, 10);
place = (-105, 10);
type = Stem;
},
{
horizontal = 1;
place = (-60, 10);
place = (-60, 10);
type = Stem;
},
{
horizontal = 1;
place = (0, 10);
place = (0, 10);
type = Stem;
},
{
horizontal = 1;
place = (30, 10);
place = (30, 10);
type = Stem;
},
{
horizontal = 1;
place = (45, 10);
place = (45, 10);
type = Stem;
},
{
horizontal = 1;
place = (60, 10);
place = (60, 10);
type = Stem;
},
{
horizontal = 1;
place = (90, 10);
place = (90, 10);
type = Stem;
},
{
horizontal = 1;
place = (150, 10);
place = (150, 10);
type = Stem;
},
{
horizontal = 1;
place = (210, 10);
place = (210, 10);
type = Stem;
},
{
horizontal = 1;
place = (240, 10);
place = (240, 10);
type = Stem;
},
{
horizontal = 1;
place = (300, 10);
place = (300, 10);
type = Stem;
},
{
horizontal = 1;
place = (340, 10);
place = (340, 10);
type = Stem;
},
{
horizontal = 1;
place = (360, 10);
place = (360, 10);
type = Stem;
},
{
horizontal = 1;
place = (390, 10);
place = (390, 10);
type = Stem;
},
{
horizontal = 1;
place = (450, 10);
place = (450, 10);
type = Stem;
},
{
horizontal = 1;
place = (480, 10);
place = (480, 10);
type = Stem;
},
{
place = (40, 10);
place = (40, 10);
type = Stem;
},
{
place = (65, 10);
place = (65, 10);
type = Stem;
},
{
place = (80, 10);
place = (80, 10);
type = Stem;
},
{
place = (95, 10);
place = (95, 10);
type = Stem;
},
{
place = (120, 10);
place = (120, 10);
type = Stem;
},
{
place = (155, 10);
place = (155, 10);
type = Stem;
},
{
place = (195, 10);
place = (195, 10);
type = Stem;
},
{
place = (210, 10);
place = (210, 10);
type = Stem;
},
{
place = (240, 10);
place = (240, 10);
type = Stem;
},
{
place = (30, 15);
place = (30, 15);
type = Stem;
},
{
place = (215, 10);
place = (215, 10);
type = Stem;
},
{
place = (250, 10);
place = (250, 10);
type = Stem;
},
{
horizontal = 1;
place = (180, 10);
place = (180, 10);
type = Stem;
},
{
place = (180, 10);
place = (180, 10);
type = Stem;
},
{
place = (170, 10);
place = (170, 10);
type = Stem;
},
{
place = (225, 10);
place = (225, 10);
type = Stem;
},
{
place = (185, 10);
place = (185, 10);
type = Stem;
},
{
horizontal = 1;
place = (490, 10);
place = (490, 10);
type = Stem;
},
{
place = (110, 10);
place = (110, 10);
type = Stem;
},
{
place = (235, 10);
place = (235, 10);
type = Stem;
},
{
horizontal = 1;
place = (345, 10);
place = (345, 10);
type = Stem;
},
{
horizontal = 1;
place = (330, 10);
place = (330, 10);
type = Stem;
},
{
place = (130, 10);
place = (130, 10);
type = Stem;
},
{
place = (50, 10);
place = (50, 10);
type = Stem;
},
{
place = (70, 10);
place = (70, 10);
type = Stem;
},
{
place = (165, 10);
place = (165, 10);
type = Stem;
}
);
layerId = m01;
shapes = (
{
closed = 1;
nodes = (
(50,600,l),
(50,700,l),
(40,700,l),
(40,600,l)
);
},
{
closed = 1;
nodes = (
(90,600,l),
(90,645,l),
(130,645,l),
(130,655,l),
(90,655,l),
(90,690,l),
(150,690,l),
(150,700,l),
(80,700,l),
(80,600,l)
);
},
{
closed = 1;
nodes = (
(215,645,l),
(215,600,l),
(225,600,l),
(225,645,l),
(260,645,l),
(260,700,l),
(250,700,l),
(250,655,l),
(190,655,l),
(190,700,l),
(180,700,l),
(180,645,l)
);
},
{
closed = 1;
nodes = (
(365,600,l),
(365,700,l),
(290,700,l),
(290,600,l)
);
},
{
closed = 1;
nodes = (
(475,600,l),
(475,700,l),
(465,700,l),
(465,610,l),
(405,610,l),
(405,700,l),
(395,700,l),
(395,600,l)
);
},
{
closed = 1;
nodes = (
(950,600,l),
(950,700,l),
(505,700,l),
(505,600,l)
);
},
{
closed = 1;
nodes = (
(300,690,l),
(355,690,l),
(355,610,l),
(300,610,l)
);
},
{
closed = 1;
nodes = (
(130,450,l),
(130,550,l),
(120,550,l),
(120,460,l),
(90,460,l),
(90,515,l),
(80,515,l),
(80,460,l),
(50,460,l),
(50,550,l),
(40,550,l),
(40,450,l)
);
},
{
closed = 1;
nodes = (
(165,450,l),
(165,480,l),
(240,480,l),
(240,450,l),
(250,450,l),
(250,490,l),
(235,490,l),
(235,520,l),
(220,520,l),
(220,550,l),
(185,550,l),
(185,520,l),
(170,520,l),
(170,490,l),
(155,490,l),
(155,450,l)
);
},
{
closed = 1;
nodes = (
(285,450,l),
(285,540,l),
(295,540,l),
(295,510,l),
(310,510,l),
(310,480,l),
(325,480,l),
(325,450,l),
(355,450,l),
(355,550,l),
(345,550,l),
(345,460,l),
(335,460,l),
(335,490,l),
(320,490,l),
(320,520,l),
(305,520,l),
(305,550,l),
(275,550,l),
(275,450,l)
);
},
{
closed = 1;
nodes = (
(410,540,l),
(410,450,l),
(420,450,l),
(420,540,l),
(455,540,l),
(455,550,l),
(375,550,l),
(375,540,l)
);
},
{
closed = 1;
nodes = (
(505,450,l),
(505,540,l),
(515,540,l),
(515,510,l),
(530,510,l),
(530,480,l),
(545,480,l),
(545,450,l),
(555,450,l),
(555,480,l),
(570,480,l),
(570,510,l),
(585,510,l),
(585,540,l),
(595,540,l),
(595,450,l),
(605,450,l),
(605,550,l),
(575,550,l),
(575,520,l),
(560,520,l),
(560,490,l),
(540,490,l),
(540,520,l),
(525,520,l),
(525,550,l),
(495,550,l),
(495,450,l)
);
},
{
closed = 1;
nodes = (
(710,450,l),
(710,550,l),
(635,550,l),
(635,450,l)
);
},
{
closed = 1;
nodes = (
(745,450,l),
(745,490,l),
(810,490,l),
(810,450,l),
(820,450,l),
(820,500,l),
(790,500,l),
(790,550,l),
(735,550,l),
(735,450,l)
);
},
{
closed = 1;
nodes = (
(910,450,l),
(910,460,l),
(850,460,l),
(850,495,l),
(890,495,l),
(890,505,l),
(850,505,l),
(850,540,l),
(910,540,l),
(910,550,l),
(840,550,l),
(840,450,l)
);
},
{
closed = 1;
nodes = (
(180,510,l),
(195,510,l),
(195,540,l),
(210,540,l),
(210,510,l),
(225,510,l),
(225,490,l),
(180,490,l)
);
},
{
closed = 1;
nodes = (
(645,540,l),
(700,540,l),
(700,460,l),
(645,460,l)
);
},
{
closed = 1;
nodes = (
(745,540,l),
(780,540,l),
(780,500,l),
(745,500,l)
);
},
{
closed = 1;
nodes = (
(935,450,l),
(935,435,l),
(945,435,l),
(945,465,l),
(930,465,l),
(930,450,l)
);
},
{
closed = 1;
nodes = (
(50,300,l),
(50,345,l),
(90,345,l),
(90,355,l),
(50,355,l),
(50,390,l),
(110,390,l),
(110,400,l),
(40,400,l),
(40,300,l)
);
},
{
closed = 1;
nodes = (
(205,300,l),
(205,400,l),
(130,400,l),
(130,300,l)
);
},
{
closed = 1;
nodes = (
(245,300,l),
(245,340,l),
(310,340,l),
(310,300,l),
(320,300,l),
(320,350,l),
(290,350,l),
(290,400,l),
(235,400,l),
(235,300,l)
);
},
{
closed = 1;
nodes = (
(355,300,l),
(355,345,l),
(370,345,l),
(370,330,l),
(395,330,l),
(395,300,l),
(420,300,l),
(420,310,l),
(405,310,l),
(405,340,l),
(380,340,l),
(380,360,l),
(405,360,l),
(405,390,l),
(420,390,l),
(420,400,l),
(395,400,l),
(395,370,l),
(370,370,l),
(370,355,l),
(355,355,l),
(355,400,l),
(345,400,l),
(345,300,l)
);
},
{
closed = 1;
nodes = (
(495,300,l),
(495,390,l),
(505,390,l),
(505,360,l),
(520,360,l),
(520,330,l),
(535,330,l),
(535,300,l),
(545,300,l),
(545,330,l),
(560,330,l),
(560,360,l),
(575,360,l),
(575,390,l),
(585,390,l),
(585,300,l),
(595,300,l),
(595,400,l),
(565,400,l),
(565,370,l),
(550,370,l),
(550,340,l),
(530,340,l),
(530,370,l),
(515,370,l),
(515,400,l),
(485,400,l),
(485,300,l)
);
},
{
closed = 1;
nodes = (
(700,300,l),
(700,310,l),
(640,310,l),
(640,345,l),
(680,345,l),
(680,355,l),
(640,355,l),
(640,390,l),
(700,390,l),
(700,400,l),
(630,400,l),
(630,300,l)
);
},
{
closed = 1;
nodes = (
(835,300,l),
(835,400,l),
(760,400,l),
(760,300,l)
);
},
{
closed = 1;
nodes = (
(875,300,l),
(875,340,l),
(940,340,l),
(940,300,l),
(950,300,l),
(950,350,l),
(920,350,l),
(920,400,l),
(865,400,l),
(865,300,l)
);
},
{
closed = 1;
nodes = (
(140,390,l),
(195,390,l),
(195,310,l),
(140,310,l)
);
},
{
closed = 1;
nodes = (
(245,390,l),
(280,390,l),
(280,350,l),
(245,350,l)
);
},
{
closed = 1;
nodes = (
(770,390,l),
(825,390,l),
(825,310,l),
(770,310,l)
);
},
{
closed = 1;
nodes = (
(875,390,l),
(910,390,l),
(910,350,l),
(875,350,l)
);
},
{
closed = 1;
nodes = (
(105,150,l),
(105,160,l),
(50,160,l),
(50,240,l),
(105,240,l),
(105,250,l),
(40,250,l),
(40,150,l)
);
},
{
closed = 1;
nodes = (
(205,150,l),
(205,250,l),
(130,250,l),
(130,150,l)
);
},
{
closed = 1;
nodes = (
(245,150,l),
(245,240,l),
(255,240,l),
(255,210,l),
(270,210,l),
(270,180,l),
(285,180,l),
(285,150,l),
(315,150,l),
(315,250,l),
(305,250,l),
(305,160,l),
(295,160,l),
(295,190,l),
(280,190,l),
(280,220,l),
(265,220,l),
(265,250,l),
(235,250,l),
(235,150,l)
);
},
{
closed = 1;
nodes = (
(365,240,l),
(365,150,l),
(375,150,l),
(375,240,l),
(410,240,l),
(410,250,l),
(330,250,l),
(330,240,l)
);
},
{
closed = 1;
nodes = (
(420,150,l),
(420,180,l),
(495,180,l),
(495,150,l),
(505,150,l),
(505,190,l),
(490,190,l),
(490,220,l),
(475,220,l),
(475,250,l),
(440,250,l),
(440,220,l),
(425,220,l),
(425,190,l),
(410,190,l),
(410,150,l)
);
},
{
closed = 1;
nodes = (
(590,150,l),
(590,160,l),
(535,160,l),
(535,240,l),
(590,240,l),
(590,250,l),
(525,250,l),
(525,150,l)
);
},
{
closed = 1;
nodes = (
(645,240,l),
(645,150,l),
(655,150,l),
(655,240,l),
(690,240,l),
(690,250,l),
(610,250,l),
(610,240,l)
);
},
{
closed = 1;
nodes = (
(950,150,l),
(950,250,l),
(710,250,l),
(710,150,l)
);
},
{
closed = 1;
nodes = (
(140,240,l),
(195,240,l),
(195,160,l),
(140,160,l)
);
},
{
closed = 1;
nodes = (
(435,210,l),
(450,210,l),
(450,240,l),
(465,240,l),
(465,210,l),
(480,210,l),
(480,190,l),
(435,190,l)
);
},
{
closed = 1;
nodes = (
(50,90,l),
(50,60,l),
(65,60,l),
(65,30,l),
(80,30,l),
(80,0,l),
(90,0,l),
(90,30,l),
(105,30,l),
(105,60,l),
(120,60,l),
(120,90,l),
(135,90,l),
(135,100,l),
(110,100,l),
(110,70,l),
(95,70,l),
(95,40,l),
(75,40,l),
(75,70,l),
(60,70,l),
(60,100,l),
(35,100,l),
(35,90,l)
);
},
{
closed = 1;
nodes = (
(225,0,l),
(225,10,l),
(165,10,l),
(165,45,l),
(205,45,l),
(205,55,l),
(165,55,l),
(165,90,l),
(225,90,l),
(225,100,l),
(155,100,l),
(155,0,l)
);
},
{
closed = 1;
nodes = (
(325,0,l),
(325,10,l),
(265,10,l),
(265,100,l),
(255,100,l),
(255,0,l)
);
},
{
closed = 1;
nodes = (
(325,90,l),
(325,60,l),
(340,60,l),
(340,30,l),
(355,30,l),
(355,0,l),
(365,0,l),
(365,30,l),
(380,30,l),
(380,60,l),
(395,60,l),
(395,90,l),
(410,90,l),
(410,100,l),
(385,100,l),
(385,70,l),
(370,70,l),
(370,40,l),
(350,40,l),
(350,70,l),
(335,70,l),
(335,100,l),
(310,100,l),
(310,90,l)
);
},
{
closed = 1;
nodes = (
(500,0,l),
(500,10,l),
(440,10,l),
(440,45,l),
(480,45,l),
(480,55,l),
(440,55,l),
(440,90,l),
(500,90,l),
(500,100,l),
(430,100,l),
(430,0,l)
);
},
{
closed = 1;
nodes = (
(555,90,l),
(555,0,l),
(565,0,l),
(565,90,l),
(600,90,l),
(600,100,l),
(520,100,l),
(520,90,l)
);
},
{
closed = 1;
nodes = (
(655,45,l),
(655,0,l),
(665,0,l),
(665,45,l),
(700,45,l),
(700,100,l),
(690,100,l),
(690,55,l),
(630,55,l),
(630,100,l),
(620,100,l),
(620,45,l)
);
},
{
closed = 1;
nodes = (
(730,0,l),
(730,90,l),
(740,90,l),
(740,60,l),
(755,60,l),
(755,30,l),
(770,30,l),
(770,0,l),
(800,0,l),
(800,100,l),
(790,100,l),
(790,10,l),
(780,10,l),
(780,40,l),
(765,40,l),
(765,70,l),
(750,70,l),
(750,100,l),
(720,100,l),
(720,0,l)
);
},
{
closed = 1;
nodes = (
(895,0,l),
(895,10,l),
(835,10,l),
(835,45,l),
(875,45,l),
(875,55,l),
(835,55,l),
(835,90,l),
(895,90,l),
(895,100,l),
(825,100,l),
(825,0,l)
);
},
{
closed = 1;
nodes = (
(80,-150,l),
(80,-105,l),
(120,-105,l),
(120,-95,l),
(80,-95,l),
(80,-60,l),
(140,-60,l),
(140,-50,l),
(70,-50,l),
(70,-150,l)
);
},
{
closed = 1;
nodes = (
(175,-150,l),
(175,-110,l),
(240,-110,l),
(240,-150,l),
(250,-150,l),
(250,-100,l),
(220,-100,l),
(220,-50,l),
(165,-50,l),
(165,-150,l)
);
},
{
closed = 1;
nodes = (
(950,-150,l),
(950,-50,l),
(285,-50,l),
(285,-150,l)
);
},
{
closed = 1;
nodes = (
(175,-60,l),
(210,-60,l),
(210,-100,l),
(175,-100,l)
);
},
{
closed = 1;
nodes = (
(45,-150,l),
(45,-135,l),
(30,-135,l),
(30,-150,l)
);
}
);
width = 1000;
},
{
hints = (
{
horizontal = 1;
place = (-150, 15);
place = (-150, 15);
type = Stem;
},
{
horizontal = 1;
place = (-105, 10);
place = (-105, 10);
type = Stem;
},
{
horizontal = 1;
place = (-60, 10);
place = (-60, 10);
type = Stem;
},
{
horizontal = 1;
place = (0, 10);
place = (0, 10);
type = Stem;
},
{
horizontal = 1;
place = (30, 10);
place = (30, 10);
type = Stem;
},
{
horizontal = 1;
place = (45, 10);
place = (45, 10);
type = Stem;
},
{
horizontal = 1;
place = (60, 10);
place = (60, 10);
type = Stem;
},
{
horizontal = 1;
place = (90, 10);
place = (90, 10);
type = Stem;
},
{
horizontal = 1;
place = (150, 10);
place = (150, 10);
type = Stem;
},
{
horizontal = 1;
place = (210, 10);
place = (210, 10);
type = Stem;
},
{
horizontal = 1;
place = (240, 10);
place = (240, 10);
type = Stem;
},
{
horizontal = 1;
place = (300, 10);
place = (300, 10);
type = Stem;
},
{
horizontal = 1;
place = (340, 10);
place = (340, 10);
type = Stem;
},
{
horizontal = 1;
place = (360, 10);
place = (360, 10);
type = Stem;
},
{
horizontal = 1;
place = (390, 10);
place = (390, 10);
type = Stem;
},
{
horizontal = 1;
place = (450, 10);
place = (450, 10);
type = Stem;
},
{
horizontal = 1;
place = (480, 10);
place = (480, 10);
type = Stem;
},
{
place = (40, 10);
place = (40, 10);
type = Stem;
},
{
place = (65, 10);
place = (65, 10);
type = Stem;
},
{
place = (80, 10);
place = (80, 10);
type = Stem;
},
{
place = (95, 10);
place = (95, 10);
type = Stem;
},
{
place = (120, 10);
place = (120, 10);
type = Stem;
},
{
place = (155, 10);
place = (155, 10);
type = Stem;
},
{
place = (195, 10);
place = (195, 10);
type = Stem;
},
{
place = (210, 10);
place = (210, 10);
type = Stem;
},
{
place = (240, 10);
place = (240, 10);
type = Stem;
},
{
place = (30, 15);
place = (30, 15);
type = Stem;
},
{
place = (215, 10);
place = (215, 10);
type = Stem;
},
{
place = (250, 10);
place = (250, 10);
type = Stem;
},
{
horizontal = 1;
place = (180, 10);
place = (180, 10);
type = Stem;
},
{
place = (180, 10);
place = (180, 10);
type = Stem;
},
{
place = (170, 10);
place = (170, 10);
type = Stem;
},
{
place = (225, 10);
place = (225, 10);
type = Stem;
},
{
place = (185, 10);
place = (185, 10);
type = Stem;
},
{
horizontal = 1;
place = (490, 10);
place = (490, 10);
type = Stem;
},
{
place = (110, 10);
place = (110, 10);
type = Stem;
},
{
place = (235, 10);
place = (235, 10);
type = Stem;
},
{
horizontal = 1;
place = (345, 10);
place = (345, 10);
type = Stem;
},
{
horizontal = 1;
place = (330, 10);
place = (330, 10);
type = Stem;
},
{
place = (130, 10);
place = (130, 10);
type = Stem;
},
{
place = (50, 10);
place = (50, 10);
type = Stem;
},
{
place = (70, 10);
place = (70, 10);
type = Stem;
},
{
place = (165, 10);
place = (165, 10);
type = Stem;
}
);
layerId = "7844E041-0347-4A22-AC49-F696B23A3360";
shapes = (
{
closed = 1;
nodes = (
(50,600,l),
(50,700,l),
(40,700,l),
(40,600,l)
);
},
{
closed = 1;
nodes = (
(90,600,l),
(90,645,l),
(130,645,l),
(130,655,l),
(90,655,l),
(90,690,l),
(150,690,l),
(150,700,l),
(80,700,l),
(80,600,l)
);
},
{
closed = 1;
nodes = (
(215,645,l),
(215,600,l),
(225,600,l),
(225,645,l),
(260,645,l),
(260,700,l),
(250,700,l),
(250,655,l),
(190,655,l),
(190,700,l),
(180,700,l),
(180,645,l)
);
},
{
closed = 1;
nodes = (
(365,600,l),
(365,700,l),
(290,700,l),
(290,600,l)
);
},
{
closed = 1;
nodes = (
(475,600,l),
(475,700,l),
(465,700,l),
(465,610,l),
(405,610,l),
(405,700,l),
(395,700,l),
(395,600,l)
);
},
{
closed = 1;
nodes = (
(950,600,l),
(950,700,l),
(505,700,l),
(505,600,l)
);
},
{
closed = 1;
nodes = (
(300,690,l),
(355,690,l),
(355,610,l),
(300,610,l)
);
},
{
closed = 1;
nodes = (
(130,450,l),
(130,550,l),
(120,550,l),
(120,460,l),
(90,460,l),
(90,515,l),
(80,515,l),
(80,460,l),
(50,460,l),
(50,550,l),
(40,550,l),
(40,450,l)
);
},
{
closed = 1;
nodes = (
(165,450,l),
(165,480,l),
(240,480,l),
(240,450,l),
(250,450,l),
(250,490,l),
(235,490,l),
(235,520,l),
(220,520,l),
(220,550,l),
(185,550,l),
(185,520,l),
(170,520,l),
(170,490,l),
(155,490,l),
(155,450,l)
);
},
{
closed = 1;
nodes = (
(285,450,l),
(285,540,l),
(295,540,l),
(295,510,l),
(310,510,l),
(310,480,l),
(325,480,l),
(325,450,l),
(355,450,l),
(355,550,l),
(345,550,l),
(345,460,l),
(335,460,l),
(335,490,l),
(320,490,l),
(320,520,l),
(305,520,l),
(305,550,l),
(275,550,l),
(275,450,l)
);
},
{
closed = 1;
nodes = (
(410,540,l),
(410,450,l),
(420,450,l),
(420,540,l),
(455,540,l),
(455,550,l),
(375,550,l),
(375,540,l)
);
},
{
closed = 1;
nodes = (
(505,450,l),
(505,540,l),
(515,540,l),
(515,510,l),
(530,510,l),
(530,480,l),
(545,480,l),
(545,450,l),
(555,450,l),
(555,480,l),
(570,480,l),
(570,510,l),
(585,510,l),
(585,540,l),
(595,540,l),
(595,450,l),
(605,450,l),
(605,550,l),
(575,550,l),
(575,520,l),
(560,520,l),
(560,490,l),
(540,490,l),
(540,520,l),
(525,520,l),
(525,550,l),
(495,550,l),
(495,450,l)
);
},
{
closed = 1;
nodes = (
(710,450,l),
(710,550,l),
(635,550,l),
(635,450,l)
);
},
{
closed = 1;
nodes = (
(745,450,l),
(745,490,l),
(810,490,l),
(810,450,l),
(820,450,l),
(820,500,l),
(790,500,l),
(790,550,l),
(735,550,l),
(735,450,l)
);
},
{
closed = 1;
nodes = (
(910,450,l),
(910,460,l),
(850,460,l),
(850,495,l),
(890,495,l),
(890,505,l),
(850,505,l),
(850,540,l),
(910,540,l),
(910,550,l),
(840,550,l),
(840,450,l)
);
},
{
closed = 1;
nodes = (
(180,510,l),
(195,510,l),
(195,540,l),
(210,540,l),
(210,510,l),
(225,510,l),
(225,490,l),
(180,490,l)
);
},
{
closed = 1;
nodes = (
(645,540,l),
(700,540,l),
(700,460,l),
(645,460,l)
);
},
{
closed = 1;
nodes = (
(745,540,l),
(780,540,l),
(780,500,l),
(745,500,l)
);
},
{
closed = 1;
nodes = (
(935,450,l),
(935,435,l),
(945,435,l),
(945,465,l),
(930,465,l),
(930,450,l)
);
},
{
closed = 1;
nodes = (
(50,300,l),
(50,345,l),
(90,345,l),
(90,355,l),
(50,355,l),
(50,390,l),
(110,390,l),
(110,400,l),
(40,400,l),
(40,300,l)
);
},
{
closed = 1;
nodes = (
(205,300,l),
(205,400,l),
(130,400,l),
(130,300,l)
);
},
{
closed = 1;
nodes = (
(245,300,l),
(245,340,l),
(310,340,l),
(310,300,l),
(320,300,l),
(320,350,l),
(290,350,l),
(290,400,l),
(235,400,l),
(235,300,l)
);
},
{
closed = 1;
nodes = (
(355,300,l),
(355,345,l),
(370,345,l),
(370,330,l),
(395,330,l),
(395,300,l),
(420,300,l),
(420,310,l),
(405,310,l),
(405,340,l),
(380,340,l),
(380,360,l),
(405,360,l),
(405,390,l),
(420,390,l),
(420,400,l),
(395,400,l),
(395,370,l),
(370,370,l),
(370,355,l),
(355,355,l),
(355,400,l),
(345,400,l),
(345,300,l)
);
},
{
closed = 1;
nodes = (
(495,300,l),
(495,390,l),
(505,390,l),
(505,360,l),
(520,360,l),
(520,330,l),
(535,330,l),
(535,300,l),
(545,300,l),
(545,330,l),
(560,330,l),
(560,360,l),
(575,360,l),
(575,390,l),
(585,390,l),
(585,300,l),
(595,300,l),
(595,400,l),
(565,400,l),
(565,370,l),
(550,370,l),
(550,340,l),
(530,340,l),
(530,370,l),
(515,370,l),
(515,400,l),
(485,400,l),
(485,300,l)
);
},
{
closed = 1;
nodes = (
(700,300,l),
(700,310,l),
(640,310,l),
(640,345,l),
(680,345,l),
(680,355,l),
(640,355,l),
(640,390,l),
(700,390,l),
(700,400,l),
(630,400,l),
(630,300,l)
);
},
{
closed = 1;
nodes = (
(835,300,l),
(835,400,l),
(760,400,l),
(760,300,l)
);
},
{
closed = 1;
nodes = (
(875,300,l),
(875,340,l),
(940,340,l),
(940,300,l),
(950,300,l),
(950,350,l),
(920,350,l),
(920,400,l),
(865,400,l),
(865,300,l)
);
},
{
closed = 1;
nodes = (
(140,390,l),
(195,390,l),
(195,310,l),
(140,310,l)
);
},
{
closed = 1;
nodes = (
(245,390,l),
(280,390,l),
(280,350,l),
(245,350,l)
);
},
{
closed = 1;
nodes = (
(770,390,l),
(825,390,l),
(825,310,l),
(770,310,l)
);
},
{
closed = 1;
nodes = (
(875,390,l),
(910,390,l),
(910,350,l),
(875,350,l)
);
},
{
closed = 1;
nodes = (
(105,150,l),
(105,160,l),
(50,160,l),
(50,240,l),
(105,240,l),
(105,250,l),
(40,250,l),
(40,150,l)
);
},
{
closed = 1;
nodes = (
(205,150,l),
(205,250,l),
(130,250,l),
(130,150,l)
);
},
{
closed = 1;
nodes = (
(245,150,l),
(245,240,l),
(255,240,l),
(255,210,l),
(270,210,l),
(270,180,l),
(285,180,l),
(285,150,l),
(315,150,l),
(315,250,l),
(305,250,l),
(305,160,l),
(295,160,l),
(295,190,l),
(280,190,l),
(280,220,l),
(265,220,l),
(265,250,l),
(235,250,l),
(235,150,l)
);
},
{
closed = 1;
nodes = (
(365,240,l),
(365,150,l),
(375,150,l),
(375,240,l),
(410,240,l),
(410,250,l),
(330,250,l),
(330,240,l)
);
},
{
closed = 1;
nodes = (
(420,150,l),
(420,180,l),
(495,180,l),
(495,150,l),
(505,150,l),
(505,190,l),
(490,190,l),
(490,220,l),
(475,220,l),
(475,250,l),
(440,250,l),
(440,220,l),
(425,220,l),
(425,190,l),
(410,190,l),
(410,150,l)
);
},
{
closed = 1;
nodes = (
(590,150,l),
(590,160,l),
(535,160,l),
(535,240,l),
(590,240,l),
(590,250,l),
(525,250,l),
(525,150,l)
);
},
{
closed = 1;
nodes = (
(645,240,l),
(645,150,l),
(655,150,l),
(655,240,l),
(690,240,l),
(690,250,l),
(610,250,l),
(610,240,l)
);
},
{
closed = 1;
nodes = (
(950,150,l),
(950,250,l),
(710,250,l),
(710,150,l)
);
},
{
closed = 1;
nodes = (
(140,240,l),
(195,240,l),
(195,160,l),
(140,160,l)
);
},
{
closed = 1;
nodes = (
(435,210,l),
(450,210,l),
(450,240,l),
(465,240,l),
(465,210,l),
(480,210,l),
(480,190,l),
(435,190,l)
);
},
{
closed = 1;
nodes = (
(50,90,l),
(50,60,l),
(65,60,l),
(65,30,l),
(80,30,l),
(80,0,l),
(90,0,l),
(90,30,l),
(105,30,l),
(105,60,l),
(120,60,l),
(120,90,l),
(135,90,l),
(135,100,l),
(110,100,l),
(110,70,l),
(95,70,l),
(95,40,l),
(75,40,l),
(75,70,l),
(60,70,l),
(60,100,l),
(35,100,l),
(35,90,l)
);
},
{
closed = 1;
nodes = (
(225,0,l),
(225,10,l),
(165,10,l),
(165,45,l),
(205,45,l),
(205,55,l),
(165,55,l),
(165,90,l),
(225,90,l),
(225,100,l),
(155,100,l),
(155,0,l)
);
},
{
closed = 1;
nodes = (
(325,0,l),
(325,10,l),
(265,10,l),
(265,100,l),
(255,100,l),
(255,0,l)
);
},
{
closed = 1;
nodes = (
(325,90,l),
(325,60,l),
(340,60,l),
(340,30,l),
(355,30,l),
(355,0,l),
(365,0,l),
(365,30,l),
(380,30,l),
(380,60,l),
(395,60,l),
(395,90,l),
(410,90,l),
(410,100,l),
(385,100,l),
(385,70,l),
(370,70,l),
(370,40,l),
(350,40,l),
(350,70,l),
(335,70,l),
(335,100,l),
(310,100,l),
(310,90,l)
);
},
{
closed = 1;
nodes = (
(500,0,l),
(500,10,l),
(440,10,l),
(440,45,l),
(480,45,l),
(480,55,l),
(440,55,l),
(440,90,l),
(500,90,l),
(500,100,l),
(430,100,l),
(430,0,l)
);
},
{
closed = 1;
nodes = (
(555,90,l),
(555,0,l),
(565,0,l),
(565,90,l),
(600,90,l),
(600,100,l),
(520,100,l),
(520,90,l)
);
},
{
closed = 1;
nodes = (
(655,45,l),
(655,0,l),
(665,0,l),
(665,45,l),
(700,45,l),
(700,100,l),
(690,100,l),
(690,55,l),
(630,55,l),
(630,100,l),
(620,100,l),
(620,45,l)
);
},
{
closed = 1;
nodes = (
(730,0,l),
(730,90,l),
(740,90,l),
(740,60,l),
(755,60,l),
(755,30,l),
(770,30,l),
(770,0,l),
(800,0,l),
(800,100,l),
(790,100,l),
(790,10,l),
(780,10,l),
(780,40,l),
(765,40,l),
(765,70,l),
(750,70,l),
(750,100,l),
(720,100,l),
(720,0,l)
);
},
{
closed = 1;
nodes = (
(895,0,l),
(895,10,l),
(835,10,l),
(835,45,l),
(875,45,l),
(875,55,l),
(835,55,l),
(835,90,l),
(895,90,l),
(895,100,l),
(825,100,l),
(825,0,l)
);
},
{
closed = 1;
nodes = (
(80,-150,l),
(80,-105,l),
(120,-105,l),
(120,-95,l),
(80,-95,l),
(80,-60,l),
(140,-60,l),
(140,-50,l),
(70,-50,l),
(70,-150,l)
);
},
{
closed = 1;
nodes = (
(175,-150,l),
(175,-110,l),
(240,-110,l),
(240,-150,l),
(250,-150,l),
(250,-100,l),
(220,-100,l),
(220,-50,l),
(165,-50,l),
(165,-150,l)
);
},
{
closed = 1;
nodes = (
(950,-150,l),
(950,-50,l),
(285,-50,l),
(285,-150,l)
);
},
{
closed = 1;
nodes = (
(175,-60,l),
(210,-60,l),
(210,-100,l),
(175,-100,l)
);
},
{
closed = 1;
nodes = (
(45,-150,l),
(45,-135,l),
(30,-135,l),
(30,-150,l)
);
}
);
width = 1000;
}
);
note = ".notdef";
},
{
glyphname = A;
kernLeft = A;
kernRight = A;
lastChange = "2024-02-25 17:05:27 +0000";
layers = (
{
hints = (
{
horizontal = 1;
place = (-12, 720);
place = (-12, 720);
type = Stem;
},
{
place = (10, 625);
place = (10, 625);
type = Stem;
}
);
layerId = m01;
shapes = (
{
closed = 1;
nodes = (
(10,3,l),
(282,708,l),
(322,692,l),
(50,-12,l)
);
},
{
closed = 1;
nodes = (
(323,692,l),
(363,708,l),
(635,3,l),
(595,-12,l)
);
},
{
closed = 1;
nodes = (
(163,233,l),
(163,276,l),
(482,276,l),
(482,233,l)
);
}
);
width = 647;
},
{
hints = (
{
horizontal = 1;
place = (-12, 720);
place = (-12, 720);
type = Stem;
},
{
place = (10, 625);
place = (10, 625);
type = Stem;
}
);
layerId = "7844E041-0347-4A22-AC49-F696B23A3360";
shapes = (
{
closed = 1;
nodes = (
(10,3,l),
(282,708,l),
(322,692,l),
(50,-12,l)
);
},
{
closed = 1;
nodes = (
(323,692,l),
(363,708,l),
(635,3,l),
(595,-12,l)
);
},
{
closed = 1;
nodes = (
(163,233,l),
(163,276,l),
(482,276,l),
(482,233,l)
);
}
);
width = 647;
}
);
note = A;
unicode = 65;
},
{
glyphname = Aacute;
lastChange = "2024-02-25 17:05:27 +0000";
layers = (
{
hints = (
{
horizontal = 1;
place = (800, -20);
target = down;
type = TopGhost;
},
{
place = (10, 625);
place = (10, 625);
type = Stem;
}
);
layerId = m01;
shapes = (
{
closed = 1;
nodes = (
(206,833,l),
(414,1007,l),
(441,975,l),
(233,800,l)
);
},
{
closed = 1;
nodes = (
(10,3,l),
(282,708,l),
(322,692,l),
(50,-12,l)
);
},
{
closed = 1;
nodes = (
(323,692,l),
(363,708,l),
(635,3,l),
(595,-12,l)
);
},
{
closed = 1;
nodes = (
(163,233,l),
(163,276,l),
(482,276,l),
(482,233,l)
);
}
);
width = 647;
},
{
hints = (
{
horizontal = 1;
place = (800, -20);
target = down;
type = TopGhost;
},
{
place = (10, 625);
place = (10, 625);
type = Stem;
}
);
layerId = "7844E041-0347-4A22-AC49-F696B23A3360";
shapes = (
{
closed = 1;
nodes = (
(206,833,l),
(414,1007,l),
(441,975,l),
(233,800,l)
);
},
{
closed = 1;
nodes = (
(10,3,l),
(282,708,l),
(322,692,l),
(50,-12,l)
);
},
{
closed = 1;
nodes = (
(323,692,l),
(363,708,l),
(635,3,l),
(595,-12,l)
);
},
{
closed = 1;
nodes = (
(163,233,l),
(163,276,l),
(482,276,l),
(482,233,l)
);
}
);
width = 647;
}
);
note = Aacute;
unicode = 193;
},
{
glyphname = Acircumflex;
lastChange = "2024-02-25 17:05:27 +0000";
layers = (
{
hints = (
{
horizontal = 1;
place = (800, -20);
target = down;
type = TopGhost;
},
{
place = (10, 625);
place = (10, 625);
type = Stem;
}
);
layerId = m01;
shapes = (
{
closed = 1;
nodes = (
(191,821,l),
(283,995,l),
(321,975,l),
(229,800,l)
);
},
{
closed = 1;
nodes = (
(325,975,l),
(363,995,l),
(456,821,l),
(418,800,l)
);
},
{
closed = 1;
nodes = (
(10,3,l),
(282,708,l),
(322,692,l),
(50,-12,l)
);
},
{
closed = 1;
nodes = (
(323,692,l),
(363,708,l),
(635,3,l),
(595,-12,l)
);
},
{
closed = 1;
nodes = (
(163,233,l),
(163,276,l),
(482,276,l),
(482,233,l)
);
}
);
width = 647;
},
{
hints = (
{
horizontal = 1;
place = (800, -20);
target = down;
type = TopGhost;
},
{
place = (10, 625);
place = (10, 625);
type = Stem;
}
);
layerId = "7844E041-0347-4A22-AC49-F696B23A3360";
shapes = (
{
closed = 1;
nodes = (
(191,821,l),
(283,995,l),
(321,975,l),
(229,800,l)
);
},
{
closed = 1;
nodes = (
(325,975,l),
(363,995,l),
(456,821,l),
(418,800,l)
);
},
{
closed = 1;
nodes = (
(10,3,l),
(282,708,l),
(322,692,l),
(50,-12,l)
);
},
{
closed = 1;
nodes = (
(323,692,l),
(363,708,l),
(635,3,l),
(595,-12,l)
);
},
{
closed = 1;
nodes = (
(163,233,l),
(163,276,l),
(482,276,l),
(482,233,l)
);
}
);
width = 647;
}
);
note = Acircumflex;
unicode = 194;
},
{
glyphname = Adieresis;
lastChange = "2024-02-25 17:05:27 +0000";
layers = (
{
hints = (
{
horizontal = 1;
place = (800, -20);
target = down;
type = TopGhost;
},
{
horizontal = 1;
place = (843, 21);
place = (843, 21);
type = Stem;
},
{
place = (277, 95);
place = (277, 95);
type = Stem;
},
{
horizontal = 1;
place = (708, 92);
place = (708, 92);
type = Stem;
}
);
layerId = m01;
shapes = (
{
closed = 1;
nodes = (
(132,864,l),
(185,963,l),
(223,942,l),
(170,843,l)
);
},
{
closed = 1;
nodes = (
(227,942,l),
(265,963,l),
(318,864,l),
(280,843,l)
);
},
{
closed = 1;
nodes = (
(331,864,l),
(384,963,l),
(422,942,l),
(369,843,l)
);
},
{
closed = 1;
nodes = (
(426,942,l),
(464,963,l),
(517,864,l),
(479,843,l)
);
},
{
closed = 1;
nodes = (
(173,800,l),
(173,843,l),
(277,843,l),
(277,800,l)
);
},
{
closed = 1;
nodes = (
(372,800,l),
(372,843,l),
(476,843,l),
(476,800,l)
);
},
{
closed = 1;
nodes = (
(10,3,l),
(282,708,l),
(322,692,l),
(50,-12,l)
);
},
{
closed = 1;
nodes = (
(323,692,l),
(363,708,l),
(635,3,l),
(595,-12,l)
);
},
{
closed = 1;
nodes = (
(163,233,l),
(163,276,l),
(482,276,l),
(482,233,l)
);
}
);
width = 647;
},
{
hints = (
{
horizontal = 1;
place = (800, -20);
target = down;
type = TopGhost;
},
{
horizontal = 1;
place = (843, 21);
place = (843, 21);
type = Stem;
},
{
place = (277, 95);
place = (277, 95);
type = Stem;
},
{
horizontal = 1;
place = (708, 92);
place = (708, 92);
type = Stem;
}
);
layerId = "7844E041-0347-4A22-AC49-F696B23A3360";
shapes = (
{
closed = 1;
nodes = (
(132,864,l),
(185,963,l),
(223,942,l),
(170,843,l)
);
},
{
closed = 1;
nodes = (
(227,942,l),
(265,963,l),
(318,864,l),
(280,843,l)
);
},
{
closed = 1;
nodes = (
(331,864,l),
(384,963,l),
(422,942,l),
(369,843,l)
);
},
{
closed = 1;
nodes = (
(426,942,l),
(464,963,l),
(517,864,l),
(479,843,l)
);
},
{
closed = 1;
nodes = (
(173,800,l),
(173,843,l),
(277,843,l),
(277,800,l)
);
},
{
closed = 1;
nodes = (
(372,800,l),
(372,843,l),
(476,843,l),
(476,800,l)
);
},
{
closed = 1;
nodes = (
(10,3,l),
(282,708,l),
(322,692,l),
(50,-12,l)
);
},
{
closed = 1;
nodes = (
(323,692,l),
(363,708,l),
(635,3,l),
(595,-12,l)
);
},
{
closed = 1;
nodes = (
(163,233,l),
(163,276,l),
(482,276,l),
(482,233,l)
);
}
);
width = 647;
}
);
note = Adieresis;
unicode = 196;
},
{
glyphname = Agrave;
lastChange = "2024-02-25 17:05:27 +0000";
layers = (
{
hints = (
{
horizontal = 1;
place = (800, -20);
target = down;
type = TopGhost;
},
{
place = (10, 625);
place = (10, 625);
type = Stem;
}
);
layerId = m01;
shapes = (
{
closed = 1;
nodes = (
(206,974,l),
(234,1007,l),
(442,833,l),
(415,800,l)
);
},
{
closed = 1;
nodes = (
(10,3,l),
(282,708,l),
(322,692,l),
(50,-12,l)
);
},
{
closed = 1;
nodes = (
(323,692,l),
(363,708,l),
(635,3,l),
(595,-12,l)
);
},
{
closed = 1;
nodes = (
(163,233,l),
(163,276,l),
(482,276,l),
(482,233,l)
);
}
);
width = 647;
},
{
hints = (
{
horizontal = 1;
place = (800, -20);
target = down;
type = TopGhost;
},
{
place = (10, 625);
place = (10, 625);
type = Stem;
}
);
layerId = "7844E041-0347-4A22-AC49-F696B23A3360";
shapes = (
{
closed = 1;
nodes = (
(206,974,l),
(234,1007,l),
(442,833,l),
(415,800,l)
);
},
{
closed = 1;
nodes = (
(10,3,l),
(282,708,l),
(322,692,l),
(50,-12,l)
);
},
{
closed = 1;
nodes = (
(323,692,l),
(363,708,l),
(635,3,l),
(595,-12,l)
);
},
{
closed = 1;
nodes = (
(163,233,l),
(163,276,l),
(482,276,l),
(482,233,l)
);
}
);
width = 647;
}
);
note = Agrave;
unicode = 192;
},
{
glyphname = Aring;
lastChange = "2024-02-25 17:05:27 +0000";
layers = (
{
hints = (
{
horizontal = 1;
place = (708, 92);
place = (708, 92);
type = Stem;
},
{
horizontal = 1;
place = (843, 116);
place = (843, 116);
type = Stem;
},
{
place = (265, 117);
place = (265, 117);
type = Stem;
}
);
layerId = m01;
shapes = (
{
closed = 1;
nodes = (
(269,959,l),
(269,1002,l),
(378,1002,l),
(378,959,l)
);
},
{
closed = 1;
nodes = (
(222,847,l),
(222,955,l),
(265,955,l),
(265,847,l)
);
},
{
closed = 1;
nodes = (
(382,847,l),
(382,955,l),
(425,955,l),
(425,847,l)
);
},
{
closed = 1;
nodes = (
(269,800,l),
(269,843,l),
(378,843,l),
(378,800,l)
);
},
{
closed = 1;
nodes = (
(10,3,l),
(282,708,l),
(322,692,l),
(50,-12,l)
);
},
{
closed = 1;
nodes = (
(323,692,l),
(363,708,l),
(635,3,l),
(595,-12,l)
);
},
{
closed = 1;
nodes = (
(163,233,l),
(163,276,l),
(482,276,l),
(482,233,l)
);
}
);
width = 647;
},
{
hints = (
{
horizontal = 1;
place = (708, 92);
place = (708, 92);
type = Stem;
},
{
horizontal = 1;
place = (843, 116);
place = (843, 116);
type = Stem;
},
{
place = (265, 117);
place = (265, 117);
type = Stem;
}
);
layerId = "7844E041-0347-4A22-AC49-F696B23A3360";
shapes = (
{
closed = 1;
nodes = (
(269,959,l),
(269,1002,l),
(378,1002,l),
(378,959,l)
);
},
{
closed = 1;
nodes = (
(222,847,l),
(222,955,l),
(265,955,l),
(265,847,l)
);
},
{
closed = 1;
nodes = (
(382,847,l),
(382,955,l),
(425,955,l),
(425,847,l)
);
},
{
closed = 1;
nodes = (
(269,800,l),
(269,843,l),
(378,843,l),
(378,800,l)
);
},
{
closed = 1;
nodes = (
(10,3,l),
(282,708,l),
(322,692,l),
(50,-12,l)
);
},
{
closed = 1;
nodes = (
(323,692,l),
(363,708,l),
(635,3,l),
(595,-12,l)
);
},
{
closed = 1;
nodes = (
(163,233,l),
(163,276,l),
(482,276,l),
(482,233,l)
);
}
);
width = 647;
}
);
note = Aring;
unicode = 197;
},
{
glyphname = Atilde;
lastChange = "2024-02-25 17:05:27 +0000";
layers = (
{
hints = (
{
horizontal = 1;
place = (808, -20);
target = down;
type = TopGhost;
},
{
place = (10, 625);
place = (10, 625);
type = Stem;
},
{
horizontal = 1;
place = (800, -20);
target = down;
type = TopGhost;
}
);
layerId = m01;
shapes = (
{
closed = 1;
nodes = (
(210,925,l),
(233,962,l),
(437,836,l),
(415,800,l)
);
},
{
closed = 1;
nodes = (
(441,840,l),
(467,953,l),
(509,943,l),
(482,830,l)
);
},
{
closed = 1;
nodes = (
(139,818,l),
(165,931,l),
(207,921,l),
(181,808,l)
);
},
{
closed = 1;
nodes = (
(10,3,l),
(282,708,l),
(322,692,l),
(50,-12,l)
);
},
{
closed = 1;
nodes = (
(323,692,l),
(363,708,l),
(635,3,l),
(595,-12,l)
);
},
{
closed = 1;
nodes = (
(163,233,l),
(163,276,l),
(482,276,l),
(482,233,l)
);
}
);
width = 647;
},
{
hints = (
{
horizontal = 1;
place = (808, -20);
target = down;
type = TopGhost;
},
{
place = (10, 625);
place = (10, 625);
type = Stem;
},
{
horizontal = 1;
place = (800, -20);
target = down;
type = TopGhost;
}
);
layerId = "7844E041-0347-4A22-AC49-F696B23A3360";
shapes = (
{
closed = 1;
nodes = (
(210,925,l),
(233,962,l),
(437,836,l),
(415,800,l)
);
},
{
closed = 1;
nodes = (
(441,840,l),
(467,953,l),
(509,943,l),
(482,830,l)
);
},
{
closed = 1;
nodes = (
(139,818,l),
(165,931,l),
(207,921,l),
(181,808,l)
);
},
{
closed = 1;
nodes = (
(10,3,l),
(282,708,l),
(322,692,l),
(50,-12,l)
);
},
{
closed = 1;
nodes = (
(323,692,l),
(363,708,l),
(635,3,l),
(595,-12,l)
);
},
{
closed = 1;
nodes = (
(163,233,l),
(163,276,l),
(482,276,l),
(482,233,l)
);
}
);
width = 647;
}
);
note = Atilde;
unicode = 195;
},
{
glyphname = AE;
lastChange = "2024-02-25 17:05:27 +0000";
layers = (
{
hints = (
{
horizontal = 1;
place = (43, 190);
place = (43, 190);
type = Stem;
},
{
horizontal = 1;
place = (276, 38);
place = (276, 38);
type = Stem;
},
{
horizontal = 1;
place = (357, 300);
place = (357, 300);
type = Stem;
},
{
place = (360, 15);
place = (360, 15);
type = Stem;
},
{
place = (418, 22);
place = (418, 22);
type = Stem;
},
{
place = (391, 28);
place = (391, 28);
type = Stem;
}
);
layerId = m01;
shapes = (
{
closed = 1;
nodes = (
(10,9,l),
(353,710,l),
(391,691,l),
(48,-9,l)
);
},
{
closed = 1;
nodes = (
(419,657,l),
(419,700,l),
(754,700,l),
(754,657,l)
);
},
{
closed = 1;
nodes = (
(375,45,l),
(375,655,l),
(418,655,l),
(418,45,l)
);
},
{
closed = 1;
nodes = (
(440,314,l),
(440,357,l),
(686,357,l),
(686,314,l)
);
},
{
closed = 1;
nodes = (
(190,233,l),
(190,276,l),
(360,276,l),
(360,233,l)
);
},
{
closed = 1;
nodes = (
(419,0,l),
(419,43,l),
(754,43,l),
(754,0,l)
);
}
);
width = 804;
},
{
hints = (
{
horizontal = 1;
place = (43, 190);
place = (43, 190);
type = Stem;
},
{
horizontal = 1;
place = (276, 38);
place = (276, 38);
type = Stem;
},
{
horizontal = 1;
place = (357, 300);
place = (357, 300);
type = Stem;
},
{
place = (360, 15);
place = (360, 15);
type = Stem;
},
{
place = (418, 22);
place = (418, 22);
type = Stem;
},
{
place = (391, 28);
place = (391, 28);
type = Stem;
}
);
layerId = "7844E041-0347-4A22-AC49-F696B23A3360";
shapes = (
{
closed = 1;
nodes = (
(10,9,l),
(353,710,l),
(391,691,l),
(48,-9,l)
);
},
{
closed = 1;
nodes = (
(419,657,l),
(419,700,l),
(754,700,l),
(754,657,l)
);
},
{
closed = 1;
nodes = (
(375,45,l),
(375,655,l),
(418,655,l),
(418,45,l)
);
},
{
closed = 1;
nodes = (
(440,314,l),
(440,357,l),
(686,357,l),
(686,314,l)
);
},
{
closed = 1;
nodes = (
(190,233,l),
(190,276,l),
(360,276,l),
(360,233,l)
);
},
{
closed = 1;
nodes = (
(419,0,l),
(419,43,l),
(754,43,l),
(754,0,l)
);
}
);
width = 804;
}
);
note = AE;
unicode = 198;
},
{
glyphname = B;
lastChange = "2024-02-25 17:05:27 +0000";
layers = (
{
hints = (
{
horizontal = 1;
place = (43, 34);
place = (43, 34);
type = Stem;
},
{
horizontal = 1;
place = (658, 27);
place = (658, 27);
type = Stem;
},
{
place = (122, 27);
place = (122, 27);
type = Stem;
}
);
layerId = m01;
shapes = (
{
closed = 1;
nodes = (
(99,685,l),
(131,714,l),
(367,451,l),
(335,422,l)
);
},
{
closed = 1;
nodes = (
(80,45,l),
(80,658,l),
(122,658,l),
(122,45,l)
);
},
{
closed = 1;
nodes = (
(123,394,l),
(419,431,l),
(424,389,l),
(128,352,l)
);
},
{
closed = 1;
nodes = (
(123,320,l),
(149,354,l),
(506,77,l),
(479,43,l)
);
},
{
closed = 1;
nodes = (
(123,0,l),
(123,43,l),
(478,43,l),
(478,0,l)
);
}
);
width = 511;
},
{
hints = (
{
horizontal = 1;
place = (43, 34);
place = (43, 34);
type = Stem;
},
{
horizontal = 1;
place = (658, 27);
place = (658, 27);
type = Stem;
},
{
place = (122, 27);
place = (122, 27);
type = Stem;
}
);
layerId = "7844E041-0347-4A22-AC49-F696B23A3360";
shapes = (
{
closed = 1;
nodes = (
(99,685,l),
(131,714,l),
(367,451,l),
(335,422,l)
);
},
{
closed = 1;
nodes = (
(80,45,l),
(80,658,l),
(122,658,l),
(122,45,l)
);
},
{
closed = 1;
nodes = (
(123,394,l),
(419,431,l),
(424,389,l),
(128,352,l)
);
},
{
closed = 1;
nodes = (
(123,320,l),
(149,354,l),
(506,77,l),
(479,43,l)
);
},
{
closed = 1;
nodes = (
(123,0,l),
(123,43,l),
(478,43,l),
(478,0,l)
);
}
);
width = 511;
}
);
note = B;
unicode = 66;
},
{
glyphname = C;
lastChange = "2024-02-25 17:05:27 +0000";
layers = (
{
hints = (
{
horizontal = 1;
place = (501, 31);
place = (501, 31);
type = Stem;
},
{
place = (80, 447);
place = (80, 447);
type = Stem;
}
);
layerId = m01;
shapes = (
{
closed = 1;
nodes = (
(92,532,l),
(270,718,l),
(301,688,l),
(123,502,l)
);
},
{
closed = 1;
nodes = (
(302,688,l),
(333,718,l),
(511,532,l),
(481,502,l)
);
},
{
closed = 1;
nodes = (
(80,44,l),
(80,501,l),
(123,501,l),
(123,44,l)
);
},
{
closed = 1;
nodes = (
(124,0,l),
(124,43,l),
(527,43,l),
(527,0,l)
);
}
);
width = 557;
},
{
hints = (
{
horizontal = 1;
place = (501, 31);
place = (501, 31);
type = Stem;
},
{
place = (80, 447);
place = (80, 447);
type = Stem;
}
);
layerId = "7844E041-0347-4A22-AC49-F696B23A3360";
shapes = (
{
closed = 1;
nodes = (
(92,532,l),
(270,718,l),
(301,688,l),
(123,502,l)
);
},
{
closed = 1;
nodes = (
(302,688,l),
(333,718,l),
(511,532,l),
(481,502,l)
);
},
{
closed = 1;
nodes = (
(80,44,l),
(80,501,l),
(123,501,l),
(123,44,l)
);
},
{
closed = 1;
nodes = (
(124,0,l),
(124,43,l),
(527,43,l),
(527,0,l)
);
}
);
width = 557;
}
);
note = C;
unicode = 67;
},
{
glyphname = Ccedilla;
lastChange = "2024-02-25 17:05:27 +0000";
layers = (
{
hints = (
{
horizontal = 1;
place = (-137, 21);
target = up;
type = BottomGhost;
},
{
horizontal = 1;
place = (-56, 56);
place = (-56, 56);
type = Stem;
},
{
horizontal = 1;
place = (501, 31);
place = (501, 31);
type = Stem;
},
{
place = (80, 447);
place = (80, 447);
type = Stem;
}
);
layerId = m01;
shapes = (
{
closed = 1;
nodes = (
(92,532,l),
(270,718,l),
(301,688,l),
(123,502,l)
);
},
{
closed = 1;
nodes = (
(302,688,l),
(333,718,l),
(511,532,l),
(481,502,l)
);
},
{
closed = 1;
nodes = (
(80,44,l),
(80,501,l),
(123,501,l),
(123,44,l)
);
},
{
closed = 1;
nodes = (
(124,0,l),
(124,43,l),
(527,43,l),
(527,0,l)
);
},
{
closed = 1;
nodes = (
(220,-95,l),
(237,-56,l),
(428,-137,l),
(411,-176,l)
);
},
{
closed = 1;
nodes = (
(428,-220,l),
(237,-301,l),
(220,-262,l),
(411,-181,l)
);
}
);
width = 557;
},
{
hints = (
{
horizontal = 1;
place = (-137, 21);
target = up;
type = BottomGhost;
},
{
horizontal = 1;
place = (-56, 56);
place = (-56, 56);
type = Stem;
},
{
horizontal = 1;
place = (501, 31);
place = (501, 31);
type = Stem;
},
{
place = (80, 447);
place = (80, 447);
type = Stem;
}
);
layerId = "7844E041-0347-4A22-AC49-F696B23A3360";
shapes = (
{
closed = 1;
nodes = (
(92,532,l),
(270,718,l),
(301,688,l),
(123,502,l)
);
},
{
closed = 1;
nodes = (
(302,688,l),
(333,718,l),
(511,532,l),
(481,502,l)
);
},
{
closed = 1;
nodes = (
(80,44,l),
(80,501,l),
(123,501,l),
(123,44,l)
);
},
{
closed = 1;
nodes = (
(124,0,l),
(124,43,l),
(527,43,l),
(527,0,l)
);
},
{
closed = 1;
nodes = (
(220,-95,l),
(237,-56,l),
(428,-137,l),
(411,-176,l)
);
},
{
closed = 1;
nodes = (
(428,-220,l),
(237,-301,l),
(220,-262,l),
(411,-181,l)
);
}
);
width = 557;
}
);
note = Ccedilla;
unicode = 199;
},
{
glyphname = D;
lastChange = "2024-02-25 17:06:50 +0000";
layers = (
{
hints = (
{
horizontal = 1;
place = (43, 11);
place = (43, 11);
type = Stem;
},
{
horizontal = 1;
place = (646, 11);
place = (646, 11);
type = Stem;
},
{
place = (384, 33);
place = (384, 33);
type = Stem;
},
{
horizontal = 1;
place = (197, 30);
place = (197, 30);
type = Stem;
},
{
horizontal = 1;
place = (463, 29);
place = (463, 29);
type = Stem;
},
{
place = (383, 35);
place = (383, 35);
type = Stem;
}
);
layerId = m01;
shapes = (
{
closed = 1;
nodes = (
(20,657,l),
(20,700,l),
(383,700,l),
(383,657,l)
);
},
{
closed = 1;
nodes = (
(385,656,l),
(418,684,l),
(580,492,l),
(547,465,l)
);
},
{
closed = 1;
nodes = (
(108,54,l),
(108,646,l),
(151,646,l),
(151,54,l)
);
},
{
closed = 1;
nodes = (
(548,227,l),
(548,463,l),
(591,463,l),
(591,227,l)
);
},
{
closed = 1;
nodes = (
(385,43,l),
(548,226,l),
(580,197,l),
(417,15,l)
);
},
{
closed = 1;
nodes = (
(20,0,l),
(20,43,l),
(384,43,l),
(384,0,l)
);
}
);
width = 621;
},
{
hints = (
{
horizontal = 1;
place = (43, 11);
place = (43, 11);
type = Stem;
},
{
horizontal = 1;
place = (646, 11);
place = (646, 11);
type = Stem;
},
{
place = (384, 33);
place = (384, 33);
type = Stem;
},
{
horizontal = 1;
place = (197, 30);
place = (197, 30);
type = Stem;
},
{
horizontal = 1;
place = (463, 29);
place = (463, 29);
type = Stem;
},
{
place = (383, 35);
place = (383, 35);
type = Stem;
}
);
layerId = "7844E041-0347-4A22-AC49-F696B23A3360";
shapes = (
{
closed = 1;
nodes = (
(-898,1543,l),
(-921,1579,l),
(-616,1776,l),
(-593,1740,l)
);
},
{
closed = 1;
nodes = (
(1190,1347,l),
(1211,1384,l),
(1429,1259,l),
(1407,1222,l)
);
},
{
closed = 1;
nodes = (
(-2351,-243,l),
(-2524,323,l),
(-2483,336,l),
(-2310,-230,l)
);
},
{
closed = 1;
nodes = (
(1505,471,l),
(1389,678,l),
(1427,698,l),
(1542,492,l)
);
},
{
closed = 1;
nodes = (
(1821,-426,l),
(1847,-182,l),
(1890,-187,l),
(1863,-430,l)
);
},
{
closed = 1;
nodes = (
(-420,-859,l),
(-411,-816,l),
(-54,-890,l),
(-63,-932,l)
);
}
);
width = 621;
}
);
note = D;
unicode = 68;
},
{
glyphname = E;
lastChange = "2024-02-25 17:05:27 +0000";
layers = (
{
hints = (
{
horizontal = 1;
place = (43, 271);
place = (43, 271);
type = Stem;
},
{
horizontal = 1;
place = (357, 300);
place = (357, 300);
type = Stem;
},
{
place = (123, 22);
place = (123, 22);
type = Stem;
}
);
layerId = m01;
shapes = (
{
closed = 1;
nodes = (
(124,657,l),
(124,700,l),
(489,700,l),
(489,657,l)
);
},
{
closed = 1;
nodes = (
(80,44,l),
(80,656,l),
(123,656,l),
(123,44,l)
);
},
{
closed = 1;
nodes = (
(145,314,l),
(145,357,l),
(421,357,l),
(421,314,l)
);
},
{
closed = 1;
nodes = (
(124,0,l),
(124,43,l),
(489,43,l),
(489,0,l)
);
}
);
width = 544;
},
{
hints = (
{
horizontal = 1;
place = (43, 271);
place = (43, 271);
type = Stem;
},
{
horizontal = 1;
place = (357, 300);
place = (357, 300);
type = Stem;
},
{
place = (123, 22);
place = (123, 22);
type = Stem;
}
);
layerId = "7844E041-0347-4A22-AC49-F696B23A3360";
shapes = (
{
closed = 1;
nodes = (
(124,657,l),
(124,700,l),
(489,700,l),
(489,657,l)
);
},
{
closed = 1;
nodes = (
(80,44,l),
(80,656,l),
(123,656,l),
(123,44,l)
);
},
{
closed = 1;
nodes = (
(145,314,l),
(145,357,l),
(421,357,l),
(421,314,l)
);
},
{
closed = 1;
nodes = (
(124,0,l),
(124,43,l),
(489,43,l),
(489,0,l)
);
}
);
width = 544;
}
);
note = E;
unicode = 69;
},
{
glyphname = Eacute;
lastChange = "2024-02-25 17:05:27 +0000";
layers = (
{
hints = (
{
horizontal = 1;
place = (43, 271);
place = (43, 271);
type = Stem;
},
{
horizontal = 1;
place = (357, 300);
place = (357, 300);
type = Stem;
},
{
horizontal = 1;
place = (700, 100);
place = (700, 100);
type = Stem;
},
{
place = (123, 22);
place = (123, 22);
type = Stem;
}
);
layerId = m01;
shapes = (
{
closed = 1;
nodes = (
(154,833,l),
(362,1007,l),
(389,975,l),
(181,800,l)
);
},
{
closed = 1;
nodes = (
(124,657,l),
(124,700,l),
(489,700,l),
(489,657,l)
);
},
{
closed = 1;
nodes = (
(80,44,l),
(80,656,l),
(123,656,l),
(123,44,l)
);
},
{
closed = 1;
nodes = (
(145,314,l),
(145,357,l),
(421,357,l),
(421,314,l)
);
},
{
closed = 1;
nodes = (
(124,0,l),
(124,43,l),
(489,43,l),
(489,0,l)
);
}
);
width = 544;
},
{
hints = (
{
horizontal = 1;
place = (43, 271);
place = (43, 271);
type = Stem;
},
{
horizontal = 1;
place = (357, 300);
place = (357, 300);
type = Stem;
},
{
horizontal = 1;
place = (700, 100);
place = (700, 100);
type = Stem;
},
{
place = (123, 22);
place = (123, 22);
type = Stem;
}
);
layerId = "7844E041-0347-4A22-AC49-F696B23A3360";
shapes = (
{
closed = 1;
nodes = (
(154,833,l),
(362,1007,l),
(389,975,l),
(181,800,l)
);
},
{
closed = 1;
nodes = (
(124,657,l),
(124,700,l),
(489,700,l),
(489,657,l)
);
},
{
closed = 1;
nodes = (
(80,44,l),
(80,656,l),
(123,656,l),
(123,44,l)
);
},
{
closed = 1;
nodes = (
(145,314,l),
(145,357,l),
(421,357,l),
(421,314,l)
);
},
{
closed = 1;
nodes = (
(124,0,l),
(124,43,l),
(489,43,l),
(489,0,l)
);
}
);
width = 544;
}
);
note = Eacute;
unicode = 201;
},
{
glyphname = Ecircumflex;
lastChange = "2024-02-25 17:05:27 +0000";
layers = (
{
hints = (
{
horizontal = 1;
place = (43, 271);
place = (43, 271);
type = Stem;
},
{
horizontal = 1;
place = (357, 300);
place = (357, 300);
type = Stem;
},
{
horizontal = 1;
place = (700, 100);
place = (700, 100);
type = Stem;
},
{
place = (123, 22);
place = (123, 22);
type = Stem;
}
);
layerId = m01;
shapes = (
{
closed = 1;
nodes = (
(139,821,l),
(231,995,l),
(269,975,l),
(177,800,l)
);
},
{
closed = 1;
nodes = (
(273,975,l),
(311,995,l),
(404,821,l),
(366,800,l)
);
},
{
closed = 1;
nodes = (
(124,657,l),
(124,700,l),
(489,700,l),
(489,657,l)
);
},
{
closed = 1;
nodes = (
(80,44,l),
(80,656,l),
(123,656,l),
(123,44,l)
);
},
{
closed = 1;
nodes = (
(145,314,l),
(145,357,l),
(421,357,l),
(421,314,l)
);
},
{
closed = 1;
nodes = (
(124,0,l),
(124,43,l),
(489,43,l),
(489,0,l)
);
}
);
width = 544;
},
{
hints = (
{
horizontal = 1;
place = (43, 271);
place = (43, 271);
type = Stem;
},
{
horizontal = 1;
place = (357, 300);
place = (357, 300);
type = Stem;
},
{
horizontal = 1;
place = (700, 100);
place = (700, 100);
type = Stem;
},
{
place = (123, 22);
place = (123, 22);
type = Stem;
}
);
layerId = "7844E041-0347-4A22-AC49-F696B23A3360";
shapes = (
{
closed = 1;
nodes = (
(139,821,l),
(231,995,l),
(269,975,l),
(177,800,l)
);
},
{
closed = 1;
nodes = (
(273,975,l),
(311,995,l),
(404,821,l),
(366,800,l)
);
},
{
closed = 1;
nodes = (
(124,657,l),
(124,700,l),
(489,700,l),
(489,657,l)
);
},
{
closed = 1;
nodes = (
(80,44,l),
(80,656,l),
(123,656,l),
(123,44,l)
);
},
{
closed = 1;
nodes = (
(145,314,l),
(145,357,l),
(421,357,l),
(421,314,l)
);
},
{
closed = 1;
nodes = (
(124,0,l),
(124,43,l),
(489,43,l),
(489,0,l)
);
}
);
width = 544;
}
);
note = Ecircumflex;
unicode = 202;
},
{
glyphname = Edieresis;
lastChange = "2024-02-25 17:05:27 +0000";
layers = (
{
hints = (
{
horizontal = 1;
place = (43, 271);
place = (43, 271);
type = Stem;
},
{
horizontal = 1;
place = (357, 300);
place = (357, 300);
type = Stem;
},
{
horizontal = 1;
place = (700, 100);
place = (700, 100);
type = Stem;
},
{
horizontal = 1;
place = (843, 21);
place = (843, 21);
type = Stem;
},
{
place = (123, 22);
place = (123, 22);
type = Stem;
},
{
place = (225, 95);
place = (225, 95);
type = Stem;
}
);
layerId = m01;
shapes = (
{
closed = 1;
nodes = (
(80,864,l),
(133,963,l),
(171,942,l),
(118,843,l)
);
},
{
closed = 1;
nodes = (
(175,942,l),
(213,963,l),
(266,864,l),
(228,843,l)
);
},
{
closed = 1;
nodes = (
(279,864,l),
(332,963,l),
(370,942,l),
(317,843,l)
);
},
{
closed = 1;
nodes = (
(374,942,l),
(412,963,l),
(465,864,l),
(427,843,l)
);
},
{
closed = 1;
nodes = (
(121,800,l),
(121,843,l),
(225,843,l),
(225,800,l)
);
},
{
closed = 1;
nodes = (
(320,800,l),
(320,843,l),
(424,843,l),
(424,800,l)
);
},
{
closed = 1;
nodes = (
(124,657,l),
(124,700,l),
(489,700,l),
(489,657,l)
);
},
{
closed = 1;
nodes = (
(80,44,l),
(80,656,l),
(123,656,l),
(123,44,l)
);
},
{
closed = 1;
nodes = (
(145,314,l),
(145,357,l),
(421,357,l),
(421,314,l)
);
},
{
closed = 1;
nodes = (
(124,0,l),
(124,43,l),
(489,43,l),
(489,0,l)
);
}
);
width = 544;
},
{
hints = (
{
horizontal = 1;
place = (43, 271);
place = (43, 271);
type = Stem;
},
{
horizontal = 1;
place = (357, 300);
place = (357, 300);
type = Stem;
},
{
horizontal = 1;
place = (700, 100);
place = (700, 100);
type = Stem;
},
{
horizontal = 1;
place = (843, 21);
place = (843, 21);
type = Stem;
},
{
place = (123, 22);
place = (123, 22);
type = Stem;
},
{
place = (225, 95);
place = (225, 95);
type = Stem;
}
);
layerId = "7844E041-0347-4A22-AC49-F696B23A3360";
shapes = (
{
closed = 1;
nodes = (
(80,864,l),
(133,963,l),
(171,942,l),
(118,843,l)
);
},
{
closed = 1;
nodes = (
(175,942,l),
(213,963,l),
(266,864,l),
(228,843,l)
);
},
{
closed = 1;
nodes = (
(279,864,l),
(332,963,l),
(370,942,l),
(317,843,l)
);
},
{
closed = 1;
nodes = (
(374,942,l),
(412,963,l),
(465,864,l),
(427,843,l)
);
},
{
closed = 1;
nodes = (
(121,800,l),
(121,843,l),
(225,843,l),
(225,800,l)
);
},
{
closed = 1;
nodes = (
(320,800,l),
(320,843,l),
(424,843,l),
(424,800,l)
);
},
{
closed = 1;
nodes = (
(124,657,l),
(124,700,l),
(489,700,l),
(489,657,l)
);
},
{
closed = 1;
nodes = (
(80,44,l),
(80,656,l),
(123,656,l),
(123,44,l)
);
},
{
closed = 1;
nodes = (
(145,314,l),
(145,357,l),
(421,357,l),
(421,314,l)
);
},
{
closed = 1;
nodes = (
(124,0,l),
(124,43,l),
(489,43,l),
(489,0,l)
);
}
);
width = 544;
}
);
note = Edieresis;
unicode = 203;
},
{
glyphname = Egrave;
lastChange = "2024-02-25 17:05:27 +0000";
layers = (
{
hints = (
{
horizontal = 1;
place = (43, 271);
place = (43, 271);
type = Stem;
},
{
horizontal = 1;
place = (357, 300);
place = (357, 300);
type = Stem;
},
{
horizontal = 1;
place = (700, 100);
place = (700, 100);
type = Stem;
},
{
place = (123, 22);
place = (123, 22);
type = Stem;
}
);
layerId = m01;
shapes = (
{
closed = 1;
nodes = (
(154,974,l),
(182,1007,l),
(390,833,l),
(363,800,l)
);
},
{
closed = 1;
nodes = (
(124,657,l),
(124,700,l),
(489,700,l),
(489,657,l)
);
},
{
closed = 1;
nodes = (
(80,44,l),
(80,656,l),
(123,656,l),
(123,44,l)
);
},
{
closed = 1;
nodes = (
(145,314,l),
(145,357,l),
(421,357,l),
(421,314,l)
);
},
{
closed = 1;
nodes = (
(124,0,l),
(124,43,l),
(489,43,l),
(489,0,l)
);
}
);
width = 544;
},
{
hints = (
{
horizontal = 1;
place = (43, 271);
place = (43, 271);
type = Stem;
},
{
horizontal = 1;
place = (357, 300);
place = (357, 300);
type = Stem;
},
{
horizontal = 1;
place = (700, 100);
place = (700, 100);
type = Stem;
},
{
place = (123, 22);
place = (123, 22);
type = Stem;
}
);
layerId = "7844E041-0347-4A22-AC49-F696B23A3360";
shapes = (
{
closed = 1;
nodes = (
(154,974,l),
(182,1007,l),
(390,833,l),
(363,800,l)
);
},
{
closed = 1;
nodes = (
(124,657,l),
(124,700,l),
(489,700,l),
(489,657,l)
);
},
{
closed = 1;
nodes = (
(80,44,l),
(80,656,l),
(123,656,l),
(123,44,l)
);
},
{
closed = 1;
nodes = (
(145,314,l),
(145,357,l),
(421,357,l),
(421,314,l)
);
},
{
closed = 1;
nodes = (
(124,0,l),
(124,43,l),
(489,43,l),
(489,0,l)
);
}
);
width = 544;
}
);
note = Egrave;
unicode = 200;
},
{
glyphname = F;
lastChange = "2024-02-25 17:05:27 +0000";
layers = (
{
hints = (
{
horizontal = 1;
place = (632, 25);
place = (632, 25);
type = Stem;
},
{
place = (148, 20);
place = (148, 20);
type = Stem;
},
{
horizontal = 1;
place = (400, 257);
place = (400, 257);
type = Stem;
}
);
layerId = m01;
shapes = (
{
closed = 1;
nodes = (
(20,657,l),
(20,700,l),
(492,700,l),
(492,657,l)
);
},
{
closed = 1;
nodes = (
(105,0,l),
(105,632,l),
(148,632,l),
(148,0,l)
);
},
{
closed = 1;
nodes = (
(168,357,l),
(168,400,l),
(454,400,l),
(454,357,l)
);
}
);
width = 512;
},
{
hints = (
{
horizontal = 1;
place = (632, 25);
place = (632, 25);
type = Stem;
},
{
place = (148, 20);
place = (148, 20);
type = Stem;
},
{
horizontal = 1;
place = (400, 257);
place = (400, 257);
type = Stem;
}
);
layerId = "7844E041-0347-4A22-AC49-F696B23A3360";
shapes = (
{
closed = 1;
nodes = (
(20,657,l),
(20,700,l),
(492,700,l),
(492,657,l)
);
},
{
closed = 1;
nodes = (
(105,0,l),
(105,632,l),
(148,632,l),
(148,0,l)
);
},
{
closed = 1;
nodes = (
(168,357,l),
(168,400,l),
(454,400,l),
(454,357,l)
);
}
);
width = 512;
}
);
note = F;
unicode = 70;
},
{
glyphname = G;
lastChange = "2024-02-25 17:05:27 +0000";
layers = (
{
hints = (
{
horizontal = 1;
place = (298, 33);
place = (298, 33);
type = Stem;
},
{
horizontal = 1;
place = (374, 283);
place = (374, 283);
type = Stem;
},
{
place = (123, 89);
place = (123, 89);
type = Stem;
},
{
place = (467, 30);
place = (467, 30);
type = Stem;
}
);
layerId = m01;
shapes = (
{
closed = 1;
nodes = (
(124,657,l),
(124,700,l),
(520,700,l),
(520,657,l)
);
},
{
closed = 1;
nodes = (
(80,16,l),
(80,655,l),
(123,655,l),
(123,16,l)
);
},
{
closed = 1;
nodes = (
(212,331,l),
(212,374,l),
(496,374,l),
(496,331,l)
);
},
{
closed = 1;
nodes = (
(125,16,l),
(467,330,l),
(496,298,l),
(154,-16,l)
);
},
{
closed = 1;
nodes = (
(497,0,l),
(497,330,l),
(540,330,l),
(540,0,l)
);
}
);
width = 580;
},
{
hints = (
{
horizontal = 1;
place = (298, 33);
place = (298, 33);
type = Stem;
},
{
horizontal = 1;
place = (374, 283);
place = (374, 283);
type = Stem;
},
{
place = (123, 89);
place = (123, 89);
type = Stem;
},
{
place = (467, 30);
place = (467, 30);
type = Stem;
}
);
layerId = "7844E041-0347-4A22-AC49-F696B23A3360";
shapes = (
{
closed = 1;
nodes = (
(124,657,l),
(124,700,l),
(520,700,l),
(520,657,l)
);
},
{
closed = 1;
nodes = (
(80,16,l),
(80,655,l),
(123,655,l),
(123,16,l)
);
},
{
closed = 1;
nodes = (
(212,331,l),
(212,374,l),
(496,374,l),
(496,331,l)
);
},
{
closed = 1;
nodes = (
(125,16,l),
(467,330,l),
(496,298,l),
(154,-16,l)
);
},
{
closed = 1;
nodes = (
(497,0,l),
(497,330,l),
(540,330,l),
(540,0,l)
);
}
);
width = 580;
}
);
note = G;
unicode = 71;
},
{
glyphname = H;
lastChange = "2024-02-25 17:05:27 +0000";
layers = (
{
hints = (
{
horizontal = 1;
place = (0, 700);
place = (0, 700);
type = Stem;
},
{
place = (123, 24);
place = (123, 24);
type = Stem;
},
{
place = (424, 27);
place = (424, 27);
type = Stem;
}
);
layerId = m01;
shapes = (
{
closed = 1;
nodes = (
(80,0,l),
(80,700,l),
(123,700,l),
(123,0,l)
);
},
{
closed = 1;
nodes = (
(451,0,l),
(451,700,l),
(493,700,l),
(493,0,l)
);
},
{
closed = 1;
nodes = (
(147,325,l),
(147,368,l),
(424,368,l),
(424,325,l)
);
}
);
width = 573;
},
{
hints = (
{
horizontal = 1;
place = (0, 700);
place = (0, 700);
type = Stem;
},
{
place = (123, 24);
place = (123, 24);
type = Stem;
},
{
place = (424, 27);
place = (424, 27);
type = Stem;
}
);
layerId = "7844E041-0347-4A22-AC49-F696B23A3360";
shapes = (
{
closed = 1;
nodes = (
(80,0,l),
(80,700,l),
(123,700,l),
(123,0,l)
);
},
{
closed = 1;
nodes = (
(451,0,l),
(451,700,l),
(493,700,l),
(493,0,l)
);
},
{
closed = 1;
nodes = (
(147,325,l),
(147,368,l),
(424,368,l),
(424,325,l)
);
}
);
width = 573;
}
);
note = H;
unicode = 72;
},
{
glyphname = I;
lastChange = "2024-02-25 17:06:11 +0000";
layers = (
{
hints = (
{
horizontal = 1;
place = (43, 12);
place = (43, 12);
type = Stem;
},
{
horizontal = 1;
place = (645, 12);
place = (645, 12);
type = Stem;
},
{
place = (30, 387);
place = (30, 387);
type = Stem;
}
);
layerId = m01;
shapes = (
{
closed = 1;
nodes = (
(30,700,l),
(417,700,l),
(417,657,l),
(30,657,l)
);
},
{
closed = 1;
nodes = (
(202,645,l),
(245,645,l),
(245,55,l),
(202,55,l)
);
},
{
closed = 1;
nodes = (
(30,43,l),
(417,43,l),
(417,0,l),
(30,0,l)
);
}
);
width = 447;
},
{
hints = (
{
horizontal = 1;
place = (43, 12);
place = (43, 12);
type = Stem;
},
{
horizontal = 1;
place = (645, 12);
place = (645, 12);
type = Stem;
},
{
place = (30, 387);
place = (30, 387);
type = Stem;
}
);
layerId = "7844E041-0347-4A22-AC49-F696B23A3360";
shapes = (
{
closed = 1;
nodes = (
(424,2000,l),
(754,1798,l),
(731,1761,l),
(401,1964,l)
);
},
{
closed = 1;
nodes = (
(-1342,-582,l),
(-1314,-550,l),
(-868,-937,l),
(-897,-969,l)
);
},
{
closed = 1;
nodes = (
(1126,-1382,l),
(1510,-1335,l),
(1515,-1377,l),
(1131,-1425,l)
);
}
);
width = 447;
}
);
note = I;
unicode = 73;
},
{
glyphname = Iacute;
lastChange = "2024-02-25 17:05:27 +0000";
layers = (
{
hints = (
{
horizontal = 1;
place = (43, 12);
place = (43, 12);
type = Stem;
},
{
horizontal = 1;
place = (645, 12);
place = (645, 12);
type = Stem;
},
{
horizontal = 1;
place = (700, 100);
place = (700, 100);
type = Stem;
},
{
place = (30, 387);
place = (30, 387);
type = Stem;
}
);
layerId = m01;
shapes = (
{
closed = 1;
nodes = (
(106,833,l),
(314,1007,l),
(341,975,l),
(133,800,l)
);
},
{
closed = 1;
nodes = (
(30,700,l),
(417,700,l),
(417,657,l),
(30,657,l)
);
},
{
closed = 1;
nodes = (
(202,645,l),
(245,645,l),
(245,55,l),
(202,55,l)
);
},
{
closed = 1;
nodes = (
(30,43,l),
(417,43,l),
(417,0,l),
(30,0,l)
);
}
);
width = 447;
},
{
hints = (
{
horizontal = 1;
place = (43, 12);
place = (43, 12);
type = Stem;
},
{
horizontal = 1;
place = (645, 12);
place = (645, 12);
type = Stem;
},
{
horizontal = 1;
place = (700, 100);
place = (700, 100);
type = Stem;
},
{
place = (30, 387);
place = (30, 387);
type = Stem;
}
);
layerId = "7844E041-0347-4A22-AC49-F696B23A3360";
shapes = (
{
closed = 1;
nodes = (
(106,833,l),
(314,1007,l),
(341,975,l),
(133,800,l)
);
},
{
closed = 1;
nodes = (
(30,700,l),
(417,700,l),
(417,657,l),
(30,657,l)
);
},
{
closed = 1;
nodes = (
(202,645,l),
(245,645,l),
(245,55,l),
(202,55,l)
);
},
{
closed = 1;
nodes = (
(30,43,l),
(417,43,l),
(417,0,l),
(30,0,l)
);
}
);
width = 447;
}
);
note = Iacute;
unicode = 205;
},
{
glyphname = Icircumflex;
lastChange = "2024-02-25 17:05:27 +0000";
layers = (
{
hints = (
{
horizontal = 1;
place = (43, 12);
place = (43, 12);
type = Stem;
},
{
horizontal = 1;
place = (645, 12);
place = (645, 12);
type = Stem;
},
{
horizontal = 1;
place = (700, 100);
place = (700, 100);
type = Stem;
},
{
place = (30, 387);
place = (30, 387);
type = Stem;
}
);
layerId = m01;
shapes = (
{
closed = 1;
nodes = (
(91,821,l),
(183,995,l),
(221,975,l),
(129,800,l)
);
},
{
closed = 1;
nodes = (
(225,975,l),
(263,995,l),
(356,821,l),
(318,800,l)
);
},
{
closed = 1;
nodes = (
(30,700,l),
(417,700,l),
(417,657,l),
(30,657,l)
);
},
{
closed = 1;
nodes = (
(202,645,l),
(245,645,l),
(245,55,l),
(202,55,l)
);
},
{
closed = 1;
nodes = (
(30,43,l),
(417,43,l),
(417,0,l),
(30,0,l)
);
}
);
width = 447;
},
{
hints = (
{
horizontal = 1;
place = (43, 12);
place = (43, 12);
type = Stem;
},
{
horizontal = 1;
place = (645, 12);
place = (645, 12);
type = Stem;
},
{
horizontal = 1;
place = (700, 100);
place = (700, 100);
type = Stem;
},
{
place = (30, 387);
place = (30, 387);
type = Stem;
}
);
layerId = "7844E041-0347-4A22-AC49-F696B23A3360";
shapes = (
{
closed = 1;
nodes = (
(91,821,l),
(183,995,l),
(221,975,l),
(129,800,l)
);
},
{
closed = 1;
nodes = (
(225,975,l),
(263,995,l),
(356,821,l),
(318,800,l)
);
},
{
closed = 1;
nodes = (
(30,700,l),
(417,700,l),
(417,657,l),
(30,657,l)
);
},
{
closed = 1;
nodes = (
(202,645,l),
(245,645,l),
(245,55,l),
(202,55,l)
);
},
{
closed = 1;
nodes = (
(30,43,l),
(417,43,l),
(417,0,l),
(30,0,l)
);
}
);
width = 447;
}
);
note = Icircumflex;
unicode = 206;
},
{
glyphname = Idieresis;
lastChange = "2024-02-25 17:05:27 +0000";
layers = (
{
hints = (
{
horizontal = 1;
place = (43, 12);
place = (43, 12);
type = Stem;
},
{
horizontal = 1;
place = (645, 12);
place = (645, 12);
type = Stem;
},
{
horizontal = 1;
place = (700, 100);
place = (700, 100);
type = Stem;
},
{
horizontal = 1;
place = (843, 21);
place = (843, 21);
type = Stem;
},
{
place = (177, 95);
place = (177, 95);
type = Stem;
}
);
layerId = m01;
shapes = (
{
closed = 1;
nodes = (
(32,864,l),
(85,963,l),
(123,942,l),
(70,843,l)
);
},
{
closed = 1;
nodes = (
(127,942,l),
(165,963,l),
(218,864,l),
(180,843,l)
);
},
{
closed = 1;
nodes = (
(231,864,l),
(284,963,l),
(322,942,l),
(269,843,l)
);
},
{
closed = 1;
nodes = (
(326,942,l),
(364,963,l),
(417,864,l),
(379,843,l)
);
},
{
closed = 1;
nodes = (
(73,800,l),
(73,843,l),
(177,843,l),
(177,800,l)
);
},
{
closed = 1;
nodes = (
(272,800,l),
(272,843,l),
(376,843,l),
(376,800,l)
);
},
{
closed = 1;
nodes = (
(30,700,l),
(417,700,l),
(417,657,l),
(30,657,l)
);
},
{
closed = 1;
nodes = (
(202,645,l),
(245,645,l),
(245,55,l),
(202,55,l)
);
},
{
closed = 1;
nodes = (
(30,43,l),
(417,43,l),
(417,0,l),
(30,0,l)
);
}
);
width = 447;
},
{
hints = (
{
horizontal = 1;
place = (43, 12);
place = (43, 12);
type = Stem;
},
{
horizontal = 1;
place = (645, 12);
place = (645, 12);
type = Stem;
},
{
horizontal = 1;
place = (700, 100);
place = (700, 100);
type = Stem;
},
{
horizontal = 1;
place = (843, 21);
place = (843, 21);
type = Stem;
},
{
place = (177, 95);
place = (177, 95);
type = Stem;
}
);
layerId = "7844E041-0347-4A22-AC49-F696B23A3360";
shapes = (
{
closed = 1;
nodes = (
(32,864,l),
(85,963,l),
(123,942,l),
(70,843,l)
);
},
{
closed = 1;
nodes = (
(127,942,l),
(165,963,l),
(218,864,l),
(180,843,l)
);
},
{
closed = 1;
nodes = (
(231,864,l),
(284,963,l),
(322,942,l),
(269,843,l)
);
},
{
closed = 1;
nodes = (
(326,942,l),
(364,963,l),
(417,864,l),
(379,843,l)
);
},
{
closed = 1;
nodes = (
(73,800,l),
(73,843,l),
(177,843,l),
(177,800,l)
);
},
{
closed = 1;
nodes = (
(272,800,l),
(272,843,l),
(376,843,l),
(376,800,l)
);
},
{
closed = 1;
nodes = (
(30,700,l),
(417,700,l),
(417,657,l),
(30,657,l)
);
},
{
closed = 1;
nodes = (
(202,645,l),
(245,645,l),
(245,55,l),
(202,55,l)
);
},
{
closed = 1;
nodes = (
(30,43,l),
(417,43,l),
(417,0,l),
(30,0,l)
);
}
);
width = 447;
}
);
note = Idieresis;
unicode = 207;
},
{
glyphname = Igrave;
lastChange = "2024-02-25 17:05:27 +0000";
layers = (
{
hints = (
{
horizontal = 1;
place = (43, 12);
place = (43, 12);
type = Stem;
},
{
horizontal = 1;
place = (645, 12);
place = (645, 12);
type = Stem;
},
{
horizontal = 1;
place = (700, 100);
place = (700, 100);
type = Stem;
},
{
place = (30, 387);
place = (30, 387);
type = Stem;
}
);
layerId = m01;
shapes = (
{
closed = 1;
nodes = (
(106,974,l),
(134,1007,l),
(342,833,l),
(315,800,l)
);
},
{
closed = 1;
nodes = (
(30,700,l),
(417,700,l),
(417,657,l),
(30,657,l)
);
},
{
closed = 1;
nodes = (
(202,645,l),
(245,645,l),
(245,55,l),
(202,55,l)
);
},
{
closed = 1;
nodes = (
(30,43,l),
(417,43,l),
(417,0,l),
(30,0,l)
);
}
);
width = 447;
},
{
hints = (
{
horizontal = 1;
place = (43, 12);
place = (43, 12);
type = Stem;
},
{
horizontal = 1;
place = (645, 12);
place = (645, 12);
type = Stem;
},
{
horizontal = 1;
place = (700, 100);
place = (700, 100);
type = Stem;
},
{
place = (30, 387);
place = (30, 387);
type = Stem;
}
);
layerId = "7844E041-0347-4A22-AC49-F696B23A3360";
shapes = (
{
closed = 1;
nodes = (
(106,974,l),
(134,1007,l),
(342,833,l),
(315,800,l)
);
},
{
closed = 1;
nodes = (
(30,700,l),
(417,700,l),
(417,657,l),
(30,657,l)
);
},
{
closed = 1;
nodes = (
(202,645,l),
(245,645,l),
(245,55,l),
(202,55,l)
);
},
{
closed = 1;
nodes = (
(30,43,l),
(417,43,l),
(417,0,l),
(30,0,l)
);
}
);
width = 447;
}
);
note = Igrave;
unicode = 204;
},
{
glyphname = J;
lastChange = "2024-02-25 17:05:27 +0000";
layers = (
{
hints = (
{
horizontal = 1;
place = (643, 14);
place = (643, 14);
type = Stem;
},
{
place = (92, 251);
place = (92, 251);
type = Stem;
}
);
layerId = m01;
shapes = (
{
closed = 1;
nodes = (
(93,657,l),
(93,700,l),
(526,700,l),
(526,657,l)
);
},
{
closed = 1;
nodes = (
(343,44,l),
(343,643,l),
(386,643,l),
(386,44,l)
);
},
{
closed = 1;
nodes = (
(50,44,l),
(50,245,l),
(92,245,l),
(92,44,l)
);
},
{
closed = 1;
nodes = (
(92,0,l),
(92,43,l),
(342,43,l),
(342,0,l)
);
}
);
width = 536;
},
{
hints = (
{
horizontal = 1;
place = (643, 14);
place = (643, 14);
type = Stem;
},
{
place = (92, 251);
place = (92, 251);
type = Stem;
}
);
layerId = "7844E041-0347-4A22-AC49-F696B23A3360";
shapes = (
{
closed = 1;
nodes = (
(93,657,l),
(93,700,l),
(526,700,l),
(526,657,l)
);
},
{
closed = 1;
nodes = (
(343,44,l),
(343,643,l),
(386,643,l),
(386,44,l)
);
},
{
closed = 1;
nodes = (
(50,44,l),
(50,245,l),
(92,245,l),
(92,44,l)
);
},
{
closed = 1;
nodes = (
(92,0,l),
(92,43,l),
(342,43,l),
(342,0,l)
);
}
);
width = 536;
}
);
note = J;
unicode = 74;
},
{
glyphname = K;
lastChange = "2024-02-25 17:05:27 +0000";
layers = (
{
hints = (
{
horizontal = 1;
place = (-12, 720);
place = (-12, 720);
type = Stem;
},
{
place = (123, 30);
place = (123, 30);
type = Stem;
}
);
layerId = m01;
shapes = (
{
closed = 1;
nodes = (
(124,381,l),
(482,708,l),
(511,677,l),
(153,349,l)
);
},
{
closed = 1;
nodes = (
(80,0,l),
(80,700,l),
(123,700,l),
(123,0,l)
);
},
{
closed = 1;
nodes = (
(124,317,l),
(153,348,l),
(512,20,l),
(483,-12,l)
);
}
);
width = 547;
},
{
hints = (
{
horizontal = 1;
place = (-12, 720);
place = (-12, 720);
type = Stem;
},
{
place = (123, 30);
place = (123, 30);
type = Stem;
}
);
layerId = "7844E041-0347-4A22-AC49-F696B23A3360";
shapes = (
{
closed = 1;
nodes = (
(124,381,l),
(482,708,l),
(511,677,l),
(153,349,l)
);
},
{
closed = 1;
nodes = (
(80,0,l),
(80,700,l),
(123,700,l),
(123,0,l)
);
},
{
closed = 1;
nodes = (
(124,317,l),
(153,348,l),
(512,20,l),
(483,-12,l)
);
}
);
width = 547;
}
);
note = K;
unicode = 75;
},
{
glyphname = L;
kernRight = L;
lastChange = "2024-02-25 17:05:27 +0000";
layers = (
{
hints = (
{
horizontal = 1;
place = (0, 700);
place = (0, 700);
type = Stem;
},
{
place = (80, 434);
place = (80, 434);
type = Stem;
}
);
layerId = m01;
shapes = (
{
closed = 1;
nodes = (
(80,44,l),
(80,700,l),
(123,700,l),
(123,44,l)
);
},
{
closed = 1;
nodes = (
(125,0,l),
(125,43,l),
(514,43,l),
(514,0,l)
);
}
);
width = 524;
},
{
hints = (
{
horizontal = 1;
place = (0, 700);
place = (0, 700);
type = Stem;
},
{
place = (80, 434);
place = (80, 434);
type = Stem;
}
);
layerId = "7844E041-0347-4A22-AC49-F696B23A3360";
shapes = (
{
closed = 1;
nodes = (
(80,44,l),
(80,700,l),
(123,700,l),
(123,44,l)
);
},
{
closed = 1;
nodes = (
(125,0,l),
(125,43,l),
(514,43,l),
(514,0,l)
);
}
);
width = 524;
}
);
note = L;
unicode = 76;
},
{
glyphname = M;
lastChange = "2024-02-25 17:05:27 +0000";
layers = (
{
hints = (
{
horizontal = 1;
place = (0, 708);
place = (0, 708);
type = Stem;
},
{
place = (123, 42);
place = (123, 42);
type = Stem;
},
{
place = (697, 42);
place = (697, 42);
type = Stem;
}
);
layerId = m01;
shapes = (
{
closed = 1;
nodes = (
(126,691,l),
(165,708,l),
(434,109,l),
(395,92,l)
);
},
{
closed = 1;
nodes = (
(435,109,l),
(697,708,l),
(736,691,l),
(474,92,l)
);
},
{
closed = 1;
nodes = (
(80,0,l),
(80,692,l),
(123,692,l),
(123,0,l)
);
},
{
closed = 1;
nodes = (
(739,0,l),
(739,692,l),
(782,692,l),
(782,0,l)
);
}
);
width = 862;
},
{
hints = (
{
horizontal = 1;
place = (0, 708);
place = (0, 708);
type = Stem;
},
{
place = (123, 42);
place = (123, 42);
type = Stem;
},
{
place = (697, 42);
place = (697, 42);
type = Stem;
}
);
layerId = "7844E041-0347-4A22-AC49-F696B23A3360";
shapes = (
{
closed = 1;
nodes = (
(126,691,l),
(165,708,l),
(434,109,l),
(395,92,l)
);
},
{
closed = 1;
nodes = (
(435,109,l),
(697,708,l),
(736,691,l),
(474,92,l)
);
},
{
closed = 1;
nodes = (
(80,0,l),
(80,692,l),
(123,692,l),
(123,0,l)
);
},
{
closed = 1;
nodes = (
(739,0,l),
(739,692,l),
(782,692,l),
(782,0,l)
);
}
);
width = 862;
}
);
note = M;
unicode = 77;
},
{
glyphname = N;
lastChange = "2024-02-25 17:05:27 +0000";
layers = (
{
hints = (
{
horizontal = 1;
place = (-1, 701);
place = (-1, 701);
type = Stem;
},
{
place = (123, 40);
place = (123, 40);
type = Stem;
},
{
place = (474, 38);
place = (474, 38);
type = Stem;
}
);
layerId = m01;
shapes = (
{
closed = 1;
nodes = (
(80,0,l),
(80,700,l),
(123,700,l),
(123,0,l)
);
},
{
closed = 1;
nodes = (
(512,0,l),
(512,700,l),
(555,700,l),
(555,0,l)
);
},
{
closed = 1;
nodes = (
(125,614,l),
(163,635,l),
(511,20,l),
(474,-1,l)
);
}
);
width = 635;
},
{
hints = (
{
horizontal = 1;
place = (-1, 701);
place = (-1, 701);
type = Stem;
},
{
place = (123, 40);
place = (123, 40);
type = Stem;
},
{
place = (474, 38);
place = (474, 38);
type = Stem;
}
);
layerId = "7844E041-0347-4A22-AC49-F696B23A3360";
shapes = (
{
closed = 1;
nodes = (
(80,0,l),
(80,700,l),
(123,700,l),
(123,0,l)
);
},
{
closed = 1;
nodes = (
(512,0,l),
(512,700,l),
(555,700,l),
(555,0,l)
);
},
{
closed = 1;
nodes = (
(125,614,l),
(163,635,l),
(511,20,l),
(474,-1,l)
);
}
);
width = 635;
}
);
note = N;
unicode = 78;
},
{
glyphname = Ntilde;
lastChange = "2024-02-25 17:05:27 +0000";
layers = (
{
hints = (
{
horizontal = 1;
place = (808, -20);
target = down;
type = TopGhost;
},
{
place = (123, 40);
place = (123, 40);
type = Stem;
},
{
place = (474, 38);
place = (474, 38);
type = Stem;
},
{
horizontal = 1;
place = (800, -20);
target = down;
type = TopGhost;
}
);
layerId = m01;
shapes = (
{
closed = 1;
nodes = (
(204,925,l),
(227,962,l),
(431,836,l),
(409,800,l)
);
},
{
closed = 1;
nodes = (
(435,840,l),
(461,953,l),
(503,943,l),
(476,830,l)
);
},
{
closed = 1;
nodes = (
(133,818,l),
(159,931,l),
(201,921,l),
(175,808,l)
);
},
{
closed = 1;
nodes = (
(80,0,l),
(80,700,l),
(123,700,l),
(123,0,l)
);
},
{
closed = 1;
nodes = (
(512,0,l),
(512,700,l),
(555,700,l),
(555,0,l)
);
},
{
closed = 1;
nodes = (
(125,614,l),
(163,635,l),
(511,20,l),
(474,-1,l)
);
}
);
width = 635;
},
{
hints = (
{
horizontal = 1;
place = (808, -20);
target = down;
type = TopGhost;
},
{
place = (123, 40);
place = (123, 40);
type = Stem;
},
{
place = (474, 38);
place = (474, 38);
type = Stem;
},
{
horizontal = 1;
place = (800, -20);
target = down;
type = TopGhost;
}
);
layerId = "7844E041-0347-4A22-AC49-F696B23A3360";
shapes = (
{
closed = 1;
nodes = (
(204,925,l),
(227,962,l),
(431,836,l),
(409,800,l)
);
},
{
closed = 1;
nodes = (
(435,840,l),
(461,953,l),
(503,943,l),
(476,830,l)
);
},
{
closed = 1;
nodes = (
(133,818,l),
(159,931,l),
(201,921,l),
(175,808,l)
);
},
{
closed = 1;
nodes = (
(80,0,l),
(80,700,l),
(123,700,l),
(123,0,l)
);
},
{
closed = 1;
nodes = (
(512,0,l),
(512,700,l),
(555,700,l),
(555,0,l)
);
},
{
closed = 1;
nodes = (
(125,614,l),
(163,635,l),
(511,20,l),
(474,-1,l)
);
}
);
width = 635;
}
);
note = Ntilde;
unicode = 209;
},
{
glyphname = O;
lastChange = "2024-02-25 17:05:27 +0000";
layers = (
{
hints = (
{
horizontal = 1;
place = (-12, 721);
place = (-12, 721);
type = Stem;
},
{
place = (20, 719);
place = (20, 719);
type = Stem;
}
);
layerId = m01;
shapes = (
{
closed = 1;
nodes = (
(350,709,l),
(380,679,l),
(51,348,l),
(20,379,l)
);
},
{
closed = 1;
nodes = (
(412,709,l),
(739,380,l),
(708,350,l),
(381,679,l)
);
},
{
closed = 1;
nodes = (
(708,349,l),
(738,319,l),
(409,-12,l),
(379,18,l)
);
},
{
closed = 1;
nodes = (
(51,347,l),
(378,18,l),
(347,-12,l),
(21,317,l)
);
}
);
width = 759;
},
{
hints = (
{
horizontal = 1;
place = (-12, 721);
place = (-12, 721);
type = Stem;
},
{
place = (20, 719);
place = (20, 719);
type = Stem;
}
);
layerId = "7844E041-0347-4A22-AC49-F696B23A3360";
shapes = (
{
closed = 1;
nodes = (
(350,709,l),
(380,679,l),
(51,348,l),
(20,379,l)
);
},
{
closed = 1;
nodes = (
(412,709,l),
(739,380,l),
(708,350,l),
(381,679,l)
);
},
{
closed = 1;
nodes = (
(708,349,l),
(738,319,l),
(409,-12,l),
(379,18,l)
);
},
{
closed = 1;
nodes = (
(51,347,l),
(378,18,l),
(347,-12,l),
(21,317,l)
);
}
);
width = 759;
}
);
note = O;
unicode = 79;
},
{
glyphname = Oacute;
lastChange = "2024-02-25 17:05:27 +0000";
layers = (
{
hints = (
{
horizontal = 1;
place = (800, -20);
target = down;
type = TopGhost;
},
{
place = (20, 719);
place = (20, 719);
type = Stem;
}
);
layerId = m01;
shapes = (
{
closed = 1;
nodes = (
(262,833,l),
(470,1007,l),
(497,975,l),
(289,800,l)
);
},
{
closed = 1;
nodes = (
(350,709,l),
(380,679,l),
(51,348,l),
(20,379,l)
);
},
{
closed = 1;
nodes = (
(412,709,l),
(739,380,l),
(708,350,l),
(381,679,l)
);
},
{
closed = 1;
nodes = (
(708,349,l),
(738,319,l),
(409,-12,l),
(379,18,l)
);
},
{
closed = 1;
nodes = (
(51,347,l),
(378,18,l),
(347,-12,l),
(21,317,l)
);
}
);
width = 759;
},
{
hints = (
{
horizontal = 1;
place = (800, -20);
target = down;
type = TopGhost;
},
{
place = (20, 719);
place = (20, 719);
type = Stem;
}
);
layerId = "7844E041-0347-4A22-AC49-F696B23A3360";
shapes = (
{
closed = 1;
nodes = (
(262,833,l),
(470,1007,l),
(497,975,l),
(289,800,l)
);
},
{
closed = 1;
nodes = (
(350,709,l),
(380,679,l),
(51,348,l),
(20,379,l)
);
},
{
closed = 1;
nodes = (
(412,709,l),
(739,380,l),
(708,350,l),
(381,679,l)
);
},
{
closed = 1;
nodes = (
(708,349,l),
(738,319,l),
(409,-12,l),
(379,18,l)
);
},
{
closed = 1;
nodes = (
(51,347,l),
(378,18,l),
(347,-12,l),
(21,317,l)
);
}
);
width = 759;
}
);
note = Oacute;
unicode = 211;
},
{
glyphname = Ocircumflex;
lastChange = "2024-02-25 17:05:27 +0000";
layers = (
{
hints = (
{
horizontal = 1;
place = (800, -20);
target = down;
type = TopGhost;
},
{
place = (20, 719);
place = (20, 719);
type = Stem;
}
);
layerId = m01;
shapes = (
{
closed = 1;
nodes = (
(247,821,l),
(339,995,l),
(377,975,l),
(285,800,l)
);
},
{
closed = 1;
nodes = (
(381,975,l),
(419,995,l),
(512,821,l),
(474,800,l)
);
},
{
closed = 1;
nodes = (
(350,709,l),
(380,679,l),
(51,348,l),
(20,379,l)
);
},
{
closed = 1;
nodes = (
(412,709,l),
(739,380,l),
(708,350,l),
(381,679,l)
);
},
{
closed = 1;
nodes = (
(708,349,l),
(738,319,l),
(409,-12,l),
(379,18,l)
);
},
{
closed = 1;
nodes = (
(51,347,l),
(378,18,l),
(347,-12,l),
(21,317,l)
);
}
);
width = 759;
},
{
hints = (
{
horizontal = 1;
place = (800, -20);
target = down;
type = TopGhost;
},
{
place = (20, 719);
place = (20, 719);
type = Stem;
}
);
layerId = "7844E041-0347-4A22-AC49-F696B23A3360";
shapes = (
{
closed = 1;
nodes = (
(247,821,l),
(339,995,l),
(377,975,l),
(285,800,l)
);
},
{
closed = 1;
nodes = (
(381,975,l),
(419,995,l),
(512,821,l),
(474,800,l)
);
},
{
closed = 1;
nodes = (
(350,709,l),
(380,679,l),
(51,348,l),
(20,379,l)
);
},
{
closed = 1;
nodes = (
(412,709,l),
(739,380,l),
(708,350,l),
(381,679,l)
);
},
{
closed = 1;
nodes = (
(708,349,l),
(738,319,l),
(409,-12,l),
(379,18,l)
);
},
{
closed = 1;
nodes = (
(51,347,l),
(378,18,l),
(347,-12,l),
(21,317,l)
);
}
);
width = 759;
}
);
note = Ocircumflex;
unicode = 212;
},
{
glyphname = Odieresis;
lastChange = "2024-02-25 17:05:27 +0000";
layers = (
{
hints = (
{
horizontal = 1;
place = (800, -20);
target = down;
type = TopGhost;
},
{
horizontal = 1;
place = (843, 21);
place = (843, 21);
type = Stem;
},
{
place = (333, 95);
place = (333, 95);
type = Stem;
},
{
horizontal = 1;
place = (709, 91);
place = (709, 91);
type = Stem;
}
);
layerId = m01;
shapes = (
{
closed = 1;
nodes = (
(188,864,l),
(241,963,l),
(279,942,l),
(226,843,l)
);
},
{
closed = 1;
nodes = (
(283,942,l),
(321,963,l),
(374,864,l),
(336,843,l)
);
},
{
closed = 1;
nodes = (
(387,864,l),
(440,963,l),
(478,942,l),
(425,843,l)
);
},
{
closed = 1;
nodes = (
(482,942,l),
(520,963,l),
(573,864,l),
(535,843,l)
);
},
{
closed = 1;
nodes = (
(229,800,l),
(229,843,l),
(333,843,l),
(333,800,l)
);
},
{
closed = 1;
nodes = (
(428,800,l),
(428,843,l),
(532,843,l),
(532,800,l)
);
},
{
closed = 1;
nodes = (
(350,709,l),
(380,679,l),
(51,348,l),
(20,379,l)
);
},
{
closed = 1;
nodes = (
(412,709,l),
(739,380,l),
(708,350,l),
(381,679,l)
);
},
{
closed = 1;
nodes = (
(708,349,l),
(738,319,l),
(409,-12,l),
(379,18,l)
);
},
{
closed = 1;
nodes = (
(51,347,l),
(378,18,l),
(347,-12,l),
(21,317,l)
);
}
);
width = 759;
},
{
hints = (
{
horizontal = 1;
place = (800, -20);
target = down;
type = TopGhost;
},
{
horizontal = 1;
place = (843, 21);
place = (843, 21);
type = Stem;
},
{
place = (333, 95);
place = (333, 95);
type = Stem;
},
{
horizontal = 1;
place = (709, 91);
place = (709, 91);
type = Stem;
}
);
layerId = "7844E041-0347-4A22-AC49-F696B23A3360";
shapes = (
{
closed = 1;
nodes = (
(188,864,l),
(241,963,l),
(279,942,l),
(226,843,l)
);
},
{
closed = 1;
nodes = (
(283,942,l),
(321,963,l),
(374,864,l),
(336,843,l)
);
},
{
closed = 1;
nodes = (
(387,864,l),
(440,963,l),
(478,942,l),
(425,843,l)
);
},
{
closed = 1;
nodes = (
(482,942,l),
(520,963,l),
(573,864,l),
(535,843,l)
);
},
{
closed = 1;
nodes = (
(229,800,l),
(229,843,l),
(333,843,l),
(333,800,l)
);
},
{
closed = 1;
nodes = (
(428,800,l),
(428,843,l),
(532,843,l),
(532,800,l)
);
},
{
closed = 1;
nodes = (
(350,709,l),
(380,679,l),
(51,348,l),
(20,379,l)
);
},
{
closed = 1;
nodes = (
(412,709,l),
(739,380,l),
(708,350,l),
(381,679,l)
);
},
{
closed = 1;
nodes = (
(708,349,l),
(738,319,l),
(409,-12,l),
(379,18,l)
);
},
{
closed = 1;
nodes = (
(51,347,l),
(378,18,l),
(347,-12,l),
(21,317,l)
);
}
);
width = 759;
}
);
note = Odieresis;
unicode = 214;
},
{
glyphname = Ograve;
lastChange = "2024-02-25 17:05:27 +0000";
layers = (
{
hints = (
{
horizontal = 1;
place = (800, -20);
target = down;
type = TopGhost;
},
{
place = (20, 719);
place = (20, 719);
type = Stem;
}
);
layerId = m01;
shapes = (
{
closed = 1;
nodes = (
(262,974,l),
(290,1007,l),
(498,833,l),
(471,800,l)
);
},
{
closed = 1;
nodes = (
(350,709,l),
(380,679,l),
(51,348,l),
(20,379,l)
);
},
{
closed = 1;
nodes = (
(412,709,l),
(739,380,l),
(708,350,l),
(381,679,l)
);
},
{
closed = 1;
nodes = (
(708,349,l),
(738,319,l),
(409,-12,l),
(379,18,l)
);
},
{
closed = 1;
nodes = (
(51,347,l),
(378,18,l),
(347,-12,l),
(21,317,l)
);
}
);
width = 759;
},
{
hints = (
{
horizontal = 1;
place = (800, -20);
target = down;
type = TopGhost;
},
{
place = (20, 719);
place = (20, 719);
type = Stem;
}
);
layerId = "7844E041-0347-4A22-AC49-F696B23A3360";
shapes = (
{
closed = 1;
nodes = (
(262,974,l),
(290,1007,l),
(498,833,l),
(471,800,l)
);
},
{
closed = 1;
nodes = (
(350,709,l),
(380,679,l),
(51,348,l),
(20,379,l)
);
},
{
closed = 1;
nodes = (
(412,709,l),
(739,380,l),
(708,350,l),
(381,679,l)
);
},
{
closed = 1;
nodes = (
(708,349,l),
(738,319,l),
(409,-12,l),
(379,18,l)
);
},
{
closed = 1;
nodes = (
(51,347,l),
(378,18,l),
(347,-12,l),
(21,317,l)
);
}
);
width = 759;
}
);
note = Ograve;
unicode = 210;
},
{
glyphname = Oslash;
lastChange = "2024-02-25 17:05:27 +0000";
layers = (
{
hints = (
{
horizontal = 1;
place = (-12, 21);
target = up;
type = BottomGhost;
},
{
horizontal = 1;
place = (709, -20);
target = down;
type = TopGhost;
},
{
place = (20, 719);
place = (20, 719);
type = Stem;
}
);
layerId = m01;
shapes = (
{
closed = 1;
nodes = (
(350,709,l),
(20,379,l),
(51,348,l),
(380,679,l)
);
},
{
closed = 1;
nodes = (
(708,350,l),
(739,380,l),
(595,525,l),
(719,643,l),
(689,674,l),
(565,556,l),
(412,709,l),
(381,679,l),
(533,526,l),
(194,203,l),
(51,347,l),
(21,317,l),
(163,173,l),
(40,56,l),
(70,25,l),
(194,143,l),
(347,-12,l),
(378,18,l),
(225,172,l),
(564,495,l)
);
},
{
closed = 1;
nodes = (
(409,-12,l),
(738,319,l),
(708,349,l),
(379,18,l)
);
}
);
width = 759;
},
{
hints = (
{
horizontal = 1;
place = (-12, 21);
target = up;
type = BottomGhost;
},
{
horizontal = 1;
place = (709, -20);
target = down;
type = TopGhost;
},
{
place = (20, 719);
place = (20, 719);
type = Stem;
}
);
layerId = "7844E041-0347-4A22-AC49-F696B23A3360";
shapes = (
{
closed = 1;
nodes = (
(350,709,l),
(20,379,l),
(51,348,l),
(380,679,l)
);
},
{
closed = 1;
nodes = (
(708,350,l),
(739,380,l),
(595,525,l),
(719,643,l),
(689,674,l),
(565,556,l),
(412,709,l),
(381,679,l),
(533,526,l),
(194,203,l),
(51,347,l),
(21,317,l),
(163,173,l),
(40,56,l),
(70,25,l),
(194,143,l),
(347,-12,l),
(378,18,l),
(225,172,l),
(564,495,l)
);
},
{
closed = 1;
nodes = (
(409,-12,l),
(738,319,l),
(708,349,l),
(379,18,l)
);
}
);
width = 759;
}
);
note = Oslash;
unicode = 216;
},
{
glyphname = OE;
lastChange = "2024-02-25 17:05:27 +0000";
layers = (
{
hints = (
{
horizontal = 1;
place = (43, 271);
place = (43, 271);
type = Stem;
},
{
horizontal = 1;
place = (357, 300);
place = (357, 300);
type = Stem;
},
{
place = (123, 326);
place = (123, 326);
type = Stem;
},
{
place = (492, 22);
place = (492, 22);
type = Stem;
},
{
place = (447, 46);
place = (447, 46);
type = Stem;
},
{
place = (448, 46);
place = (448, 46);
type = Stem;
}
);
layerId = m01;
shapes = (
{
closed = 1;
nodes = (
(124,700,l),
(447,700,l),
(447,657,l),
(124,657,l)
);
},
{
closed = 1;
nodes = (
(493,700,l),
(828,700,l),
(828,657,l),
(493,657,l)
);
},
{
closed = 1;
nodes = (
(80,657,l),
(123,657,l),
(123,43,l),
(80,43,l)
);
},
{
closed = 1;
nodes = (
(449,656,l),
(492,656,l),
(492,45,l),
(449,45,l)
);
},
{
closed = 1;
nodes = (
(514,357,l),
(760,357,l),
(760,314,l),
(514,314,l)
);
},
{
closed = 1;
nodes = (
(124,43,l),
(448,43,l),
(448,0,l),
(124,0,l)
);
},
{
closed = 1;
nodes = (
(494,43,l),
(828,43,l),
(828,0,l),
(494,0,l)
);
}
);
width = 883;
},
{
hints = (
{
horizontal = 1;
place = (43, 271);
place = (43, 271);
type = Stem;
},
{
horizontal = 1;
place = (357, 300);
place = (357, 300);
type = Stem;
},
{
place = (123, 326);
place = (123, 326);
type = Stem;
},
{
place = (492, 22);
place = (492, 22);
type = Stem;
},
{
place = (447, 46);
place = (447, 46);
type = Stem;
},
{
place = (448, 46);
place = (448, 46);
type = Stem;
}
);
layerId = "7844E041-0347-4A22-AC49-F696B23A3360";
shapes = (
{
closed = 1;
nodes = (
(124,700,l),
(447,700,l),
(447,657,l),
(124,657,l)
);
},
{
closed = 1;
nodes = (
(493,700,l),
(828,700,l),
(828,657,l),
(493,657,l)
);
},
{
closed = 1;
nodes = (
(80,657,l),
(123,657,l),
(123,43,l),
(80,43,l)
);
},
{
closed = 1;
nodes = (
(449,656,l),
(492,656,l),
(492,45,l),
(449,45,l)
);
},
{
closed = 1;
nodes = (
(514,357,l),
(760,357,l),
(760,314,l),
(514,314,l)
);
},
{
closed = 1;
nodes = (
(124,43,l),
(448,43,l),
(448,0,l),
(124,0,l)
);
},
{
closed = 1;
nodes = (
(494,43,l),
(828,43,l),
(828,0,l),
(494,0,l)
);
}
);
width = 883;
}
);
note = OE;
unicode = 338;
},
{
glyphname = P;
lastChange = "2024-02-25 17:05:27 +0000";
layers = (
{
hints = (
{
horizontal = 1;
place = (335, 30);
place = (335, 30);
type = Stem;
},
{
horizontal = 1;
place = (642, 15);
place = (642, 15);
type = Stem;
},
{
place = (148, 14);
place = (148, 14);
type = Stem;
},
{
horizontal = 1;
place = (625, 32);
place = (625, 32);
type = Stem;
}
);
layerId = m01;
shapes = (
{
closed = 1;
nodes = (
(54,700,l),
(447,700,l),
(447,657,l),
(54,657,l)
);
},
{
closed = 1;
nodes = (
(411,655,l),
(520,543,l),
(489,513,l),
(381,625,l)
);
},
{
closed = 1;
nodes = (
(105,642,l),
(148,642,l),
(148,0,l),
(105,0,l)
);
},
{
closed = 1;
nodes = (
(532,532,l),
(564,502,l),
(407,336,l),
(375,365,l)
);
},
{
closed = 1;
nodes = (
(162,335,l),
(447,335,l),
(447,292,l),
(162,292,l)
);
}
);
width = 590;
},
{
hints = (
{
horizontal = 1;
place = (335, 30);
place = (335, 30);
type = Stem;
},
{
horizontal = 1;
place = (642, 15);
place = (642, 15);
type = Stem;
},
{
place = (148, 14);
place = (148, 14);
type = Stem;
},
{
horizontal = 1;
place = (625, 32);
place = (625, 32);
type = Stem;
}
);
layerId = "7844E041-0347-4A22-AC49-F696B23A3360";
shapes = (
{
closed = 1;
nodes = (
(54,700,l),
(447,700,l),
(447,657,l),
(54,657,l)
);
},
{
closed = 1;
nodes = (
(411,655,l),
(520,543,l),
(489,513,l),
(381,625,l)
);
},
{
closed = 1;
nodes = (
(105,642,l),
(148,642,l),
(148,0,l),
(105,0,l)
);
},
{
closed = 1;
nodes = (
(532,532,l),
(564,502,l),
(407,336,l),
(375,365,l)
);
},
{
closed = 1;
nodes = (
(162,335,l),
(447,335,l),
(447,292,l),
(162,292,l)
);
}
);
width = 590;
}
);
note = P;
unicode = 80;
},
{
glyphname = Q;
lastChange = "2024-02-25 17:05:27 +0000";
layers = (
{
hints = (
{
horizontal = 1;
place = (-129, 21);
target = up;
type = BottomGhost;
},
{
place = (123, 80);
place = (123, 80);
type = Stem;
},
{
place = (272, 186);
place = (272, 186);
type = Stem;
},
{
place = (123, 335);
place = (123, 335);
type = Stem;
},
{
place = (272, 85);
place = (272, 85);
type = Stem;
}
);
layerId = m01;
shapes = (
{
closed = 1;
nodes = (
(124,700,l),
(457,700,l),
(457,657,l),
(124,657,l)
);
},
{
closed = 1;
nodes = (
(80,656,l),
(123,656,l),
(123,45,l),
(80,45,l)
);
},
{
closed = 1;
nodes = (
(458,656,l),
(501,656,l),
(501,45,l),
(458,45,l)
);
},
{
closed = 1;
nodes = (
(238,174,l),
(441,-129,l),
(405,-153,l),
(203,150,l)
);
},
{
closed = 1;
nodes = (
(124,43,l),
(272,43,l),
(272,0,l),
(124,0,l)
);
},
{
closed = 1;
nodes = (
(357,43,l),
(457,43,l),
(457,0,l),
(357,0,l)
);
}
);
width = 581;
},
{
hints = (
{
horizontal = 1;
place = (-129, 21);
target = up;
type = BottomGhost;
},
{
place = (123, 80);
place = (123, 80);
type = Stem;
},
{
place = (272, 186);
place = (272, 186);
type = Stem;
},
{
place = (123, 335);
place = (123, 335);
type = Stem;
},
{
place = (272, 85);
place = (272, 85);
type = Stem;
}
);
layerId = "7844E041-0347-4A22-AC49-F696B23A3360";
shapes = (
{
closed = 1;
nodes = (
(124,700,l),
(457,700,l),
(457,657,l),
(124,657,l)
);
},
{
closed = 1;
nodes = (
(80,656,l),
(123,656,l),
(123,45,l),
(80,45,l)
);
},
{
closed = 1;
nodes = (
(458,656,l),
(501,656,l),
(501,45,l),
(458,45,l)
);
},
{
closed = 1;
nodes = (
(238,174,l),
(441,-129,l),
(405,-153,l),
(203,150,l)
);
},
{
closed = 1;
nodes = (
(124,43,l),
(272,43,l),
(272,0,l),
(124,0,l)
);
},
{
closed = 1;
nodes = (
(357,43,l),
(457,43,l),
(457,0,l),
(357,0,l)
);
}
);
width = 581;
}
);
note = Q;
unicode = 81;
},
{
glyphname = R;
lastChange = "2024-02-25 17:05:58 +0000";
layers = (
{
hints = (
{
horizontal = 1;
place = (-1, 21);
target = up;
type = BottomGhost;
},
{
horizontal = 1;
place = (291, 16);
place = (291, 16);
type = Stem;
},
{
horizontal = 1;
place = (350, 10);
place = (350, 10);
type = Stem;
},
{
horizontal = 1;
place = (647, 10);
place = (647, 10);
type = Stem;
},
{
place = (135, 10);
place = (135, 10);
type = Stem;
}
);
layerId = m01;
shapes = (
{
closed = 1;
nodes = (
(57,657,l),
(57,700,l),
(460,700,l),
(460,657,l)
);
},
{
closed = 1;
nodes = (
(92,0,l),
(92,647,l),
(135,647,l),
(135,0,l)
);
},
{
closed = 1;
nodes = (
(438,360,l),
(438,647,l),
(481,647,l),
(481,360,l)
);
},
{
closed = 1;
nodes = (
(145,307,l),
(145,350,l),
(460,350,l),
(460,307,l)
);
},
{
closed = 1;
nodes = (
(231,291,l),
(271,306,l),
(388,-1,l),
(348,-16,l)
);
}
);
width = 530;
},
{
hints = (
{
horizontal = 1;
place = (-1, 21);
target = up;
type = BottomGhost;
},
{
horizontal = 1;
place = (291, 16);
place = (291, 16);
type = Stem;
},
{
horizontal = 1;
place = (350, 10);
place = (350, 10);
type = Stem;
},
{
horizontal = 1;
place = (647, 10);
place = (647, 10);
type = Stem;
},
{
place = (135, 10);
place = (135, 10);
type = Stem;
}
);
layerId = "7844E041-0347-4A22-AC49-F696B23A3360";
shapes = (
{
closed = 1;
nodes = (
(-254,1684,l),
(-274,1723,l),
(86,1904,l),
(106,1866,l)
);
},
{
closed = 1;
nodes = (
(-1160,-713,l),
(-1536,-186,l),
(-1501,-161,l),
(-1125,-688,l)
);
},
{
closed = 1;
nodes = (
(1961,1295,l),
(1902,1576,l),
(1944,1584,l),
(2003,1304,l)
);
},
{
closed = 1;
nodes = (
(2183,-267,l),
(2214,-238,l),
(2430,-467,l),
(2398,-497,l)
);
},
{
closed = 1;
nodes = (
(471,-1106,l),
(479,-1064,l),
(802,-1124,l),
(794,-1166,l)
);
}
);
width = 530;
}
);
note = R;
unicode = 82;
},
{
glyphname = S;
lastChange = "2024-02-25 17:06:24 +0000";
layers = (
{
hints = (
{
horizontal = 1;
place = (291, 32);
place = (291, 32);
type = Stem;
},
{
horizontal = 1;
place = (366, 32);
place = (366, 32);
type = Stem;
},
{
place = (22, 433);
place = (22, 433);
type = Stem;
}
);
layerId = m01;
shapes = (
{
closed = 1;
nodes = (
(22,398,l),
(333,708,l),
(363,677,l),
(53,367,l)
);
},
{
closed = 1;
nodes = (
(34,323,l),
(34,366,l),
(434,366,l),
(434,323,l)
);
},
{
closed = 1;
nodes = (
(109,19,l),
(426,322,l),
(455,291,l),
(139,-12,l)
);
}
);
width = 479;
},
{
hints = (
{
horizontal = 1;
place = (291, 32);
place = (291, 32);
type = Stem;
},
{
horizontal = 1;
place = (366, 32);
place = (366, 32);
type = Stem;
},
{
place = (22, 433);
place = (22, 433);
type = Stem;
}
);
layerId = "7844E041-0347-4A22-AC49-F696B23A3360";
shapes = (
{
closed = 1;
nodes = (
(-1830,1140,l),
(-1786,1577,l),
(-1743,1572,l),
(-1787,1136,l)
);
},
{
closed = 1;
nodes = (
(-2476,827,l),
(-2438,847,l),
(-2263,487,l),
(-2302,468,l)
);
},
{
closed = 1;
nodes = (
(1590,-1141,l),
(1720,-722,l),
(1761,-735,l),
(1631,-1153,l)
);
}
);
width = 479;
}
);
note = S;
unicode = 83;
},
{
glyphname = T;
kernRight = T;
lastChange = "2024-02-25 17:05:27 +0000";
layers = (
{
hints = (
{
horizontal = 1;
place = (645, 12);
place = (645, 12);
type = Stem;
},
{
place = (10, 481);
place = (10, 481);
type = Stem;
}
);
layerId = m01;
shapes = (
{
closed = 1;
nodes = (
(10,657,l),
(10,700,l),
(491,700,l),
(491,657,l)
);
},
{
closed = 1;
nodes = (
(229,0,l),
(229,645,l),
(272,645,l),
(272,0,l)
);
}
);
width = 501;
},
{
hints = (
{
horizontal = 1;
place = (645, 12);
place = (645, 12);
type = Stem;
},
{
place = (10, 481);
place = (10, 481);
type = Stem;
}
);
layerId = "7844E041-0347-4A22-AC49-F696B23A3360";
shapes = (
{
closed = 1;
nodes = (
(10,657,l),
(10,700,l),
(491,700,l),
(491,657,l)
);
},
{
closed = 1;
nodes = (
(229,0,l),
(229,645,l),
(272,645,l),
(272,0,l)
);
}
);
width = 501;
}
);
note = T;
unicode = 84;
},
{
glyphname = U;
lastChange = "2024-02-25 17:05:27 +0000";
layers = (
{
hints = (
{
horizontal = 1;
place = (0, 700);
place = (0, 700);
type = Stem;
},
{
place = (123, 344);
place = (123, 344);
type = Stem;
},
{
place = (436, 31);
place = (436, 31);
type = Stem;
},
{
place = (312, 155);
place = (312, 155);
type = Stem;
}
);
layerId = m01;
shapes = (
{
closed = 1;
nodes = (
(80,44,l),
(80,700,l),
(123,700,l),
(123,44,l)
);
},
{
closed = 1;
nodes = (
(467,0,l),
(467,700,l),
(509,700,l),
(509,0,l)
);
},
{
closed = 1;
nodes = (
(313,43,l),
(436,158,l),
(466,127,l),
(342,12,l)
);
},
{
closed = 1;
nodes = (
(124,0,l),
(124,43,l),
(312,43,l),
(312,0,l)
);
}
);
width = 609;
},
{
hints = (
{
horizontal = 1;
place = (0, 700);
place = (0, 700);
type = Stem;
},
{
place = (123, 344);
place = (123, 344);
type = Stem;
},
{
place = (436, 31);
place = (436, 31);
type = Stem;
},
{
place = (312, 155);
place = (312, 155);
type = Stem;
}
);
layerId = "7844E041-0347-4A22-AC49-F696B23A3360";
shapes = (
{
closed = 1;
nodes = (
(80,44,l),
(80,700,l),
(123,700,l),
(123,44,l)
);
},
{
closed = 1;
nodes = (
(467,0,l),
(467,700,l),
(509,700,l),
(509,0,l)
);
},
{
closed = 1;
nodes = (
(313,43,l),
(436,158,l),
(466,127,l),
(342,12,l)
);
},
{
closed = 1;
nodes = (
(124,0,l),
(124,43,l),
(312,43,l),
(312,0,l)
);
}
);
width = 609;
}
);
note = U;
unicode = 85;
},
{
glyphname = Uacute;
lastChange = "2024-02-25 17:05:27 +0000";
layers = (
{
hints = (
{
horizontal = 1;
place = (800, -20);
target = down;
type = TopGhost;
},
{
place = (436, 31);
place = (436, 31);
type = Stem;
},
{
place = (123, 344);
place = (123, 344);
type = Stem;
},
{
place = (312, 155);
place = (312, 155);
type = Stem;
}
);
layerId = m01;
shapes = (
{
closed = 1;
nodes = (
(187,833,l),
(395,1007,l),
(422,975,l),
(214,800,l)
);
},
{
closed = 1;
nodes = (
(80,44,l),
(80,700,l),
(123,700,l),
(123,44,l)
);
},
{
closed = 1;
nodes = (
(467,0,l),
(467,700,l),
(509,700,l),
(509,0,l)
);
},
{
closed = 1;
nodes = (
(313,43,l),
(436,158,l),
(466,127,l),
(342,12,l)
);
},
{
closed = 1;
nodes = (
(124,0,l),
(124,43,l),
(312,43,l),
(312,0,l)
);
}
);
width = 609;
},
{
hints = (
{
horizontal = 1;
place = (800, -20);
target = down;
type = TopGhost;
},
{
place = (436, 31);
place = (436, 31);
type = Stem;
},
{
place = (123, 344);
place = (123, 344);
type = Stem;
},
{
place = (312, 155);
place = (312, 155);
type = Stem;
}
);
layerId = "7844E041-0347-4A22-AC49-F696B23A3360";
shapes = (
{
closed = 1;
nodes = (
(187,833,l),
(395,1007,l),
(422,975,l),
(214,800,l)
);
},
{
closed = 1;
nodes = (
(80,44,l),
(80,700,l),
(123,700,l),
(123,44,l)
);
},
{
closed = 1;
nodes = (
(467,0,l),
(467,700,l),
(509,700,l),
(509,0,l)
);
},
{
closed = 1;
nodes = (
(313,43,l),
(436,158,l),
(466,127,l),
(342,12,l)
);
},
{
closed = 1;
nodes = (
(124,0,l),
(124,43,l),
(312,43,l),
(312,0,l)
);
}
);
width = 609;
}
);
note = Uacute;
unicode = 218;
},
{
glyphname = Ucircumflex;
lastChange = "2024-02-25 17:05:27 +0000";
layers = (
{
hints = (
{
horizontal = 1;
place = (800, -20);
target = down;
type = TopGhost;
},
{
place = (436, 31);
place = (436, 31);
type = Stem;
},
{
place = (123, 344);
place = (123, 344);
type = Stem;
},
{
place = (312, 155);
place = (312, 155);
type = Stem;
}
);
layerId = m01;
shapes = (
{
closed = 1;
nodes = (
(172,821,l),
(264,995,l),
(302,975,l),
(210,800,l)
);
},
{
closed = 1;
nodes = (
(306,975,l),
(344,995,l),
(437,821,l),
(399,800,l)
);
},
{
closed = 1;
nodes = (
(80,44,l),
(80,700,l),
(123,700,l),
(123,44,l)
);
},
{
closed = 1;
nodes = (
(467,0,l),
(467,700,l),
(509,700,l),
(509,0,l)
);
},
{
closed = 1;
nodes = (
(313,43,l),
(436,158,l),
(466,127,l),
(342,12,l)
);
},
{
closed = 1;
nodes = (
(124,0,l),
(124,43,l),
(312,43,l),
(312,0,l)
);
}
);
width = 609;
},
{
hints = (
{
horizontal = 1;
place = (800, -20);
target = down;
type = TopGhost;
},
{
place = (436, 31);
place = (436, 31);
type = Stem;
},
{
place = (123, 344);
place = (123, 344);
type = Stem;
},
{
place = (312, 155);
place = (312, 155);
type = Stem;
}
);
layerId = "7844E041-0347-4A22-AC49-F696B23A3360";
shapes = (
{
closed = 1;
nodes = (
(172,821,l),
(264,995,l),
(302,975,l),
(210,800,l)
);
},
{
closed = 1;
nodes = (
(306,975,l),
(344,995,l),
(437,821,l),
(399,800,l)
);
},
{
closed = 1;
nodes = (
(80,44,l),
(80,700,l),
(123,700,l),
(123,44,l)
);
},
{
closed = 1;
nodes = (
(467,0,l),
(467,700,l),
(509,700,l),
(509,0,l)
);
},
{
closed = 1;
nodes = (
(313,43,l),
(436,158,l),
(466,127,l),
(342,12,l)
);
},
{
closed = 1;
nodes = (
(124,0,l),
(124,43,l),
(312,43,l),
(312,0,l)
);
}
);
width = 609;
}
);
note = Ucircumflex;
unicode = 219;
},
{
glyphname = Udieresis;
lastChange = "2024-02-25 17:05:27 +0000";
layers = (
{
hints = (
{
horizontal = 1;
place = (700, 100);
place = (700, 100);
type = Stem;
},
{
horizontal = 1;
place = (843, 21);
place = (843, 21);
type = Stem;
},
{
place = (123, 31);
place = (123, 31);
type = Stem;
},
{
place = (258, 95);
place = (258, 95);
type = Stem;
},
{
place = (436, 31);
place = (436, 31);
type = Stem;
},
{
place = (123, 344);
place = (123, 344);
type = Stem;
},
{
place = (312, 155);
place = (312, 155);
type = Stem;
}
);
layerId = m01;
shapes = (
{
closed = 1;
nodes = (
(113,864,l),
(166,963,l),
(204,942,l),
(151,843,l)
);
},
{
closed = 1;
nodes = (
(208,942,l),
(246,963,l),
(299,864,l),
(261,843,l)
);
},
{
closed = 1;
nodes = (
(312,864,l),
(365,963,l),
(403,942,l),
(350,843,l)
);
},
{
closed = 1;
nodes = (
(407,942,l),
(445,963,l),
(498,864,l),
(460,843,l)
);
},
{
closed = 1;
nodes = (
(154,800,l),
(154,843,l),
(258,843,l),
(258,800,l)
);
},
{
closed = 1;
nodes = (
(353,800,l),
(353,843,l),
(457,843,l),
(457,800,l)
);
},
{
closed = 1;
nodes = (
(80,44,l),
(80,700,l),
(123,700,l),
(123,44,l)
);
},
{
closed = 1;
nodes = (
(467,0,l),
(467,700,l),
(509,700,l),
(509,0,l)
);
},
{
closed = 1;
nodes = (
(313,43,l),
(436,158,l),
(466,127,l),
(342,12,l)
);
},
{
closed = 1;
nodes = (
(124,0,l),
(124,43,l),
(312,43,l),
(312,0,l)
);
}
);
width = 609;
},
{
hints = (
{
horizontal = 1;
place = (700, 100);
place = (700, 100);
type = Stem;
},
{
horizontal = 1;
place = (843, 21);
place = (843, 21);
type = Stem;
},
{
place = (123, 31);
place = (123, 31);
type = Stem;
},
{
place = (258, 95);
place = (258, 95);
type = Stem;
},
{
place = (436, 31);
place = (436, 31);
type = Stem;
},
{
place = (123, 344);
place = (123, 344);
type = Stem;
},
{
place = (312, 155);
place = (312, 155);
type = Stem;
}
);
layerId = "7844E041-0347-4A22-AC49-F696B23A3360";
shapes = (
{
closed = 1;
nodes = (
(113,864,l),
(166,963,l),
(204,942,l),
(151,843,l)
);
},
{
closed = 1;
nodes = (
(208,942,l),
(246,963,l),
(299,864,l),
(261,843,l)
);
},
{
closed = 1;
nodes = (
(312,864,l),
(365,963,l),
(403,942,l),
(350,843,l)
);
},
{
closed = 1;
nodes = (
(407,942,l),
(445,963,l),
(498,864,l),
(460,843,l)
);
},
{
closed = 1;
nodes = (
(154,800,l),
(154,843,l),
(258,843,l),
(258,800,l)
);
},
{
closed = 1;
nodes = (
(353,800,l),
(353,843,l),
(457,843,l),
(457,800,l)
);
},
{
closed = 1;
nodes = (
(80,44,l),
(80,700,l),
(123,700,l),
(123,44,l)
);
},
{
closed = 1;
nodes = (
(467,0,l),
(467,700,l),
(509,700,l),
(509,0,l)
);
},
{
closed = 1;
nodes = (
(313,43,l),
(436,158,l),
(466,127,l),
(342,12,l)
);
},
{
closed = 1;
nodes = (
(124,0,l),
(124,43,l),
(312,43,l),
(312,0,l)
);
}
);
width = 609;
}
);
note = Udieresis;
unicode = 220;
},
{
glyphname = Ugrave;
lastChange = "2024-02-25 17:05:27 +0000";
layers = (
{
hints = (
{
horizontal = 1;
place = (800, -20);
target = down;
type = TopGhost;
},
{
place = (436, 31);
place = (436, 31);
type = Stem;
},
{
place = (123, 344);
place = (123, 344);
type = Stem;
},
{
place = (312, 155);
place = (312, 155);
type = Stem;
}
);
layerId = m01;
shapes = (
{
closed = 1;
nodes = (
(187,974,l),
(215,1007,l),
(423,833,l),
(396,800,l)
);
},
{
closed = 1;
nodes = (
(80,44,l),
(80,700,l),
(123,700,l),
(123,44,l)
);
},
{
closed = 1;
nodes = (
(467,0,l),
(467,700,l),
(509,700,l),
(509,0,l)
);
},
{
closed = 1;
nodes = (
(313,43,l),
(436,158,l),
(466,127,l),
(342,12,l)
);
},
{
closed = 1;
nodes = (
(124,0,l),
(124,43,l),
(312,43,l),
(312,0,l)
);
}
);
width = 609;
},
{
hints = (
{
horizontal = 1;
place = (800, -20);
target = down;
type = TopGhost;
},
{
place = (436, 31);
place = (436, 31);
type = Stem;
},
{
place = (123, 344);
place = (123, 344);
type = Stem;
},
{
place = (312, 155);
place = (312, 155);
type = Stem;
}
);
layerId = "7844E041-0347-4A22-AC49-F696B23A3360";
shapes = (
{
closed = 1;
nodes = (
(187,974,l),
(215,1007,l),
(423,833,l),
(396,800,l)
);
},
{
closed = 1;
nodes = (
(80,44,l),
(80,700,l),
(123,700,l),
(123,44,l)
);
},
{
closed = 1;
nodes = (
(467,0,l),
(467,700,l),
(509,700,l),
(509,0,l)
);
},
{
closed = 1;
nodes = (
(313,43,l),
(436,158,l),
(466,127,l),
(342,12,l)
);
},
{
closed = 1;
nodes = (
(124,0,l),
(124,43,l),
(312,43,l),
(312,0,l)
);
}
);
width = 609;
}
);
note = Ugrave;
unicode = 217;
},
{
glyphname = V;
lastChange = "2024-02-25 17:05:27 +0000";
layers = (
{
hints = (
{
horizontal = 1;
place = (-2, 21);
target = up;
type = BottomGhost;
},
{
place = (20, 441);
place = (20, 441);
type = Stem;
}
);
layerId = m01;
shapes = (
{
closed = 1;
nodes = (
(20,698,l),
(62,708,l),
(240,-2,l),
(198,-12,l)
);
},
{
closed = 1;
nodes = (
(242,-2,l),
(420,708,l),
(461,698,l),
(283,-12,l)
);
}
);
width = 481;
},
{
hints = (
{
horizontal = 1;
place = (-2, 21);
target = up;
type = BottomGhost;
},
{
place = (20, 441);
place = (20, 441);
type = Stem;
}
);
layerId = "7844E041-0347-4A22-AC49-F696B23A3360";
shapes = (
{
closed = 1;
nodes = (
(20,698,l),
(62,708,l),
(240,-2,l),
(198,-12,l)
);
},
{
closed = 1;
nodes = (
(242,-2,l),
(420,708,l),
(461,698,l),
(283,-12,l)
);
}
);
width = 481;
}
);
note = V;
unicode = 86;
},
{
glyphname = W;
lastChange = "2024-02-25 17:05:27 +0000";
layers = (
{
hints = (
{
horizontal = 1;
place = (0, 707);
place = (0, 707);
type = Stem;
},
{
place = (20, 770);
place = (20, 770);
type = Stem;
}
);
layerId = m01;
shapes = (
{
closed = 1;
nodes = (
(20,698,l),
(62,707,l),
(212,9,l),
(170,0,l)
);
},
{
closed = 1;
nodes = (
(213,9,l),
(363,707,l),
(405,698,l),
(255,0,l)
);
},
{
closed = 1;
nodes = (
(407,698,l),
(449,707,l),
(598,9,l),
(556,0,l)
);
},
{
closed = 1;
nodes = (
(599,9,l),
(748,707,l),
(790,698,l),
(641,0,l)
);
}
);
width = 810;
},
{
hints = (
{
horizontal = 1;
place = (0, 707);
place = (0, 707);
type = Stem;
},
{
place = (20, 770);
place = (20, 770);
type = Stem;
}
);
layerId = "7844E041-0347-4A22-AC49-F696B23A3360";
shapes = (
{
closed = 1;
nodes = (
(20,698,l),
(62,707,l),
(212,9,l),
(170,0,l)
);
},
{
closed = 1;
nodes = (
(213,9,l),
(363,707,l),
(405,698,l),
(255,0,l)
);
},
{
closed = 1;
nodes = (
(407,698,l),
(449,707,l),
(598,9,l),
(556,0,l)
);
},
{
closed = 1;
nodes = (
(599,9,l),
(748,707,l),
(790,698,l),
(641,0,l)
);
}
);
width = 810;
}
);
note = W;
unicode = 87;
},
{
glyphname = X;
lastChange = "2024-02-25 17:05:27 +0000";
layers = (
{
hints = (
{
horizontal = 1;
place = (409, -20);
target = down;
type = TopGhost;
},
{
place = (5, 734);
place = (5, 734);
type = Stem;
}
);
layerId = m01;
shapes = (
{
closed = 1;
nodes = (
(5,682,l),
(31,716,l),
(371,464,l),
(345,429,l)
);
},
{
closed = 1;
nodes = (
(372,464,l),
(713,716,l),
(739,681,l),
(397,429,l)
);
},
{
closed = 1;
nodes = (
(53,8,l),
(335,433,l),
(371,409,l),
(89,-16,l)
);
},
{
closed = 1;
nodes = (
(371,409,l),
(407,433,l),
(690,8,l),
(654,-16,l)
);
}
);
width = 744;
},
{
hints = (
{
horizontal = 1;
place = (409, -20);
target = down;
type = TopGhost;
},
{
place = (5, 734);
place = (5, 734);
type = Stem;
}
);
layerId = "7844E041-0347-4A22-AC49-F696B23A3360";
shapes = (
{
closed = 1;
nodes = (
(5,682,l),
(31,716,l),
(371,464,l),
(345,429,l)
);
},
{
closed = 1;
nodes = (
(372,464,l),
(713,716,l),
(739,681,l),
(397,429,l)
);
},
{
closed = 1;
nodes = (
(53,8,l),
(335,433,l),
(371,409,l),
(89,-16,l)
);
},
{
closed = 1;
nodes = (
(371,409,l),
(407,433,l),
(690,8,l),
(654,-16,l)
);
}
);
width = 744;
}
);
note = X;
unicode = 88;
},
{
glyphname = Y;
kernLeft = Y;
kernRight = Y;
lastChange = "2024-02-25 17:05:27 +0000";
layers = (
{
hints = (
{
horizontal = 1;
place = (402, 24);
place = (402, 24);
type = Stem;
},
{
place = (306, 9);
place = (306, 9);
type = Stem;
},
{
place = (358, 8);
place = (358, 8);
type = Stem;
}
);
layerId = m01;
shapes = (
{
closed = 1;
nodes = (
(5,677,l),
(34,708,l),
(336,426,l),
(306,395,l)
);
},
{
closed = 1;
nodes = (
(337,426,l),
(639,708,l),
(668,676,l),
(366,395,l)
);
},
{
closed = 1;
nodes = (
(315,0,l),
(315,402,l),
(358,402,l),
(358,0,l)
);
}
);
width = 673;
},
{
hints = (
{
horizontal = 1;
place = (402, 24);
place = (402, 24);
type = Stem;
},
{
place = (306, 9);
place = (306, 9);
type = Stem;
},
{
place = (358, 8);
place = (358, 8);
type = Stem;
}
);
layerId = "7844E041-0347-4A22-AC49-F696B23A3360";
shapes = (
{
closed = 1;
nodes = (
(5,677,l),
(34,708,l),
(336,426,l),
(306,395,l)
);
},
{
closed = 1;
nodes = (
(337,426,l),
(639,708,l),
(668,676,l),
(366,395,l)
);
},
{
closed = 1;
nodes = (
(315,0,l),
(315,402,l),
(358,402,l),
(358,0,l)
);
}
);
width = 673;
}
);
note = Y;
unicode = 89;
},
{
glyphname = Yacute;
lastChange = "2024-02-25 17:05:27 +0000";
layers = (
{
hints = (
{
horizontal = 1;
place = (402, 24);
place = (402, 24);
type = Stem;
},
{
horizontal = 1;
place = (800, -20);
target = down;
type = TopGhost;
},
{
place = (306, 9);
place = (306, 9);
type = Stem;
},
{
place = (358, 8);
place = (358, 8);
type = Stem;
}
);
layerId = m01;
shapes = (
{
closed = 1;
nodes = (
(219,833,l),
(427,1007,l),
(454,975,l),
(246,800,l)
);
},
{
closed = 1;
nodes = (
(5,677,l),
(34,708,l),
(336,426,l),
(306,395,l)
);
},
{
closed = 1;
nodes = (
(337,426,l),
(639,708,l),
(668,676,l),
(366,395,l)
);
},
{
closed = 1;
nodes = (
(315,0,l),
(315,402,l),
(358,402,l),
(358,0,l)
);
}
);
width = 673;
},
{
hints = (
{
horizontal = 1;
place = (402, 24);
place = (402, 24);
type = Stem;
},
{
horizontal = 1;
place = (800, -20);
target = down;
type = TopGhost;
},
{
place = (306, 9);
place = (306, 9);
type = Stem;
},
{
place = (358, 8);
place = (358, 8);
type = Stem;
}
);
layerId = "7844E041-0347-4A22-AC49-F696B23A3360";
shapes = (
{
closed = 1;
nodes = (
(219,833,l),
(427,1007,l),
(454,975,l),
(246,800,l)
);
},
{
closed = 1;
nodes = (
(5,677,l),
(34,708,l),
(336,426,l),
(306,395,l)
);
},
{
closed = 1;
nodes = (
(337,426,l),
(639,708,l),
(668,676,l),
(366,395,l)
);
},
{
closed = 1;
nodes = (
(315,0,l),
(315,402,l),
(358,402,l),
(358,0,l)
);
}
);
width = 673;
}
);
note = Yacute;
unicode = 221;
},
{
glyphname = Ycircumflex;
lastChange = "2024-02-25 17:05:27 +0000";
layers = (
{
hints = (
{
horizontal = 1;
place = (402, 24);
place = (402, 24);
type = Stem;
},
{
horizontal = 1;
place = (800, -20);
target = down;
type = TopGhost;
},
{
place = (306, 9);
place = (306, 9);
type = Stem;
},
{
place = (358, 8);
place = (358, 8);
type = Stem;
}
);
layerId = m01;
shapes = (
{
closed = 1;
nodes = (
(204,821,l),
(296,995,l),
(334,975,l),
(242,800,l)
);
},
{
closed = 1;
nodes = (
(338,975,l),
(376,995,l),
(469,821,l),
(431,800,l)
);
},
{
closed = 1;
nodes = (
(5,677,l),
(34,708,l),
(336,426,l),
(306,395,l)
);
},
{
closed = 1;
nodes = (
(337,426,l),
(639,708,l),
(668,676,l),
(366,395,l)
);
},
{
closed = 1;
nodes = (
(315,0,l),
(315,402,l),
(358,402,l),
(358,0,l)
);
}
);
width = 673;
},
{
hints = (
{
horizontal = 1;
place = (402, 24);
place = (402, 24);
type = Stem;
},
{
horizontal = 1;
place = (800, -20);
target = down;
type = TopGhost;
},
{
place = (306, 9);
place = (306, 9);
type = Stem;
},
{
place = (358, 8);
place = (358, 8);
type = Stem;
}
);
layerId = "7844E041-0347-4A22-AC49-F696B23A3360";
shapes = (
{
closed = 1;
nodes = (
(204,821,l),
(296,995,l),
(334,975,l),
(242,800,l)
);
},
{
closed = 1;
nodes = (
(338,975,l),
(376,995,l),
(469,821,l),
(431,800,l)
);
},
{
closed = 1;
nodes = (
(5,677,l),
(34,708,l),
(336,426,l),
(306,395,l)
);
},
{
closed = 1;
nodes = (
(337,426,l),
(639,708,l),
(668,676,l),
(366,395,l)
);
},
{
closed = 1;
nodes = (
(315,0,l),
(315,402,l),
(358,402,l),
(358,0,l)
);
}
);
width = 673;
}
);
note = Ycircumflex;
unicode = 374;
},
{
glyphname = Ydieresis;
lastChange = "2024-02-25 17:05:27 +0000";
layers = (
{
hints = (
{
horizontal = 1;
place = (402, 24);
place = (402, 24);
type = Stem;
},
{
horizontal = 1;
place = (800, -20);
target = down;
type = TopGhost;
},
{
horizontal = 1;
place = (843, 21);
place = (843, 21);
type = Stem;
},
{
place = (306, 9);
place = (306, 9);
type = Stem;
},
{
place = (358, 8);
place = (358, 8);
type = Stem;
},
{
place = (290, 95);
place = (290, 95);
type = Stem;
}
);
layerId = m01;
shapes = (
{
closed = 1;
nodes = (
(145,864,l),
(198,963,l),
(236,942,l),
(183,843,l)
);
},
{
closed = 1;
nodes = (
(240,942,l),
(278,963,l),
(331,864,l),
(293,843,l)
);
},
{
closed = 1;
nodes = (
(344,864,l),
(397,963,l),
(435,942,l),
(382,843,l)
);
},
{
closed = 1;
nodes = (
(439,942,l),
(477,963,l),
(530,864,l),
(492,843,l)
);
},
{
closed = 1;
nodes = (
(186,800,l),
(186,843,l),
(290,843,l),
(290,800,l)
);
},
{
closed = 1;
nodes = (
(385,800,l),
(385,843,l),
(489,843,l),
(489,800,l)
);
},
{
closed = 1;
nodes = (
(5,677,l),
(34,708,l),
(336,426,l),
(306,395,l)
);
},
{
closed = 1;
nodes = (
(337,426,l),
(639,708,l),
(668,676,l),
(366,395,l)
);
},
{
closed = 1;
nodes = (
(315,0,l),
(315,402,l),
(358,402,l),
(358,0,l)
);
}
);
width = 673;
},
{
hints = (
{
horizontal = 1;
place = (402, 24);
place = (402, 24);
type = Stem;
},
{
horizontal = 1;
place = (800, -20);
target = down;
type = TopGhost;
},
{
horizontal = 1;
place = (843, 21);
place = (843, 21);
type = Stem;
},
{
place = (306, 9);
place = (306, 9);
type = Stem;
},
{
place = (358, 8);
place = (358, 8);
type = Stem;
},
{
place = (290, 95);
place = (290, 95);
type = Stem;
}
);
layerId = "7844E041-0347-4A22-AC49-F696B23A3360";
shapes = (
{
closed = 1;
nodes = (
(145,864,l),
(198,963,l),
(236,942,l),
(183,843,l)
);
},
{
closed = 1;
nodes = (
(240,942,l),
(278,963,l),
(331,864,l),
(293,843,l)
);
},
{
closed = 1;
nodes = (
(344,864,l),
(397,963,l),
(435,942,l),
(382,843,l)
);
},
{
closed = 1;
nodes = (
(439,942,l),
(477,963,l),
(530,864,l),
(492,843,l)
);
},
{
closed = 1;
nodes = (
(186,800,l),
(186,843,l),
(290,843,l),
(290,800,l)
);
},
{
closed = 1;
nodes = (
(385,800,l),
(385,843,l),
(489,843,l),
(489,800,l)
);
},
{
closed = 1;
nodes = (
(5,677,l),
(34,708,l),
(336,426,l),
(306,395,l)
);
},
{
closed = 1;
nodes = (
(337,426,l),
(639,708,l),
(668,676,l),
(366,395,l)
);
},
{
closed = 1;
nodes = (
(315,0,l),
(315,402,l),
(358,402,l),
(358,0,l)
);
}
);
width = 673;
}
);
note = Ydieresis;
unicode = 376;
},
{
glyphname = Ygrave;
lastChange = "2024-02-25 17:05:27 +0000";
layers = (
{
hints = (
{
horizontal = 1;
place = (402, 24);
place = (402, 24);
type = Stem;
},
{
horizontal = 1;
place = (800, -20);
target = down;
type = TopGhost;
},
{
place = (306, 9);
place = (306, 9);
type = Stem;
},
{
place = (358, 8);
place = (358, 8);
type = Stem;
}
);
layerId = m01;
shapes = (
{
closed = 1;
nodes = (
(219,974,l),
(247,1007,l),
(455,833,l),
(428,800,l)
);
},
{
closed = 1;
nodes = (
(5,677,l),
(34,708,l),
(336,426,l),
(306,395,l)
);
},
{
closed = 1;
nodes = (
(337,426,l),
(639,708,l),
(668,676,l),
(366,395,l)
);
},
{
closed = 1;
nodes = (
(315,0,l),
(315,402,l),
(358,402,l),
(358,0,l)
);
}
);
width = 673;
},
{
hints = (
{
horizontal = 1;
place = (402, 24);
place = (402, 24);
type = Stem;
},
{
horizontal = 1;
place = (800, -20);
target = down;
type = TopGhost;
},
{
place = (306, 9);
place = (306, 9);
type = Stem;
},
{
place = (358, 8);
place = (358, 8);
type = Stem;
}
);
layerId = "7844E041-0347-4A22-AC49-F696B23A3360";
shapes = (
{
closed = 1;
nodes = (
(219,974,l),
(247,1007,l),
(455,833,l),
(428,800,l)
);
},
{
closed = 1;
nodes = (
(5,677,l),
(34,708,l),
(336,426,l),
(306,395,l)
);
},
{
closed = 1;
nodes = (
(337,426,l),
(639,708,l),
(668,676,l),
(366,395,l)
);
},
{
closed = 1;
nodes = (
(315,0,l),
(315,402,l),
(358,402,l),
(358,0,l)
);
}
);
width = 673;
}
);
note = Ygrave;
unicode = 7922;
},
{
glyphname = Z;
lastChange = "2024-02-25 17:05:27 +0000";
layers = (
{
hints = (
{
horizontal = 1;
place = (43, 34);
place = (43, 34);
type = Stem;
},
{
horizontal = 1;
place = (623, 34);
place = (623, 34);
type = Stem;
},
{
place = (9, 731);
place = (9, 731);
type = Stem;
}
);
layerId = m01;
shapes = (
{
closed = 1;
nodes = (
(24,657,l),
(24,700,l),
(713,700,l),
(713,657,l)
);
},
{
closed = 1;
nodes = (
(9,77,l),
(713,656,l),
(740,623,l),
(37,44,l)
);
},
{
closed = 1;
nodes = (
(37,0,l),
(37,43,l),
(724,43,l),
(724,0,l)
);
}
);
width = 748;
},
{
hints = (
{
horizontal = 1;
place = (43, 34);
place = (43, 34);
type = Stem;
},
{
horizontal = 1;
place = (623, 34);
place = (623, 34);
type = Stem;
},
{
place = (9, 731);
place = (9, 731);
type = Stem;
}
);
layerId = "7844E041-0347-4A22-AC49-F696B23A3360";
shapes = (
{
closed = 1;
nodes = (
(24,657,l),
(24,700,l),
(713,700,l),
(713,657,l)
);
},
{
closed = 1;
nodes = (
(9,77,l),
(713,656,l),
(740,623,l),
(37,44,l)
);
},
{
closed = 1;
nodes = (
(37,0,l),
(37,43,l),
(724,43,l),
(724,0,l)
);
}
);
width = 748;
}
);
note = Z;
unicode = 90;
},
{
glyphname = A.ss01;
kernLeft = A;
lastChange = "2024-02-25 17:05:27 +0000";
layers = (
{
hints = (
{
horizontal = 1;
place = (-1, 21);
target = up;
type = BottomGhost;
},
{
horizontal = 1;
place = (701, -20);
target = down;
type = TopGhost;
},
{
place = (10, 625);
place = (10, 625);
type = Stem;
},
{
horizontal = 1;
place = (-1, 79);
place = (-1, 79);
type = Stem;
}
);
layerId = m01;
shapes = (
{
closed = 1;
nodes = (
(10,-1,l),
(282,716,l),
(322,701,l),
(50,-16,l)
);
},
{
closed = 1;
nodes = (
(323,701,l),
(363,716,l),
(635,-1,l),
(595,-16,l)
);
},
{
closed = 1;
nodes = (
(103,78,l),
(103,121,l),
(542,121,l),
(542,78,l)
);
}
);
width = 645;
},
{
hints = (
{
horizontal = 1;
place = (-1, 21);
target = up;
type = BottomGhost;
},
{
horizontal = 1;
place = (701, -20);
target = down;
type = TopGhost;
},
{
place = (10, 625);
place = (10, 625);
type = Stem;
},
{
horizontal = 1;
place = (-1, 79);
place = (-1, 79);
type = Stem;
}
);
layerId = "7844E041-0347-4A22-AC49-F696B23A3360";
shapes = (
{
closed = 1;
nodes = (
(10,-1,l),
(282,716,l),
(322,701,l),
(50,-16,l)
);
},
{
closed = 1;
nodes = (
(323,701,l),
(363,716,l),
(635,-1,l),
(595,-16,l)
);
},
{
closed = 1;
nodes = (
(103,78,l),
(103,121,l),
(542,121,l),
(542,78,l)
);
}
);
width = 645;
}
);
note = A.ss01;
},
{
glyphname = B.ss01;
lastChange = "2024-02-25 17:05:27 +0000";
layers = (
{
hints = (
{
horizontal = 1;
place = (43, 10);
place = (43, 10);
type = Stem;
},
{
place = (139, 32);
place = (139, 32);
type = Stem;
},
{
place = (399, 41);
place = (399, 41);
type = Stem;
}
);
layerId = m01;
shapes = (
{
closed = 1;
nodes = (
(53,684,l),
(82,716,l),
(377,453,l),
(349,421,l)
);
},
{
closed = 1;
nodes = (
(97,53,l),
(97,607,l),
(139,607,l),
(139,53,l)
);
},
{
closed = 1;
nodes = (
(188,362,l),
(368,426,l),
(382,385,l),
(202,322,l)
);
},
{
closed = 1;
nodes = (
(140,325,l),
(171,354,l),
(471,29,l),
(440,0,l)
);
},
{
closed = 1;
nodes = (
(40,0,l),
(40,43,l),
(399,43,l),
(399,0,l)
);
}
);
width = 480;
},
{
hints = (
{
horizontal = 1;
place = (43, 10);
place = (43, 10);
type = Stem;
},
{
place = (139, 32);
place = (139, 32);
type = Stem;
},
{
place = (399, 41);
place = (399, 41);
type = Stem;
}
);
layerId = "7844E041-0347-4A22-AC49-F696B23A3360";
shapes = (
{
closed = 1;
nodes = (
(53,684,l),
(82,716,l),
(377,453,l),
(349,421,l)
);
},
{
closed = 1;
nodes = (
(97,53,l),
(97,607,l),
(139,607,l),
(139,53,l)
);
},
{
closed = 1;
nodes = (
(188,362,l),
(368,426,l),
(382,385,l),
(202,322,l)
);
},
{
closed = 1;
nodes = (
(140,325,l),
(171,354,l),
(471,29,l),
(440,0,l)
);
},
{
closed = 1;
nodes = (
(40,0,l),
(40,43,l),
(399,43,l),
(399,0,l)
);
}
);
width = 480;
}
);
note = B.ss01;
},
{
glyphname = C.ss01;
lastChange = "2024-02-25 17:05:27 +0000";
layers = (
{
hints = (
{
horizontal = 1;
place = (449, 31);
place = (449, 31);
type = Stem;
},
{
place = (289, 32);
place = (289, 32);
type = Stem;
},
{
place = (350, 32);
place = (350, 32);
type = Stem;
}
);
layerId = m01;
shapes = (
{
closed = 1;
nodes = (
(321,657,l),
(321,700,l),
(509,700,l),
(509,657,l)
);
},
{
closed = 1;
nodes = (
(82,480,l),
(289,687,l),
(320,656,l),
(113,450,l)
);
},
{
closed = 1;
nodes = (
(70,45,l),
(70,449,l),
(113,449,l),
(113,45,l)
);
},
{
closed = 1;
nodes = (
(351,45,l),
(513,216,l),
(544,187,l),
(382,15,l)
);
},
{
closed = 1;
nodes = (
(114,0,l),
(114,43,l),
(350,43,l),
(350,0,l)
);
}
);
width = 569;
},
{
hints = (
{
horizontal = 1;
place = (449, 31);
place = (449, 31);
type = Stem;
},
{
place = (289, 32);
place = (289, 32);
type = Stem;
},
{
place = (350, 32);
place = (350, 32);
type = Stem;
}
);
layerId = "7844E041-0347-4A22-AC49-F696B23A3360";
shapes = (
{
closed = 1;
nodes = (
(321,657,l),
(321,700,l),
(509,700,l),
(509,657,l)
);
},
{
closed = 1;
nodes = (
(82,480,l),
(289,687,l),
(320,656,l),
(113,450,l)
);
},
{
closed = 1;
nodes = (
(70,45,l),
(70,449,l),
(113,449,l),
(113,45,l)
);
},
{
closed = 1;
nodes = (
(351,45,l),
(513,216,l),
(544,187,l),
(382,15,l)
);
},
{
closed = 1;
nodes = (
(114,0,l),
(114,43,l),
(350,43,l),
(350,0,l)
);
}
);
width = 569;
}
);
note = C.ss01;
},
{
glyphname = D.ss01;
lastChange = "2024-02-25 17:05:27 +0000";
layers = (
{
hints = (
{
horizontal = 1;
place = (43, 34);
place = (43, 34);
type = Stem;
},
{
horizontal = 1;
place = (177, 35);
place = (177, 35);
type = Stem;
},
{
horizontal = 1;
place = (444, 37);
place = (444, 37);
type = Stem;
},
{
horizontal = 1;
place = (678, 8);
place = (678, 8);
type = Stem;
},
{
place = (123, 14);
place = (123, 14);
type = Stem;
},
{
place = (123, 344);
place = (123, 344);
type = Stem;
}
);
layerId = m01;
shapes = (
{
closed = 1;
nodes = (
(113,686,l),
(137,721,l),
(491,481,l),
(467,445,l)
);
},
{
closed = 1;
nodes = (
(80,44,l),
(80,678,l),
(123,678,l),
(123,44,l)
);
},
{
closed = 1;
nodes = (
(467,212,l),
(467,444,l),
(510,444,l),
(510,212,l)
);
},
{
closed = 1;
nodes = (
(297,77,l),
(467,211,l),
(493,177,l),
(323,44,l)
);
},
{
closed = 1;
nodes = (
(124,0,l),
(124,43,l),
(345,43,l),
(345,0,l)
);
}
);
width = 560;
},
{
hints = (
{
horizontal = 1;
place = (43, 34);
place = (43, 34);
type = Stem;
},
{
horizontal = 1;
place = (177, 35);
place = (177, 35);
type = Stem;
},
{
horizontal = 1;
place = (444, 37);
place = (444, 37);
type = Stem;
},
{
horizontal = 1;
place = (678, 8);
place = (678, 8);
type = Stem;
},
{
place = (123, 14);
place = (123, 14);
type = Stem;
},
{
place = (123, 344);
place = (123, 344);
type = Stem;
}
);
layerId = "7844E041-0347-4A22-AC49-F696B23A3360";
shapes = (
{
closed = 1;
nodes = (
(113,686,l),
(137,721,l),
(491,481,l),
(467,445,l)
);
},
{
closed = 1;
nodes = (
(80,44,l),
(80,678,l),
(123,678,l),
(123,44,l)
);
},
{
closed = 1;
nodes = (
(467,212,l),
(467,444,l),
(510,444,l),
(510,212,l)
);
},
{
closed = 1;
nodes = (
(297,77,l),
(467,211,l),
(493,177,l),
(323,44,l)
);
},
{
closed = 1;
nodes = (
(124,0,l),
(124,43,l),
(345,43,l),
(345,0,l)
);
}
);
width = 560;
}
);
note = D.ss01;
},
{
glyphname = E.ss01;
lastChange = "2024-02-25 17:05:27 +0000";
layers = (
{
hints = (
{
horizontal = 1;
place = (43, 234);
place = (43, 234);
type = Stem;
},
{
place = (123, 13);
place = (123, 13);
type = Stem;
}
);
layerId = m01;
shapes = (
{
closed = 1;
nodes = (
(125,680,l),
(149,716,l),
(475,498,l),
(451,462,l)
);
},
{
closed = 1;
nodes = (
(80,44,l),
(80,679,l),
(123,679,l),
(123,44,l)
);
},
{
closed = 1;
nodes = (
(136,277,l),
(136,320,l),
(405,320,l),
(405,277,l)
);
},
{
closed = 1;
nodes = (
(125,0,l),
(125,43,l),
(558,43,l),
(558,0,l)
);
}
);
width = 578;
},
{
hints = (
{
horizontal = 1;
place = (43, 234);
place = (43, 234);
type = Stem;
},
{
place = (123, 13);
place = (123, 13);
type = Stem;
}
);
layerId = "7844E041-0347-4A22-AC49-F696B23A3360";
shapes = (
{
closed = 1;
nodes = (
(125,680,l),
(149,716,l),
(475,498,l),
(451,462,l)
);
},
{
closed = 1;
nodes = (
(80,44,l),
(80,679,l),
(123,679,l),
(123,44,l)
);
},
{
closed = 1;
nodes = (
(136,277,l),
(136,320,l),
(405,320,l),
(405,277,l)
);
},
{
closed = 1;
nodes = (
(125,0,l),
(125,43,l),
(558,43,l),
(558,0,l)
);
}
);
width = 578;
}
);
note = E.ss01;
},
{
glyphname = F.ss01;
lastChange = "2024-02-25 17:05:27 +0000";
layers = (
{
hints = (
{
horizontal = 1;
place = (377, 80);
place = (377, 80);
type = Stem;
},
{
horizontal = 1;
place = (642, 16);
place = (642, 16);
type = Stem;
},
{
place = (63, 36);
place = (63, 36);
type = Stem;
}
);
layerId = m01;
shapes = (
{
closed = 1;
nodes = (
(30,658,l),
(30,700,l),
(494,700,l),
(494,658,l)
);
},
{
closed = 1;
nodes = (
(99,457,l),
(99,642,l),
(142,642,l),
(142,457,l)
);
},
{
closed = 1;
nodes = (
(53,412,l),
(63,454,l),
(399,376,l),
(390,334,l)
);
},
{
closed = 1;
nodes = (
(99,0,l),
(99,377,l),
(142,377,l),
(142,0,l)
);
}
);
width = 504;
},
{
hints = (
{
horizontal = 1;
place = (377, 80);
place = (377, 80);
type = Stem;
},
{
horizontal = 1;
place = (642, 16);
place = (642, 16);
type = Stem;
},
{
place = (63, 36);
place = (63, 36);
type = Stem;
}
);
layerId = "7844E041-0347-4A22-AC49-F696B23A3360";
shapes = (
{
closed = 1;
nodes = (
(30,658,l),
(30,700,l),
(494,700,l),
(494,658,l)
);
},
{
closed = 1;
nodes = (
(99,457,l),
(99,642,l),
(142,642,l),
(142,457,l)
);
},
{
closed = 1;
nodes = (
(53,412,l),
(63,454,l),
(399,376,l),
(390,334,l)
);
},
{
closed = 1;
nodes = (
(99,0,l),
(99,377,l),
(142,377,l),
(142,0,l)
);
}
);
width = 504;
}
);
note = F.ss01;
},
{
glyphname = G.ss01;
lastChange = "2024-02-25 17:05:27 +0000";
layers = (
{
hints = (
{
horizontal = 1;
place = (323, 9);
place = (323, 9);
type = Stem;
},
{
horizontal = 1;
place = (461, 37);
place = (461, 37);
type = Stem;
},
{
place = (113, 240);
place = (113, 240);
type = Stem;
},
{
place = (444, 10);
place = (444, 10);
type = Stem;
}
);
layerId = m01;
shapes = (
{
closed = 1;
nodes = (
(89,498,l),
(476,770,l),
(500,735,l),
(114,462,l)
);
},
{
closed = 1;
nodes = (
(70,44,l),
(70,461,l),
(113,461,l),
(113,44,l)
);
},
{
closed = 1;
nodes = (
(353,332,l),
(353,375,l),
(590,375,l),
(590,332,l)
);
},
{
closed = 1;
nodes = (
(454,0,l),
(454,323,l),
(497,323,l),
(497,0,l)
);
},
{
closed = 1;
nodes = (
(114,0,l),
(114,43,l),
(444,43,l),
(444,0,l)
);
}
);
width = 595;
},
{
hints = (
{
horizontal = 1;
place = (323, 9);
place = (323, 9);
type = Stem;
},
{
horizontal = 1;
place = (461, 37);
place = (461, 37);
type = Stem;
},
{
place = (113, 240);
place = (113, 240);
type = Stem;
},
{
place = (444, 10);
place = (444, 10);
type = Stem;
}
);
layerId = "7844E041-0347-4A22-AC49-F696B23A3360";
shapes = (
{
closed = 1;
nodes = (
(89,498,l),
(476,770,l),
(500,735,l),
(114,462,l)
);
},
{
closed = 1;
nodes = (
(70,44,l),
(70,461,l),
(113,461,l),
(113,44,l)
);
},
{
closed = 1;
nodes = (
(353,332,l),
(353,375,l),
(590,375,l),
(590,332,l)
);
},
{
closed = 1;
nodes = (
(454,0,l),
(454,323,l),
(497,323,l),
(497,0,l)
);
},
{
closed = 1;
nodes = (
(114,0,l),
(114,43,l),
(444,43,l),
(444,0,l)
);
}
);
width = 595;
}
);
note = G.ss01;
},
{
glyphname = H.ss01;
lastChange = "2024-02-25 17:05:27 +0000";
layers = (
{
hints = (
{
horizontal = 1;
place = (329, 13);
place = (329, 13);
type = Stem;
},
{
horizontal = 1;
place = (385, 13);
place = (385, 13);
type = Stem;
},
{
place = (147, 291);
place = (147, 291);
type = Stem;
},
{
place = (120, 318);
place = (120, 318);
type = Stem;
}
);
layerId = m01;
shapes = (
{
closed = 1;
nodes = (
(104,398,l),
(104,700,l),
(147,700,l),
(147,398,l)
);
},
{
closed = 1;
nodes = (
(438,398,l),
(438,700,l),
(481,700,l),
(481,398,l)
);
},
{
closed = 1;
nodes = (
(20,342,l),
(20,385,l),
(520,385,l),
(520,342,l)
);
},
{
closed = 1;
nodes = (
(77,0,l),
(77,329,l),
(120,329,l),
(120,0,l)
);
},
{
closed = 1;
nodes = (
(438,0,l),
(438,329,l),
(481,329,l),
(481,0,l)
);
}
);
width = 560;
},
{
hints = (
{
horizontal = 1;
place = (329, 13);
place = (329, 13);
type = Stem;
},
{
horizontal = 1;
place = (385, 13);
place = (385, 13);
type = Stem;
},
{
place = (147, 291);
place = (147, 291);
type = Stem;
},
{
place = (120, 318);
place = (120, 318);
type = Stem;
}
);
layerId = "7844E041-0347-4A22-AC49-F696B23A3360";
shapes = (
{
closed = 1;
nodes = (
(104,398,l),
(104,700,l),
(147,700,l),
(147,398,l)
);
},
{
closed = 1;
nodes = (
(438,398,l),
(438,700,l),
(481,700,l),
(481,398,l)
);
},
{
closed = 1;
nodes = (
(20,342,l),
(20,385,l),
(520,385,l),
(520,342,l)
);
},
{
closed = 1;
nodes = (
(77,0,l),
(77,329,l),
(120,329,l),
(120,0,l)
);
},
{
closed = 1;
nodes = (
(438,0,l),
(438,329,l),
(481,329,l),
(481,0,l)
);
}
);
width = 560;
}
);
note = H.ss01;
},
{
glyphname = I.ss01;
lastChange = "2024-02-25 17:05:27 +0000";
layers = (
{
hints = (
{
horizontal = 1;
place = (43, 13);
place = (43, 13);
type = Stem;
},
{
horizontal = 1;
place = (644, 13);
place = (644, 13);
type = Stem;
},
{
place = (20, 283);
place = (20, 283);
type = Stem;
}
);
layerId = m01;
shapes = (
{
closed = 1;
nodes = (
(64,657,l),
(64,700,l),
(260,700,l),
(260,657,l)
);
},
{
closed = 1;
nodes = (
(140,56,l),
(140,644,l),
(183,644,l),
(183,56,l)
);
},
{
closed = 1;
nodes = (
(20,0,l),
(20,43,l),
(303,43,l),
(303,0,l)
);
}
);
width = 323;
},
{
hints = (
{
horizontal = 1;
place = (43, 13);
place = (43, 13);
type = Stem;
},
{
horizontal = 1;
place = (644, 13);
place = (644, 13);
type = Stem;
},
{
place = (20, 283);
place = (20, 283);
type = Stem;
}
);
layerId = "7844E041-0347-4A22-AC49-F696B23A3360";
shapes = (
{
closed = 1;
nodes = (
(64,657,l),
(64,700,l),
(260,700,l),
(260,657,l)
);
},
{
closed = 1;
nodes = (
(140,56,l),
(140,644,l),
(183,644,l),
(183,56,l)
);
},
{
closed = 1;
nodes = (
(20,0,l),
(20,43,l),
(303,43,l),
(303,0,l)
);
}
);
width = 323;
}
);
note = I.ss01;
},
{
glyphname = J.ss01;
lastChange = "2024-02-25 17:05:27 +0000";
layers = (
{
hints = (
{
horizontal = 1;
place = (43, 31);
place = (43, 31);
type = Stem;
},
{
horizontal = 1;
place = (644, 13);
place = (644, 13);
type = Stem;
},
{
place = (231, 33);
place = (231, 33);
type = Stem;
}
);
layerId = m01;
shapes = (
{
closed = 1;
nodes = (
(51,657,l),
(51,700,l),
(391,700,l),
(391,657,l)
);
},
{
closed = 1;
nodes = (
(264,44,l),
(264,644,l),
(307,644,l),
(307,44,l)
);
},
{
closed = 1;
nodes = (
(30,74,l),
(231,288,l),
(262,259,l),
(61,45,l)
);
},
{
closed = 1;
nodes = (
(62,0,l),
(62,43,l),
(263,43,l),
(263,0,l)
);
}
);
width = 411;
},
{
hints = (
{
horizontal = 1;
place = (43, 31);
place = (43, 31);
type = Stem;
},
{
horizontal = 1;
place = (644, 13);
place = (644, 13);
type = Stem;
},
{
place = (231, 33);
place = (231, 33);
type = Stem;
}
);
layerId = "7844E041-0347-4A22-AC49-F696B23A3360";
shapes = (
{
closed = 1;
nodes = (
(51,657,l),
(51,700,l),
(391,700,l),
(391,657,l)
);
},
{
closed = 1;
nodes = (
(264,44,l),
(264,644,l),
(307,644,l),
(307,44,l)
);
},
{
closed = 1;
nodes = (
(30,74,l),
(231,288,l),
(262,259,l),
(61,45,l)
);
},
{
closed = 1;
nodes = (
(62,0,l),
(62,43,l),
(263,43,l),
(263,0,l)
);
}
);
width = 411;
}
);
note = J.ss01;
},
{
glyphname = K.ss01;
lastChange = "2024-02-25 17:05:27 +0000";
layers = (
{
hints = (
{
horizontal = 1;
place = (699, -20);
target = down;
type = TopGhost;
},
{
place = (123, 7.5);
place = (123, 7.5);
type = Stem;
}
);
layerId = m01;
shapes = (
{
closed = 1;
nodes = (
(206,389,l),
(479,726,l),
(513,699,l),
(240,363,l)
);
},
{
closed = 1;
nodes = (
(80,0,l),
(80,700,l),
(123,700,l),
(123,0,l)
);
},
{
closed = 1;
nodes = (
(127,335,l),
(134,377,l),
(388,335,l),
(381,292,l)
);
},
{
closed = 1;
nodes = (
(326,274,l),
(364,293,l),
(505,20,l),
(467,0,l)
);
}
);
width = 538;
},
{
hints = (
{
horizontal = 1;
place = (699, -20);
target = down;
type = TopGhost;
},
{
place = (123, 7.5);
place = (123, 7.5);
type = Stem;
}
);
layerId = "7844E041-0347-4A22-AC49-F696B23A3360";
shapes = (
{
closed = 1;
nodes = (
(206,389,l),
(479,726,l),
(513,699,l),
(240,363,l)
);
},
{
closed = 1;
nodes = (
(80,0,l),
(80,700,l),
(123,700,l),
(123,0,l)
);
},
{
closed = 1;
nodes = (
(127,335,l),
(134,377,l),
(388,335,l),
(381,292,l)
);
},
{
closed = 1;
nodes = (
(326,274,l),
(364,293,l),
(505,20,l),
(467,0,l)
);
}
);
width = 538;
}
);
note = K.ss01;
},
{
glyphname = L.ss01;
lastChange = "2024-02-25 17:05:27 +0000";
layers = (
{
hints = (
{
horizontal = 1;
place = (0, 700);
place = (0, 700);
type = Stem;
},
{
place = (391, 29);
place = (391, 29);
type = Stem;
}
);
layerId = m01;
shapes = (
{
closed = 1;
nodes = (
(80,44,l),
(80,700,l),
(123,700,l),
(123,44,l)
);
},
{
closed = 1;
nodes = (
(392,43,l),
(501,135,l),
(528,102,l),
(420,10,l)
);
},
{
closed = 1;
nodes = (
(124,0,l),
(124,43,l),
(391,43,l),
(391,0,l)
);
}
);
width = 538;
},
{
hints = (
{
horizontal = 1;
place = (0, 700);
place = (0, 700);
type = Stem;
},
{
place = (391, 29);
place = (391, 29);
type = Stem;
}
);
layerId = "7844E041-0347-4A22-AC49-F696B23A3360";
shapes = (
{
closed = 1;
nodes = (
(80,44,l),
(80,700,l),
(123,700,l),
(123,44,l)
);
},
{
closed = 1;
nodes = (
(392,43,l),
(501,135,l),
(528,102,l),
(420,10,l)
);
},
{
closed = 1;
nodes = (
(124,0,l),
(124,43,l),
(391,43,l),
(391,0,l)
);
}
);
width = 538;
}
);
note = L.ss01;
},
{
glyphname = M.ss01;
lastChange = "2024-02-25 17:05:27 +0000";
layers = (
{
hints = (
{
horizontal = 1;
place = (0, 716);
place = (0, 716);
type = Stem;
},
{
place = (65, 888);
place = (65, 888);
type = Stem;
}
);
layerId = m01;
shapes = (
{
closed = 1;
nodes = (
(65,693,l),
(102,716,l),
(541,23,l),
(504,0,l)
);
},
{
closed = 1;
nodes = (
(476,693,l),
(513,716,l),
(953,23,l),
(917,0,l)
);
},
{
closed = 1;
nodes = (
(88,0,l),
(88,584,l),
(131,584,l),
(131,0,l)
);
},
{
closed = 1;
nodes = (
(501,90,l),
(501,584,l),
(543,584,l),
(543,90,l)
);
}
);
width = 958;
},
{
hints = (
{
horizontal = 1;
place = (0, 716);
place = (0, 716);
type = Stem;
},
{
place = (65, 888);
place = (65, 888);
type = Stem;
}
);
layerId = "7844E041-0347-4A22-AC49-F696B23A3360";
shapes = (
{
closed = 1;
nodes = (
(65,693,l),
(102,716,l),
(541,23,l),
(504,0,l)
);
},
{
closed = 1;
nodes = (
(476,693,l),
(513,716,l),
(953,23,l),
(917,0,l)
);
},
{
closed = 1;
nodes = (
(88,0,l),
(88,584,l),
(131,584,l),
(131,0,l)
);
},
{
closed = 1;
nodes = (
(501,90,l),
(501,584,l),
(543,584,l),
(543,90,l)
);
}
);
width = 958;
}
);
note = M.ss01;
},
{
glyphname = O.ss01;
lastChange = "2024-02-25 17:05:27 +0000";
layers = (
{
hints = (
{
horizontal = 1;
place = (0, 700);
place = (0, 700);
type = Stem;
},
{
place = (80, 497);
place = (80, 497);
type = Stem;
}
);
layerId = m01;
shapes = (
{
closed = 1;
nodes = (
(124,657,l),
(124,700,l),
(534,700,l),
(534,657,l)
);
},
{
closed = 1;
nodes = (
(80,43,l),
(80,657,l),
(123,657,l),
(123,43,l)
);
},
{
closed = 1;
nodes = (
(534,43,l),
(534,657,l),
(577,657,l),
(577,43,l)
);
},
{
closed = 1;
nodes = (
(124,0,l),
(124,43,l),
(534,43,l),
(534,0,l)
);
}
);
width = 657;
},
{
hints = (
{
horizontal = 1;
place = (0, 700);
place = (0, 700);
type = Stem;
},
{
place = (80, 497);
place = (80, 497);
type = Stem;
}
);
layerId = "7844E041-0347-4A22-AC49-F696B23A3360";
shapes = (
{
closed = 1;
nodes = (
(124,657,l),
(124,700,l),
(534,700,l),
(534,657,l)
);
},
{
closed = 1;
nodes = (
(80,43,l),
(80,657,l),
(123,657,l),
(123,43,l)
);
},
{
closed = 1;
nodes = (
(534,43,l),
(534,657,l),
(577,657,l),
(577,43,l)
);
},
{
closed = 1;
nodes = (
(124,0,l),
(124,43,l),
(534,43,l),
(534,0,l)
);
}
);
width = 657;
}
);
note = O.ss01;
},
{
glyphname = P.ss01;
lastChange = "2024-02-25 17:05:27 +0000";
layers = (
{
hints = (
{
horizontal = 1;
place = (641, 16);
place = (641, 16);
type = Stem;
},
{
place = (139, 31);
place = (139, 31);
type = Stem;
},
{
horizontal = 1;
place = (624, 33);
place = (624, 33);
type = Stem;
}
);
layerId = m01;
shapes = (
{
closed = 1;
nodes = (
(40,657,l),
(40,700,l),
(510,700,l),
(510,657,l)
);
},
{
closed = 1;
nodes = (
(141,325,l),
(488,655,l),
(518,624,l),
(170,294,l)
);
},
{
closed = 1;
nodes = (
(96,0,l),
(96,641,l),
(139,641,l),
(139,0,l)
);
}
);
width = 521;
},
{
hints = (
{
horizontal = 1;
place = (641, 16);
place = (641, 16);
type = Stem;
},
{
place = (139, 31);
place = (139, 31);
type = Stem;
},
{
horizontal = 1;
place = (624, 33);
place = (624, 33);
type = Stem;
}
);
layerId = "7844E041-0347-4A22-AC49-F696B23A3360";
shapes = (
{
closed = 1;
nodes = (
(40,657,l),
(40,700,l),
(510,700,l),
(510,657,l)
);
},
{
closed = 1;
nodes = (
(141,325,l),
(488,655,l),
(518,624,l),
(170,294,l)
);
},
{
closed = 1;
nodes = (
(96,0,l),
(96,641,l),
(139,641,l),
(139,0,l)
);
}
);
width = 521;
}
);
note = P.ss01;
},
{
glyphname = Q.ss01;
lastChange = "2024-02-25 17:05:27 +0000";
layers = (
{
hints = (
{
horizontal = 1;
place = (-223, 923);
place = (-223, 923);
type = Stem;
},
{
place = (257, 12);
place = (257, 12);
type = Stem;
},
{
place = (312, 11);
place = (312, 11);
type = Stem;
},
{
place = (122, 147);
place = (122, 147);
type = Stem;
},
{
place = (312, 145);
place = (312, 145);
type = Stem;
}
);
layerId = m01;
shapes = (
{
closed = 1;
nodes = (
(123,657,l),
(123,700,l),
(456,700,l),
(456,657,l)
);
},
{
closed = 1;
nodes = (
(80,44,l),
(80,656,l),
(122,656,l),
(122,44,l)
);
},
{
closed = 1;
nodes = (
(457,44,l),
(457,656,l),
(500,656,l),
(500,44,l)
);
},
{
closed = 1;
nodes = (
(269,-223,l),
(269,183,l),
(312,183,l),
(312,-223,l)
);
},
{
closed = 1;
nodes = (
(123,0,l),
(123,43,l),
(257,43,l),
(257,0,l)
);
},
{
closed = 1;
nodes = (
(323,0,l),
(323,43,l),
(456,43,l),
(456,0,l)
);
}
);
width = 580;
},
{
hints = (
{
horizontal = 1;
place = (-223, 923);
place = (-223, 923);
type = Stem;
},
{
place = (257, 12);
place = (257, 12);
type = Stem;
},
{
place = (312, 11);
place = (312, 11);
type = Stem;
},
{
place = (122, 147);
place = (122, 147);
type = Stem;
},
{
place = (312, 145);
place = (312, 145);
type = Stem;
}
);
layerId = "7844E041-0347-4A22-AC49-F696B23A3360";
shapes = (
{
closed = 1;
nodes = (
(123,657,l),
(123,700,l),
(456,700,l),
(456,657,l)
);
},
{
closed = 1;
nodes = (
(80,44,l),
(80,656,l),
(122,656,l),
(122,44,l)
);
},
{
closed = 1;
nodes = (
(457,44,l),
(457,656,l),
(500,656,l),
(500,44,l)
);
},
{
closed = 1;
nodes = (
(269,-223,l),
(269,183,l),
(312,183,l),
(312,-223,l)
);
},
{
closed = 1;
nodes = (
(123,0,l),
(123,43,l),
(257,43,l),
(257,0,l)
);
},
{
closed = 1;
nodes = (
(323,0,l),
(323,43,l),
(456,43,l),
(456,0,l)
);
}
);
width = 580;
}
);
note = Q.ss01;
},
{
glyphname = R.ss01;
lastChange = "2024-02-25 17:05:27 +0000";
layers = (
{
hints = (
{
horizontal = 1;
place = (290, 32);
place = (290, 32);
type = Stem;
},
{
horizontal = 1;
place = (365, 33);
place = (365, 33);
type = Stem;
},
{
place = (123, 10);
place = (123, 10);
type = Stem;
}
);
layerId = m01;
shapes = (
{
closed = 1;
nodes = (
(131,675,l),
(161,706,l),
(472,398,l),
(442,367,l)
);
},
{
closed = 1;
nodes = (
(80,0,l),
(80,700,l),
(123,700,l),
(123,0,l)
);
},
{
closed = 1;
nodes = (
(133,322,l),
(133,365,l),
(452,365,l),
(452,322,l)
);
},
{
closed = 1;
nodes = (
(131,290,l),
(161,321,l),
(462,31,l),
(432,0,l)
);
}
);
width = 492;
},
{
hints = (
{
horizontal = 1;
place = (290, 32);
place = (290, 32);
type = Stem;
},
{
horizontal = 1;
place = (365, 33);
place = (365, 33);
type = Stem;
},
{
place = (123, 10);
place = (123, 10);
type = Stem;
}
);
layerId = "7844E041-0347-4A22-AC49-F696B23A3360";
shapes = (
{
closed = 1;
nodes = (
(131,675,l),
(161,706,l),
(472,398,l),
(442,367,l)
);
},
{
closed = 1;
nodes = (
(80,0,l),
(80,700,l),
(123,700,l),
(123,0,l)
);
},
{
closed = 1;
nodes = (
(133,322,l),
(133,365,l),
(452,365,l),
(452,322,l)
);
},
{
closed = 1;
nodes = (
(131,290,l),
(161,321,l),
(462,31,l),
(432,0,l)
);
}
);
width = 492;
}
);
note = R.ss01;
},
{
glyphname = S.ss01;
lastChange = "2024-02-25 17:05:27 +0000";
layers = (
{
hints = (
{
horizontal = 1;
place = (305, 34);
place = (305, 34);
type = Stem;
},
{
horizontal = 1;
place = (382, 35);
place = (382, 35);
type = Stem;
},
{
place = (25, 699);
place = (25, 699);
type = Stem;
},
{
horizontal = 1;
place = (173, 166);
place = (173, 166);
type = Stem;
}
);
layerId = m01;
shapes = (
{
closed = 1;
nodes = (
(25,417,l),
(381,708,l),
(408,675,l),
(52,383,l)
);
},
{
closed = 1;
nodes = (
(409,675,l),
(439,705,l),
(609,538,l),
(579,507,l)
);
},
{
closed = 1;
nodes = (
(36,339,l),
(36,382,l),
(696,382,l),
(696,339,l)
);
},
{
closed = 1;
nodes = (
(309,21,l),
(697,338,l),
(724,305,l),
(336,-12,l)
);
},
{
closed = 1;
nodes = (
(122,143,l),
(152,173,l),
(308,21,l),
(278,-10,l)
);
}
);
width = 754;
},
{
hints = (
{
horizontal = 1;
place = (305, 34);
place = (305, 34);
type = Stem;
},
{
horizontal = 1;
place = (382, 35);
place = (382, 35);
type = Stem;
},
{
place = (25, 699);
place = (25, 699);
type = Stem;
},
{
horizontal = 1;
place = (173, 166);
place = (173, 166);
type = Stem;
}
);
layerId = "7844E041-0347-4A22-AC49-F696B23A3360";
shapes = (
{
closed = 1;
nodes = (
(25,417,l),
(381,708,l),
(408,675,l),
(52,383,l)
);
},
{
closed = 1;
nodes = (
(409,675,l),
(439,705,l),
(609,538,l),
(579,507,l)
);
},
{
closed = 1;
nodes = (
(36,339,l),
(36,382,l),
(696,382,l),
(696,339,l)
);
},
{
closed = 1;
nodes = (
(309,21,l),
(697,338,l),
(724,305,l),
(336,-12,l)
);
},
{
closed = 1;
nodes = (
(122,143,l),
(152,173,l),
(308,21,l),
(278,-10,l)
);
}
);
width = 754;
}
);
note = S.ss01;
},
{
glyphname = T.ss01;
kernRight = T;
lastChange = "2024-02-25 17:05:27 +0000";
layers = (
{
hints = (
{
horizontal = 1;
place = (666, 8);
place = (666, 8);
type = Stem;
},
{
place = (319.5, 11);
place = (319.5, 11);
type = Stem;
}
);
layerId = m01;
shapes = (
{
closed = 1;
nodes = (
(5,667,l),
(316,716,l),
(323,674,l),
(12,625,l)
);
},
{
closed = 1;
nodes = (
(327,674,l),
(334,716,l),
(640,669,l),
(634,628,l)
);
},
{
closed = 1;
nodes = (
(304,0,l),
(304,666,l),
(347,666,l),
(347,0,l)
);
}
);
width = 645;
},
{
hints = (
{
horizontal = 1;
place = (666, 8);
place = (666, 8);
type = Stem;
},
{
place = (319.5, 11);
place = (319.5, 11);
type = Stem;
}
);
layerId = "7844E041-0347-4A22-AC49-F696B23A3360";
shapes = (
{
closed = 1;
nodes = (
(5,667,l),
(316,716,l),
(323,674,l),
(12,625,l)
);
},
{
closed = 1;
nodes = (
(327,674,l),
(334,716,l),
(640,669,l),
(634,628,l)
);
},
{
closed = 1;
nodes = (
(304,0,l),
(304,666,l),
(347,666,l),
(347,0,l)
);
}
);
width = 645;
}
);
note = T.ss01;
},
{
glyphname = A.ss02;
kernLeft = A;
lastChange = "2024-02-25 17:05:27 +0000";
layers = (
{
hints = (
{
horizontal = 1;
place = (-12, 720);
place = (-12, 720);
type = Stem;
},
{
place = (10, 610);
place = (10, 610);
type = Stem;
}
);
layerId = m01;
shapes = (
{
closed = 1;
nodes = (
(10,3,l),
(273,708,l),
(313,693,l),
(50,-12,l)
);
},
{
closed = 1;
nodes = (
(317,693,l),
(358,708,l),
(620,3,l),
(580,-12,l)
);
},
{
closed = 1;
nodes = (
(241,452,l),
(241,495,l),
(389,495,l),
(389,452,l)
);
}
);
width = 630;
},
{
hints = (
{
horizontal = 1;
place = (-12, 720);
place = (-12, 720);
type = Stem;
},
{
place = (10, 610);
place = (10, 610);
type = Stem;
}
);
layerId = "7844E041-0347-4A22-AC49-F696B23A3360";
shapes = (
{
closed = 1;
nodes = (
(10,3,l),
(273,708,l),
(313,693,l),
(50,-12,l)
);
},
{
closed = 1;
nodes = (
(317,693,l),
(358,708,l),
(620,3,l),
(580,-12,l)
);
},
{
closed = 1;
nodes = (
(241,452,l),
(241,495,l),
(389,495,l),
(389,452,l)
);
}
);
width = 630;
}
);
note = A.ss02;
},
{
glyphname = B.ss02;
lastChange = "2024-02-25 17:05:27 +0000";
layers = (
{
hints = (
{
horizontal = 1;
place = (43, 209);
place = (43, 209);
type = Stem;
},
{
horizontal = 1;
place = (295, 29);
place = (295, 29);
type = Stem;
},
{
place = (124, 10);
place = (124, 10);
type = Stem;
}
);
layerId = m01;
shapes = (
{
closed = 1;
nodes = (
(80,695,l),
(113,723,l),
(299,509,l),
(266,481,l)
);
},
{
closed = 1;
nodes = (
(81,44,l),
(81,641,l),
(124,641,l),
(124,44,l)
);
},
{
closed = 1;
nodes = (
(126,324,l),
(266,480,l),
(298,451,l),
(158,296,l)
);
},
{
closed = 1;
nodes = (
(134,252,l),
(134,295,l),
(398,295,l),
(398,252,l)
);
},
{
closed = 1;
nodes = (
(399,44,l),
(399,251,l),
(442,251,l),
(442,44,l)
);
},
{
closed = 1;
nodes = (
(125,0,l),
(125,43,l),
(398,43,l),
(398,0,l)
);
}
);
width = 482;
},
{
hints = (
{
horizontal = 1;
place = (43, 209);
place = (43, 209);
type = Stem;
},
{
horizontal = 1;
place = (295, 29);
place = (295, 29);
type = Stem;
},
{
place = (124, 10);
place = (124, 10);
type = Stem;
}
);
layerId = "7844E041-0347-4A22-AC49-F696B23A3360";
shapes = (
{
closed = 1;
nodes = (
(80,695,l),
(113,723,l),
(299,509,l),
(266,481,l)
);
},
{
closed = 1;
nodes = (
(81,44,l),
(81,641,l),
(124,641,l),
(124,44,l)
);
},
{
closed = 1;
nodes = (
(126,324,l),
(266,480,l),
(298,451,l),
(158,296,l)
);
},
{
closed = 1;
nodes = (
(134,252,l),
(134,295,l),
(398,295,l),
(398,252,l)
);
},
{
closed = 1;
nodes = (
(399,44,l),
(399,251,l),
(442,251,l),
(442,44,l)
);
},
{
closed = 1;
nodes = (
(125,0,l),
(125,43,l),
(398,43,l),
(398,0,l)
);
}
);
width = 482;
}
);
note = B.ss02;
},
{
glyphname = C.ss02;
lastChange = "2024-02-25 17:05:27 +0000";
layers = (
{
hints = (
{
horizontal = 1;
place = (0, 700);
place = (0, 700);
type = Stem;
},
{
place = (130, 42);
place = (130, 42);
type = Stem;
}
);
layerId = m01;
shapes = (
{
closed = 1;
nodes = (
(172,657,l),
(172,700,l),
(487,700,l),
(487,657,l)
);
},
{
closed = 1;
nodes = (
(20,52,l),
(130,663,l),
(172,655,l),
(62,44,l)
);
},
{
closed = 1;
nodes = (
(488,509,l),
(488,656,l),
(531,656,l),
(531,509,l)
);
},
{
closed = 1;
nodes = (
(384,44,l),
(421,239,l),
(464,231,l),
(426,36,l)
);
},
{
closed = 1;
nodes = (
(62,0,l),
(62,43,l),
(384,43,l),
(384,0,l)
);
}
);
width = 551;
},
{
hints = (
{
horizontal = 1;
place = (0, 700);
place = (0, 700);
type = Stem;
},
{
place = (130, 42);
place = (130, 42);
type = Stem;
}
);
layerId = "7844E041-0347-4A22-AC49-F696B23A3360";
shapes = (
{
closed = 1;
nodes = (
(172,657,l),
(172,700,l),
(487,700,l),
(487,657,l)
);
},
{
closed = 1;
nodes = (
(20,52,l),
(130,663,l),
(172,655,l),
(62,44,l)
);
},
{
closed = 1;
nodes = (
(488,509,l),
(488,656,l),
(531,656,l),
(531,509,l)
);
},
{
closed = 1;
nodes = (
(384,44,l),
(421,239,l),
(464,231,l),
(426,36,l)
);
},
{
closed = 1;
nodes = (
(62,0,l),
(62,43,l),
(384,43,l),
(384,0,l)
);
}
);
width = 551;
}
);
note = C.ss02;
},
{
glyphname = D.ss02;
lastChange = "2024-02-25 17:05:27 +0000";
layers = (
{
hints = (
{
horizontal = 1;
place = (455, 36);
place = (455, 36);
type = Stem;
},
{
place = (123, 25);
place = (123, 25);
type = Stem;
},
{
place = (123, 341);
place = (123, 341);
type = Stem;
}
);
layerId = m01;
shapes = (
{
closed = 1;
nodes = (
(124,684,l),
(148,720,l),
(488,491,l),
(464,456,l)
);
},
{
closed = 1;
nodes = (
(80,44,l),
(80,684,l),
(123,684,l),
(123,44,l)
);
},
{
closed = 1;
nodes = (
(464,44,l),
(464,455,l),
(506,455,l),
(506,44,l)
);
},
{
closed = 1;
nodes = (
(124,0,l),
(124,43,l),
(463,43,l),
(463,0,l)
);
}
);
width = 566;
},
{
hints = (
{
horizontal = 1;
place = (455, 36);
place = (455, 36);
type = Stem;
},
{
place = (123, 25);
place = (123, 25);
type = Stem;
},
{
place = (123, 341);
place = (123, 341);
type = Stem;
}
);
layerId = "7844E041-0347-4A22-AC49-F696B23A3360";
shapes = (
{
closed = 1;
nodes = (
(124,684,l),
(148,720,l),
(488,491,l),
(464,456,l)
);
},
{
closed = 1;
nodes = (
(80,44,l),
(80,684,l),
(123,684,l),
(123,44,l)
);
},
{
closed = 1;
nodes = (
(464,44,l),
(464,455,l),
(506,455,l),
(506,44,l)
);
},
{
closed = 1;
nodes = (
(124,0,l),
(124,43,l),
(463,43,l),
(463,0,l)
);
}
);
width = 566;
}
);
note = D.ss02;
},
{
glyphname = E.ss02;
lastChange = "2024-02-25 17:05:27 +0000";
layers = (
{
hints = (
{
horizontal = 1;
place = (0, 700);
place = (0, 700);
type = Stem;
},
{
place = (77, 26);
place = (77, 26);
type = Stem;
},
{
place = (76, 31);
place = (76, 31);
type = Stem;
}
);
layerId = m01;
shapes = (
{
closed = 1;
nodes = (
(147,657,l),
(147,700,l),
(462,700,l),
(462,657,l)
);
},
{
closed = 1;
nodes = (
(103,436,l),
(103,656,l),
(146,656,l),
(146,436,l)
);
},
{
closed = 1;
nodes = (
(70,396,l),
(77,439,l),
(420,377,l),
(413,335,l)
);
},
{
closed = 1;
nodes = (
(70,278,l),
(413,333,l),
(419,290,l),
(76,236,l)
);
},
{
closed = 1;
nodes = (
(107,44,l),
(107,239,l),
(150,239,l),
(150,44,l)
);
},
{
closed = 1;
nodes = (
(151,0,l),
(151,43,l),
(460,43,l),
(460,0,l)
);
}
);
width = 512;
},
{
hints = (
{
horizontal = 1;
place = (0, 700);
place = (0, 700);
type = Stem;
},
{
place = (77, 26);
place = (77, 26);
type = Stem;
},
{
place = (76, 31);
place = (76, 31);
type = Stem;
}
);
layerId = "7844E041-0347-4A22-AC49-F696B23A3360";
shapes = (
{
closed = 1;
nodes = (
(147,657,l),
(147,700,l),
(462,700,l),
(462,657,l)
);
},
{
closed = 1;
nodes = (
(103,436,l),
(103,656,l),
(146,656,l),
(146,436,l)
);
},
{
closed = 1;
nodes = (
(70,396,l),
(77,439,l),
(420,377,l),
(413,335,l)
);
},
{
closed = 1;
nodes = (
(70,278,l),
(413,333,l),
(419,290,l),
(76,236,l)
);
},
{
closed = 1;
nodes = (
(107,44,l),
(107,239,l),
(150,239,l),
(150,44,l)
);
},
{
closed = 1;
nodes = (
(151,0,l),
(151,43,l),
(460,43,l),
(460,0,l)
);
}
);
width = 512;
}
);
note = E.ss02;
},
{
glyphname = F.ss02;
lastChange = "2024-02-25 17:05:27 +0000";
layers = (
{
hints = (
{
horizontal = 1;
place = (398, 259);
place = (398, 259);
type = Stem;
},
{
place = (123, 17);
place = (123, 17);
type = Stem;
}
);
layerId = m01;
shapes = (
{
closed = 1;
nodes = (
(124,657,l),
(124,700,l),
(525,700,l),
(525,657,l)
);
},
{
closed = 1;
nodes = (
(80,0,l),
(80,656,l),
(123,656,l),
(123,0,l)
);
},
{
closed = 1;
nodes = (
(140,355,l),
(140,398,l),
(447,398,l),
(447,355,l)
);
}
);
width = 530;
},
{
hints = (
{
horizontal = 1;
place = (398, 259);
place = (398, 259);
type = Stem;
},
{
place = (123, 17);
place = (123, 17);
type = Stem;
}
);
layerId = "7844E041-0347-4A22-AC49-F696B23A3360";
shapes = (
{
closed = 1;
nodes = (
(124,657,l),
(124,700,l),
(525,700,l),
(525,657,l)
);
},
{
closed = 1;
nodes = (
(80,0,l),
(80,656,l),
(123,656,l),
(123,0,l)
);
},
{
closed = 1;
nodes = (
(140,355,l),
(140,398,l),
(447,398,l),
(447,355,l)
);
}
);
width = 530;
}
);
note = F.ss02;
},
{
glyphname = G.ss02;
lastChange = "2024-02-25 17:05:27 +0000";
layers = (
{
hints = (
{
horizontal = 1;
place = (181, 34);
place = (181, 34);
type = Stem;
},
{
horizontal = 1;
place = (368, 289);
place = (368, 289);
type = Stem;
},
{
place = (251, 34);
place = (251, 34);
type = Stem;
},
{
place = (598, 37);
place = (598, 37);
type = Stem;
},
{
horizontal = 1;
place = (461, 34);
place = (461, 34);
type = Stem;
},
{
place = (93, 264);
place = (93, 264);
type = Stem;
},
{
horizontal = 1;
place = (43, 282);
place = (43, 282);
type = Stem;
},
{
place = (223, 36);
place = (223, 36);
type = Stem;
},
{
horizontal = 1;
place = (198, 127);
place = (198, 127);
type = Stem;
},
{
place = (461, 174);
place = (461, 174);
type = Stem;
}
);
layerId = m01;
shapes = (
{
closed = 1;
nodes = (
(285,657,l),
(285,700,l),
(556,700,l),
(556,657,l)
);
},
{
closed = 1;
nodes = (
(63,495,l),
(251,687,l),
(281,657,l),
(93,465,l)
);
},
{
closed = 1;
nodes = (
(50,215,l),
(50,461,l),
(93,461,l),
(93,215,l)
);
},
{
closed = 1;
nodes = (
(357,325,l),
(357,368,l),
(631,368,l),
(631,325,l)
);
},
{
closed = 1;
nodes = (
(635,0,l),
(635,321,l),
(678,321,l),
(678,0,l)
);
},
{
closed = 1;
nodes = (
(63,181,l),
(94,210,l),
(254,42,l),
(223,13,l)
);
},
{
closed = 1;
nodes = (
(465,42,l),
(598,198,l),
(630,171,l),
(498,14,l)
);
},
{
closed = 1;
nodes = (
(259,0,l),
(259,43,l),
(461,43,l),
(461,0,l)
);
}
);
width = 718;
},
{
hints = (
{
horizontal = 1;
place = (181, 34);
place = (181, 34);
type = Stem;
},
{
horizontal = 1;
place = (368, 289);
place = (368, 289);
type = Stem;
},
{
place = (251, 34);
place = (251, 34);
type = Stem;
},
{
place = (598, 37);
place = (598, 37);
type = Stem;
},
{
horizontal = 1;
place = (461, 34);
place = (461, 34);
type = Stem;
},
{
place = (93, 264);
place = (93, 264);
type = Stem;
},
{
horizontal = 1;
place = (43, 282);
place = (43, 282);
type = Stem;
},
{
place = (223, 36);
place = (223, 36);
type = Stem;
},
{
horizontal = 1;
place = (198, 127);
place = (198, 127);
type = Stem;
},
{
place = (461, 174);
place = (461, 174);
type = Stem;
}
);
layerId = "7844E041-0347-4A22-AC49-F696B23A3360";
shapes = (
{
closed = 1;
nodes = (
(285,657,l),
(285,700,l),
(556,700,l),
(556,657,l)
);
},
{
closed = 1;
nodes = (
(63,495,l),
(251,687,l),
(281,657,l),
(93,465,l)
);
},
{
closed = 1;
nodes = (
(50,215,l),
(50,461,l),
(93,461,l),
(93,215,l)
);
},
{
closed = 1;
nodes = (
(357,325,l),
(357,368,l),
(631,368,l),
(631,325,l)
);
},
{
closed = 1;
nodes = (
(635,0,l),
(635,321,l),
(678,321,l),
(678,0,l)
);
},
{
closed = 1;
nodes = (
(63,181,l),
(94,210,l),
(254,42,l),
(223,13,l)
);
},
{
closed = 1;
nodes = (
(465,42,l),
(598,198,l),
(630,171,l),
(498,14,l)
);
},
{
closed = 1;
nodes = (
(259,0,l),
(259,43,l),
(461,43,l),
(461,0,l)
);
}
);
width = 718;
}
);
note = G.ss02;
},
{
glyphname = H.ss02;
lastChange = "2024-02-25 17:05:27 +0000";
layers = (
{
hints = (
{
horizontal = 1;
place = (289, 62);
place = (289, 62);
type = Stem;
},
{
place = (25, 52);
place = (25, 52);
type = Stem;
},
{
place = (139, 234);
place = (139, 234);
type = Stem;
},
{
place = (416, 74);
place = (416, 74);
type = Stem;
},
{
horizontal = 1;
place = (328, 59);
place = (328, 59);
type = Stem;
},
{
place = (120, 264);
place = (120, 264);
type = Stem;
}
);
layerId = m01;
shapes = (
{
closed = 1;
nodes = (
(96,351,l),
(96,700,l),
(139,700,l),
(139,351,l)
);
},
{
closed = 1;
nodes = (
(373,387,l),
(373,700,l),
(416,700,l),
(416,387,l)
);
},
{
closed = 1;
nodes = (
(20,330,l),
(490,391,l),
(495,348,l),
(25,287,l)
);
},
{
closed = 1;
nodes = (
(384,0,l),
(384,328,l),
(427,328,l),
(427,0,l)
);
},
{
closed = 1;
nodes = (
(77,0,l),
(77,289,l),
(120,289,l),
(120,0,l)
);
}
);
width = 520;
},
{
hints = (
{
horizontal = 1;
place = (289, 62);
place = (289, 62);
type = Stem;
},
{
place = (25, 52);
place = (25, 52);
type = Stem;
},
{
place = (139, 234);
place = (139, 234);
type = Stem;
},
{
place = (416, 74);
place = (416, 74);
type = Stem;
},
{
horizontal = 1;
place = (328, 59);
place = (328, 59);
type = Stem;
},
{
place = (120, 264);
place = (120, 264);
type = Stem;
}
);
layerId = "7844E041-0347-4A22-AC49-F696B23A3360";
shapes = (
{
closed = 1;
nodes = (
(96,351,l),
(96,700,l),
(139,700,l),
(139,351,l)
);
},
{
closed = 1;
nodes = (
(373,387,l),
(373,700,l),
(416,700,l),
(416,387,l)
);
},
{
closed = 1;
nodes = (
(20,330,l),
(490,391,l),
(495,348,l),
(25,287,l)
);
},
{
closed = 1;
nodes = (
(384,0,l),
(384,328,l),
(427,328,l),
(427,0,l)
);
},
{
closed = 1;
nodes = (
(77,0,l),
(77,289,l),
(120,289,l),
(120,0,l)
);
}
);
width = 520;
}
);
note = H.ss02;
},
{
glyphname = I.ss02;
lastChange = "2024-02-25 17:05:27 +0000";
layers = (
{
hints = (
{
horizontal = 1;
place = (43, 11.5);
place = (43, 11.5);
type = Stem;
},
{
horizontal = 1;
place = (646, 11);
place = (646, 11);
type = Stem;
},
{
place = (25, 283);
place = (25, 283);
type = Stem;
}
);
layerId = m01;
shapes = (
{
closed = 1;
nodes = (
(52,657,l),
(52,700,l),
(281,700,l),
(281,657,l)
);
},
{
closed = 1;
nodes = (
(115,57,l),
(175,648,l),
(218,644,l),
(158,52,l)
);
},
{
closed = 1;
nodes = (
(25,0,l),
(25,43,l),
(308,43,l),
(308,0,l)
);
}
);
width = 333;
},
{
hints = (
{
horizontal = 1;
place = (43, 11.5);
place = (43, 11.5);
type = Stem;
},
{
horizontal = 1;
place = (646, 11);
place = (646, 11);
type = Stem;
},
{
place = (25, 283);
place = (25, 283);
type = Stem;
}
);
layerId = "7844E041-0347-4A22-AC49-F696B23A3360";
shapes = (
{
closed = 1;
nodes = (
(52,657,l),
(52,700,l),
(281,700,l),
(281,657,l)
);
},
{
closed = 1;
nodes = (
(115,57,l),
(175,648,l),
(218,644,l),
(158,52,l)
);
},
{
closed = 1;
nodes = (
(25,0,l),
(25,43,l),
(308,43,l),
(308,0,l)
);
}
);
width = 333;
}
);
note = I.ss02;
},
{
glyphname = J.ss02;
lastChange = "2024-02-25 17:05:27 +0000";
layers = (
{
hints = (
{
horizontal = 1;
place = (43, 11);
place = (43, 11);
type = Stem;
},
{
horizontal = 1;
place = (643, 14);
place = (643, 14);
type = Stem;
},
{
place = (85, 39);
place = (85, 39);
type = Stem;
}
);
layerId = m01;
shapes = (
{
closed = 1;
nodes = (
(71,657,l),
(71,700,l),
(383,700,l),
(383,657,l)
);
},
{
closed = 1;
nodes = (
(260,54,l),
(260,643,l),
(303,643,l),
(303,54,l)
);
},
{
closed = 1;
nodes = (
(20,175,l),
(59,192,l),
(124,44,l),
(85,27,l)
);
},
{
closed = 1;
nodes = (
(124,0,l),
(124,43,l),
(310,43,l),
(310,0,l)
);
}
);
width = 398;
},
{
hints = (
{
horizontal = 1;
place = (43, 11);
place = (43, 11);
type = Stem;
},
{
horizontal = 1;
place = (643, 14);
place = (643, 14);
type = Stem;
},
{
place = (85, 39);
place = (85, 39);
type = Stem;
}
);
layerId = "7844E041-0347-4A22-AC49-F696B23A3360";
shapes = (
{
closed = 1;
nodes = (
(71,657,l),
(71,700,l),
(383,700,l),
(383,657,l)
);
},
{
closed = 1;
nodes = (
(260,54,l),
(260,643,l),
(303,643,l),
(303,54,l)
);
},
{
closed = 1;
nodes = (
(20,175,l),
(59,192,l),
(124,44,l),
(85,27,l)
);
},
{
closed = 1;
nodes = (
(124,0,l),
(124,43,l),
(310,43,l),
(310,0,l)
);
}
);
width = 398;
}
);
note = J.ss02;
},
{
glyphname = K.ss02;
lastChange = "2024-02-25 17:05:27 +0000";
layers = (
{
hints = (
{
horizontal = 1;
place = (318, 15);
place = (318, 15);
type = Stem;
},
{
horizontal = 1;
place = (376, 16);
place = (376, 16);
type = Stem;
},
{
place = (130, 283);
place = (130, 283);
type = Stem;
}
);
layerId = m01;
shapes = (
{
closed = 1;
nodes = (
(135,399,l),
(332,742,l),
(368,721,l),
(172,378,l)
);
},
{
closed = 1;
nodes = (
(87,392,l),
(87,700,l),
(130,700,l),
(130,392,l)
);
},
{
closed = 1;
nodes = (
(70,333,l),
(70,376,l),
(412,376,l),
(412,333,l)
);
},
{
closed = 1;
nodes = (
(413,0,l),
(413,332,l),
(456,332,l),
(456,0,l)
);
},
{
closed = 1;
nodes = (
(87,0,l),
(87,318,l),
(130,318,l),
(130,0,l)
);
}
);
width = 516;
},
{
hints = (
{
horizontal = 1;
place = (318, 15);
place = (318, 15);
type = Stem;
},
{
horizontal = 1;
place = (376, 16);
place = (376, 16);
type = Stem;
},
{
place = (130, 283);
place = (130, 283);
type = Stem;
}
);
layerId = "7844E041-0347-4A22-AC49-F696B23A3360";
shapes = (
{
closed = 1;
nodes = (
(135,399,l),
(332,742,l),
(368,721,l),
(172,378,l)
);
},
{
closed = 1;
nodes = (
(87,392,l),
(87,700,l),
(130,700,l),
(130,392,l)
);
},
{
closed = 1;
nodes = (
(70,333,l),
(70,376,l),
(412,376,l),
(412,333,l)
);
},
{
closed = 1;
nodes = (
(413,0,l),
(413,332,l),
(456,332,l),
(456,0,l)
);
},
{
closed = 1;
nodes = (
(87,0,l),
(87,318,l),
(130,318,l),
(130,0,l)
);
}
);
width = 516;
}
);
note = K.ss02;
},
{
glyphname = L.ss02;
kernLeft = A;
lastChange = "2024-02-25 17:05:27 +0000";
layers = (
{
hints = (
{
horizontal = 1;
place = (-12, 747);
place = (-12, 747);
type = Stem;
},
{
place = (20, 460);
place = (20, 460);
type = Stem;
}
);
layerId = m01;
shapes = (
{
closed = 1;
nodes = (
(20,110,l),
(237,735,l),
(278,721,l),
(61,96,l)
);
},
{
closed = 1;
nodes = (
(48,53,l),
(61,95,l),
(280,29,l),
(268,-12,l)
);
},
{
closed = 1;
nodes = (
(281,29,l),
(469,78,l),
(480,37,l),
(292,-12,l)
);
}
);
width = 490;
},
{
hints = (
{
horizontal = 1;
place = (-12, 747);
place = (-12, 747);
type = Stem;
},
{
place = (20, 460);
place = (20, 460);
type = Stem;
}
);
layerId = "7844E041-0347-4A22-AC49-F696B23A3360";
shapes = (
{
closed = 1;
nodes = (
(20,110,l),
(237,735,l),
(278,721,l),
(61,96,l)
);
},
{
closed = 1;
nodes = (
(48,53,l),
(61,95,l),
(280,29,l),
(268,-12,l)
);
},
{
closed = 1;
nodes = (
(281,29,l),
(469,78,l),
(480,37,l),
(292,-12,l)
);
}
);
width = 490;
}
);
note = L.ss02;
},
{
glyphname = M.ss02;
lastChange = "2024-02-25 17:05:27 +0000";
layers = (
{
hints = (
{
horizontal = 1;
place = (0, 739);
place = (0, 739);
type = Stem;
},
{
place = (60, 611);
place = (60, 611);
type = Stem;
}
);
layerId = m01;
shapes = (
{
closed = 1;
nodes = (
(60,7,l),
(170,739,l),
(212,732,l),
(102,0,l)
);
},
{
closed = 1;
nodes = (
(213,732,l),
(255,739,l),
(365,7,l),
(323,0,l)
);
},
{
closed = 1;
nodes = (
(366,7,l),
(476,739,l),
(518,732,l),
(408,0,l)
);
},
{
closed = 1;
nodes = (
(519,732,l),
(561,739,l),
(671,7,l),
(629,0,l)
);
}
);
width = 731;
},
{
hints = (
{
horizontal = 1;
place = (0, 739);
place = (0, 739);
type = Stem;
},
{
place = (60, 611);
place = (60, 611);
type = Stem;
}
);
layerId = "7844E041-0347-4A22-AC49-F696B23A3360";
shapes = (
{
closed = 1;
nodes = (
(60,7,l),
(170,739,l),
(212,732,l),
(102,0,l)
);
},
{
closed = 1;
nodes = (
(213,732,l),
(255,739,l),
(365,7,l),
(323,0,l)
);
},
{
closed = 1;
nodes = (
(366,7,l),
(476,739,l),
(518,732,l),
(408,0,l)
);
},
{
closed = 1;
nodes = (
(519,732,l),
(561,739,l),
(671,7,l),
(629,0,l)
);
}
);
width = 731;
}
);
note = M.ss02;
},
{
glyphname = O.ss02;
lastChange = "2024-02-25 17:05:27 +0000";
layers = (
{
hints = (
{
horizontal = 1;
place = (148, 32);
place = (148, 32);
type = Stem;
},
{
horizontal = 1;
place = (526, 32);
place = (526, 32);
type = Stem;
},
{
place = (213, 30);
place = (213, 30);
type = Stem;
},
{
place = (444, 30);
place = (444, 30);
type = Stem;
},
{
place = (441, 31);
place = (441, 31);
type = Stem;
},
{
place = (103, 140);
place = (103, 140);
type = Stem;
},
{
horizontal = 1;
place = (146, 32);
place = (146, 32);
type = Stem;
},
{
place = (441, 140);
place = (441, 140);
type = Stem;
},
{
place = (212, 31);
place = (212, 31);
type = Stem;
}
);
layerId = m01;
shapes = (
{
closed = 1;
nodes = (
(243,657,l),
(243,700,l),
(441,700,l),
(441,657,l)
);
},
{
closed = 1;
nodes = (
(73,558,l),
(213,688,l),
(242,657,l),
(103,527,l)
);
},
{
closed = 1;
nodes = (
(442,657,l),
(472,688,l),
(610,558,l),
(580,527,l)
);
},
{
closed = 1;
nodes = (
(60,180,l),
(60,526,l),
(103,526,l),
(103,180,l)
);
},
{
closed = 1;
nodes = (
(581,178,l),
(581,526,l),
(624,526,l),
(624,178,l)
);
},
{
closed = 1;
nodes = (
(73,148,l),
(103,179,l),
(242,43,l),
(212,13,l)
);
},
{
closed = 1;
nodes = (
(445,44,l),
(581,177,l),
(611,146,l),
(474,14,l)
);
},
{
closed = 1;
nodes = (
(243,0,l),
(243,43,l),
(444,43,l),
(444,0,l)
);
}
);
width = 684;
},
{
hints = (
{
horizontal = 1;
place = (148, 32);
place = (148, 32);
type = Stem;
},
{
horizontal = 1;
place = (526, 32);
place = (526, 32);
type = Stem;
},
{
place = (213, 30);
place = (213, 30);
type = Stem;
},
{
place = (444, 30);
place = (444, 30);
type = Stem;
},
{
place = (441, 31);
place = (441, 31);
type = Stem;
},
{
place = (103, 140);
place = (103, 140);
type = Stem;
},
{
horizontal = 1;
place = (146, 32);
place = (146, 32);
type = Stem;
},
{
place = (441, 140);
place = (441, 140);
type = Stem;
},
{
place = (212, 31);
place = (212, 31);
type = Stem;
}
);
layerId = "7844E041-0347-4A22-AC49-F696B23A3360";
shapes = (
{
closed = 1;
nodes = (
(243,657,l),
(243,700,l),
(441,700,l),
(441,657,l)
);
},
{
closed = 1;
nodes = (
(73,558,l),
(213,688,l),
(242,657,l),
(103,527,l)
);
},
{
closed = 1;
nodes = (
(442,657,l),
(472,688,l),
(610,558,l),
(580,527,l)
);
},
{
closed = 1;
nodes = (
(60,180,l),
(60,526,l),
(103,526,l),
(103,180,l)
);
},
{
closed = 1;
nodes = (
(581,178,l),
(581,526,l),
(624,526,l),
(624,178,l)
);
},
{
closed = 1;
nodes = (
(73,148,l),
(103,179,l),
(242,43,l),
(212,13,l)
);
},
{
closed = 1;
nodes = (
(445,44,l),
(581,177,l),
(611,146,l),
(474,14,l)
);
},
{
closed = 1;
nodes = (
(243,0,l),
(243,43,l),
(444,43,l),
(444,0,l)
);
}
);
width = 684;
}
);
note = O.ss02;
},
{
glyphname = P.ss02;
lastChange = "2024-02-25 17:05:27 +0000";
layers = (
{
hints = (
{
horizontal = 1;
place = (384, 21);
place = (384, 21);
type = Stem;
},
{
horizontal = 1;
place = (714, -20);
target = down;
type = TopGhost;
},
{
place = (108, 40);
place = (108, 40);
type = Stem;
}
);
layerId = m01;
shapes = (
{
closed = 1;
nodes = (
(314,714,l),
(351,734,l),
(528,405,l),
(490,385,l)
);
},
{
closed = 1;
nodes = (
(109,404,l),
(274,733,l),
(313,714,l),
(147,385,l)
);
},
{
closed = 1;
nodes = (
(65,0,l),
(65,404,l),
(108,404,l),
(108,0,l)
);
},
{
closed = 1;
nodes = (
(148,341,l),
(148,384,l),
(489,384,l),
(489,341,l)
);
}
);
width = 548;
},
{
hints = (
{
horizontal = 1;
place = (384, 21);
place = (384, 21);
type = Stem;
},
{
horizontal = 1;
place = (714, -20);
target = down;
type = TopGhost;
},
{
place = (108, 40);
place = (108, 40);
type = Stem;
}
);
layerId = "7844E041-0347-4A22-AC49-F696B23A3360";
shapes = (
{
closed = 1;
nodes = (
(314,714,l),
(351,734,l),
(528,405,l),
(490,385,l)
);
},
{
closed = 1;
nodes = (
(109,404,l),
(274,733,l),
(313,714,l),
(147,385,l)
);
},
{
closed = 1;
nodes = (
(65,0,l),
(65,404,l),
(108,404,l),
(108,0,l)
);
},
{
closed = 1;
nodes = (
(148,341,l),
(148,384,l),
(489,384,l),
(489,341,l)
);
}
);
width = 548;
}
);
note = P.ss02;
},
{
glyphname = Q.ss02;
lastChange = "2024-02-25 17:05:27 +0000";
layers = (
{
hints = (
{
horizontal = 1;
place = (43, 55);
place = (43, 55);
type = Stem;
},
{
place = (123, 332);
place = (123, 332);
type = Stem;
}
);
layerId = m01;
shapes = (
{
closed = 1;
nodes = (
(124,657,l),
(124,700,l),
(454,700,l),
(454,657,l)
);
},
{
closed = 1;
nodes = (
(80,44,l),
(80,656,l),
(123,656,l),
(123,44,l)
);
},
{
closed = 1;
nodes = (
(455,98,l),
(455,656,l),
(498,656,l),
(498,98,l)
);
},
{
closed = 1;
nodes = (
(266,118,l),
(280,158,l),
(673,20,l),
(659,-20,l)
);
},
{
closed = 1;
nodes = (
(124,0,l),
(124,43,l),
(476,43,l),
(476,0,l)
);
}
);
width = 648;
},
{
hints = (
{
horizontal = 1;
place = (43, 55);
place = (43, 55);
type = Stem;
},
{
place = (123, 332);
place = (123, 332);
type = Stem;
}
);
layerId = "7844E041-0347-4A22-AC49-F696B23A3360";
shapes = (
{
closed = 1;
nodes = (
(124,657,l),
(124,700,l),
(454,700,l),
(454,657,l)
);
},
{
closed = 1;
nodes = (
(80,44,l),
(80,656,l),
(123,656,l),
(123,44,l)
);
},
{
closed = 1;
nodes = (
(455,98,l),
(455,656,l),
(498,656,l),
(498,98,l)
);
},
{
closed = 1;
nodes = (
(266,118,l),
(280,158,l),
(673,20,l),
(659,-20,l)
);
},
{
closed = 1;
nodes = (
(124,0,l),
(124,43,l),
(476,43,l),
(476,0,l)
);
}
);
width = 648;
}
);
note = Q.ss02;
},
{
glyphname = R.ss02;
lastChange = "2024-02-25 17:05:27 +0000";
layers = (
{
hints = (
{
horizontal = 1;
place = (694, 11);
place = (694, 11);
type = Stem;
},
{
place = (123, 30);
place = (123, 30);
type = Stem;
}
);
layerId = m01;
shapes = (
{
closed = 1;
nodes = (
(111,705,l),
(139,738,l),
(431,485,l),
(403,452,l)
);
},
{
closed = 1;
nodes = (
(80,0,l),
(80,694,l),
(123,694,l),
(123,0,l)
);
},
{
closed = 1;
nodes = (
(124,196,l),
(402,451,l),
(431,420,l),
(153,165,l)
);
},
{
closed = 1;
nodes = (
(218,206,l),
(248,237,l),
(468,22,l),
(438,-8,l)
);
}
);
width = 488;
},
{
hints = (
{
horizontal = 1;
place = (694, 11);
place = (694, 11);
type = Stem;
},
{
place = (123, 30);
place = (123, 30);
type = Stem;
}
);
layerId = "7844E041-0347-4A22-AC49-F696B23A3360";
shapes = (
{
closed = 1;
nodes = (
(111,705,l),
(139,738,l),
(431,485,l),
(403,452,l)
);
},
{
closed = 1;
nodes = (
(80,0,l),
(80,694,l),
(123,694,l),
(123,0,l)
);
},
{
closed = 1;
nodes = (
(124,196,l),
(402,451,l),
(431,420,l),
(153,165,l)
);
},
{
closed = 1;
nodes = (
(218,206,l),
(248,237,l),
(468,22,l),
(438,-8,l)
);
}
);
width = 488;
}
);
note = R.ss02;
},
{
glyphname = S.ss02;
kernRight = S.ss02;
lastChange = "2024-02-25 17:05:27 +0000";
layers = (
{
hints = (
{
horizontal = 1;
place = (43, 36);
place = (43, 36);
type = Stem;
},
{
horizontal = 1;
place = (294, 37);
place = (294, 37);
type = Stem;
},
{
horizontal = 1;
place = (374, 37);
place = (374, 37);
type = Stem;
},
{
horizontal = 1;
place = (622, 35);
place = (622, 35);
type = Stem;
},
{
place = (5, 822);
place = (5, 822);
type = Stem;
}
);
layerId = m01;
shapes = (
{
closed = 1;
nodes = (
(336,657,l),
(336,700,l),
(827,700,l),
(827,657,l)
);
},
{
closed = 1;
nodes = (
(311,622,l),
(335,657,l),
(707,411,l),
(683,375,l)
);
},
{
closed = 1;
nodes = (
(185,331,l),
(185,374,l),
(683,374,l),
(683,331,l)
);
},
{
closed = 1;
nodes = (
(161,294,l),
(185,330,l),
(553,79,l),
(529,43,l)
);
},
{
closed = 1;
nodes = (
(5,0,l),
(5,43,l),
(528,43,l),
(528,0,l)
);
}
);
width = 832;
},
{
hints = (
{
horizontal = 1;
place = (43, 36);
place = (43, 36);
type = Stem;
},
{
horizontal = 1;
place = (294, 37);
place = (294, 37);
type = Stem;
},
{
horizontal = 1;
place = (374, 37);
place = (374, 37);
type = Stem;
},
{
horizontal = 1;
place = (622, 35);
place = (622, 35);
type = Stem;
},
{
place = (5, 822);
place = (5, 822);
type = Stem;
}
);
layerId = "7844E041-0347-4A22-AC49-F696B23A3360";
shapes = (
{
closed = 1;
nodes = (
(336,657,l),
(336,700,l),
(827,700,l),
(827,657,l)
);
},
{
closed = 1;
nodes = (
(311,622,l),
(335,657,l),
(707,411,l),
(683,375,l)
);
},
{
closed = 1;
nodes = (
(185,331,l),
(185,374,l),
(683,374,l),
(683,331,l)
);
},
{
closed = 1;
nodes = (
(161,294,l),
(185,330,l),
(553,79,l),
(529,43,l)
);
},
{
closed = 1;
nodes = (
(5,0,l),
(5,43,l),
(528,43,l),
(528,0,l)
);
}
);
width = 832;
}
);
note = S.ss02;
},
{
glyphname = T.ss02;
kernRight = T;
lastChange = "2024-02-25 17:05:27 +0000";
layers = (
{
hints = (
{
horizontal = 1;
place = (642, 15);
place = (642, 15);
type = Stem;
},
{
place = (5, 579);
place = (5, 579);
type = Stem;
}
);
layerId = m01;
shapes = (
{
closed = 1;
nodes = (
(5,657,l),
(5,700,l),
(584,700,l),
(584,657,l)
);
},
{
closed = 1;
nodes = (
(113,2,l),
(341,656,l),
(381,642,l),
(153,-12,l)
);
}
);
width = 589;
},
{
hints = (
{
horizontal = 1;
place = (642, 15);
place = (642, 15);
type = Stem;
},
{
place = (5, 579);
place = (5, 579);
type = Stem;
}
);
layerId = "7844E041-0347-4A22-AC49-F696B23A3360";
shapes = (
{
closed = 1;
nodes = (
(5,657,l),
(5,700,l),
(584,700,l),
(584,657,l)
);
},
{
closed = 1;
nodes = (
(113,2,l),
(341,656,l),
(381,642,l),
(153,-12,l)
);
}
);
width = 589;
}
);
note = T.ss02;
},
{
glyphname = a;
kernLeft = a;
lastChange = "2024-02-25 17:05:27 +0000";
layers = (
{
hints = (
{
horizontal = 1;
place = (196, 162);
place = (196, 162);
type = Stem;
},
{
place = (405, 21);
place = (405, 21);
type = Stem;
},
{
horizontal = 1;
place = (317, 41);
place = (317, 41);
type = Stem;
},
{
horizontal = 1;
place = (290, 68);
place = (290, 68);
type = Stem;
},
{
place = (116, 33);
place = (116, 33);
type = Stem;
}
);
layerId = m01;
shapes = (
{
closed = 1;
nodes = (
(30,358,l),
(30,400,l),
(425,400,l),
(425,358,l)
);
},
{
closed = 1;
nodes = (
(101,239,l),
(405,357,l),
(421,317,l),
(117,199,l)
);
},
{
closed = 1;
nodes = (
(426,0,l),
(426,357,l),
(468,357,l),
(468,0,l)
);
},
{
closed = 1;
nodes = (
(119,19,l),
(395,290,l),
(425,260,l),
(149,-12,l)
);
},
{
closed = 1;
nodes = (
(73,21,l),
(73,196,l),
(116,196,l),
(116,21,l)
);
}
);
width = 518;
},
{
hints = (
{
horizontal = 1;
place = (196, 162);
place = (196, 162);
type = Stem;
},
{
place = (405, 21);
place = (405, 21);
type = Stem;
},
{
horizontal = 1;
place = (317, 41);
place = (317, 41);
type = Stem;
},
{
horizontal = 1;
place = (290, 68);
place = (290, 68);
type = Stem;
},
{
place = (116, 33);
place = (116, 33);
type = Stem;
}
);
layerId = "7844E041-0347-4A22-AC49-F696B23A3360";
shapes = (
{
closed = 1;
nodes = (
(30,358,l),
(30,400,l),
(425,400,l),
(425,358,l)
);
},
{
closed = 1;
nodes = (
(101,239,l),
(405,357,l),
(421,317,l),
(117,199,l)
);
},
{
closed = 1;
nodes = (
(426,0,l),
(426,357,l),
(468,357,l),
(468,0,l)
);
},
{
closed = 1;
nodes = (
(119,19,l),
(395,290,l),
(425,260,l),
(149,-12,l)
);
},
{
closed = 1;
nodes = (
(73,21,l),
(73,196,l),
(116,196,l),
(116,21,l)
);
}
);
width = 518;
}
);
note = a;
unicode = 97;
},
{
glyphname = aacute;
lastChange = "2024-02-25 17:05:27 +0000";
layers = (
{
hints = (
{
horizontal = 1;
place = (196, 162);
place = (196, 162);
type = Stem;
},
{
horizontal = 1;
place = (400, 100);
place = (400, 100);
type = Stem;
},
{
place = (405, 21);
place = (405, 21);
type = Stem;
},
{
horizontal = 1;
place = (317, 41);
place = (317, 41);
type = Stem;
},
{
horizontal = 1;
place = (290, 68);
place = (290, 68);
type = Stem;
},
{
place = (116, 33);
place = (116, 33);
type = Stem;
}
);
layerId = m01;
shapes = (
{
closed = 1;
nodes = (
(138,533,l),
(346,707,l),
(373,675,l),
(165,500,l)
);
},
{
closed = 1;
nodes = (
(30,358,l),
(30,400,l),
(425,400,l),
(425,358,l)
);
},
{
closed = 1;
nodes = (
(101,239,l),
(405,357,l),
(421,317,l),
(117,199,l)
);
},
{
closed = 1;
nodes = (
(426,0,l),
(426,357,l),
(468,357,l),
(468,0,l)
);
},
{
closed = 1;
nodes = (
(119,19,l),
(395,290,l),
(425,260,l),
(149,-12,l)
);
},
{
closed = 1;
nodes = (
(73,21,l),
(73,196,l),
(116,196,l),
(116,21,l)
);
}
);
width = 518;
},
{
hints = (
{
horizontal = 1;
place = (196, 162);
place = (196, 162);
type = Stem;
},
{
horizontal = 1;
place = (400, 100);
place = (400, 100);
type = Stem;
},
{
place = (405, 21);
place = (405, 21);
type = Stem;
},
{
horizontal = 1;
place = (317, 41);
place = (317, 41);
type = Stem;
},
{
horizontal = 1;
place = (290, 68);
place = (290, 68);
type = Stem;
},
{
place = (116, 33);
place = (116, 33);
type = Stem;
}
);
layerId = "7844E041-0347-4A22-AC49-F696B23A3360";
shapes = (
{
closed = 1;
nodes = (
(138,533,l),
(346,707,l),
(373,675,l),
(165,500,l)
);
},
{
closed = 1;
nodes = (
(30,358,l),
(30,400,l),
(425,400,l),
(425,358,l)
);
},
{
closed = 1;
nodes = (
(101,239,l),
(405,357,l),
(421,317,l),
(117,199,l)
);
},
{
closed = 1;
nodes = (
(426,0,l),
(426,357,l),
(468,357,l),
(468,0,l)
);
},
{
closed = 1;
nodes = (
(119,19,l),
(395,290,l),
(425,260,l),
(149,-12,l)
);
},
{
closed = 1;
nodes = (
(73,21,l),
(73,196,l),
(116,196,l),
(116,21,l)
);
}
);
width = 518;
}
);
note = aacute;
unicode = 225;
},
{
glyphname = acircumflex;
lastChange = "2024-02-25 17:05:27 +0000";
layers = (
{
hints = (
{
horizontal = 1;
place = (196, 162);
place = (196, 162);
type = Stem;
},
{
horizontal = 1;
place = (400, 100);
place = (400, 100);
type = Stem;
},
{
place = (405, 21);
place = (405, 21);
type = Stem;
},
{
horizontal = 1;
place = (317, 41);
place = (317, 41);
type = Stem;
},
{
horizontal = 1;
place = (290, 68);
place = (290, 68);
type = Stem;
},
{
place = (116, 33);
place = (116, 33);
type = Stem;
}
);
layerId = m01;
shapes = (
{
closed = 1;
nodes = (
(123,521,l),
(215,695,l),
(253,675,l),
(161,500,l)
);
},
{
closed = 1;
nodes = (
(257,675,l),
(295,695,l),
(388,521,l),
(350,500,l)
);
},
{
closed = 1;
nodes = (
(30,358,l),
(30,400,l),
(425,400,l),
(425,358,l)
);
},
{
closed = 1;
nodes = (
(101,239,l),
(405,357,l),
(421,317,l),
(117,199,l)
);
},
{
closed = 1;
nodes = (
(426,0,l),
(426,357,l),
(468,357,l),
(468,0,l)
);
},
{
closed = 1;
nodes = (
(119,19,l),
(395,290,l),
(425,260,l),
(149,-12,l)
);
},
{
closed = 1;
nodes = (
(73,21,l),
(73,196,l),
(116,196,l),
(116,21,l)
);
}
);
width = 518;
},
{
hints = (
{
horizontal = 1;
place = (196, 162);
place = (196, 162);
type = Stem;
},
{
horizontal = 1;
place = (400, 100);
place = (400, 100);
type = Stem;
},
{
place = (405, 21);
place = (405, 21);
type = Stem;
},
{
horizontal = 1;
place = (317, 41);
place = (317, 41);
type = Stem;
},
{
horizontal = 1;
place = (290, 68);
place = (290, 68);
type = Stem;
},
{
place = (116, 33);
place = (116, 33);
type = Stem;
}
);
layerId = "7844E041-0347-4A22-AC49-F696B23A3360";
shapes = (
{
closed = 1;
nodes = (
(123,521,l),
(215,695,l),
(253,675,l),
(161,500,l)
);
},
{
closed = 1;
nodes = (
(257,675,l),
(295,695,l),
(388,521,l),
(350,500,l)
);
},
{
closed = 1;
nodes = (
(30,358,l),
(30,400,l),
(425,400,l),
(425,358,l)
);
},
{
closed = 1;
nodes = (
(101,239,l),
(405,357,l),
(421,317,l),
(117,199,l)
);
},
{
closed = 1;
nodes = (
(426,0,l),
(426,357,l),
(468,357,l),
(468,0,l)
);
},
{
closed = 1;
nodes = (
(119,19,l),
(395,290,l),
(425,260,l),
(149,-12,l)
);
},
{
closed = 1;
nodes = (
(73,21,l),
(73,196,l),
(116,196,l),
(116,21,l)
);
}
);
width = 518;
}
);
note = acircumflex;
unicode = 226;
},
{
glyphname = adieresis;
lastChange = "2024-02-25 17:05:27 +0000";
layers = (
{
hints = (
{
horizontal = 1;
place = (196, 162);
place = (196, 162);
type = Stem;
},
{
horizontal = 1;
place = (400, 100);
place = (400, 100);
type = Stem;
},
{
horizontal = 1;
place = (543, 21);
place = (543, 21);
type = Stem;
},
{
place = (116, 33);
place = (116, 33);
type = Stem;
},
{
place = (209, 95);
place = (209, 95);
type = Stem;
},
{
place = (405, 21);
place = (405, 21);
type = Stem;
},
{
horizontal = 1;
place = (317, 41);
place = (317, 41);
type = Stem;
},
{
horizontal = 1;
place = (290, 68);
place = (290, 68);
type = Stem;
}
);
layerId = m01;
shapes = (
{
closed = 1;
nodes = (
(64,564,l),
(117,663,l),
(155,642,l),
(102,543,l)
);
},
{
closed = 1;
nodes = (
(159,642,l),
(197,663,l),
(250,564,l),
(212,543,l)
);
},
{
closed = 1;
nodes = (
(263,564,l),
(316,663,l),
(354,642,l),
(301,543,l)
);
},
{
closed = 1;
nodes = (
(358,642,l),
(396,663,l),
(449,564,l),
(411,543,l)
);
},
{
closed = 1;
nodes = (
(105,500,l),
(105,543,l),
(209,543,l),
(209,500,l)
);
},
{
closed = 1;
nodes = (
(304,500,l),
(304,543,l),
(408,543,l),
(408,500,l)
);
},
{
closed = 1;
nodes = (
(30,358,l),
(30,400,l),
(425,400,l),
(425,358,l)
);
},
{
closed = 1;
nodes = (
(101,239,l),
(405,357,l),
(421,317,l),
(117,199,l)
);
},
{
closed = 1;
nodes = (
(426,0,l),
(426,357,l),
(468,357,l),
(468,0,l)
);
},
{
closed = 1;
nodes = (
(119,19,l),
(395,290,l),
(425,260,l),
(149,-12,l)
);
},
{
closed = 1;
nodes = (
(73,21,l),
(73,196,l),
(116,196,l),
(116,21,l)
);
}
);
width = 518;
},
{
hints = (
{
horizontal = 1;
place = (196, 162);
place = (196, 162);
type = Stem;
},
{
horizontal = 1;
place = (400, 100);
place = (400, 100);
type = Stem;
},
{
horizontal = 1;
place = (543, 21);
place = (543, 21);
type = Stem;
},
{
place = (116, 33);
place = (116, 33);
type = Stem;
},
{
place = (209, 95);
place = (209, 95);
type = Stem;
},
{
place = (405, 21);
place = (405, 21);
type = Stem;
},
{
horizontal = 1;
place = (317, 41);
place = (317, 41);
type = Stem;
},
{
horizontal = 1;
place = (290, 68);
place = (290, 68);
type = Stem;
}
);
layerId = "7844E041-0347-4A22-AC49-F696B23A3360";
shapes = (
{
closed = 1;
nodes = (
(64,564,l),
(117,663,l),
(155,642,l),
(102,543,l)
);
},
{
closed = 1;
nodes = (
(159,642,l),
(197,663,l),
(250,564,l),
(212,543,l)
);
},
{
closed = 1;
nodes = (
(263,564,l),
(316,663,l),
(354,642,l),
(301,543,l)
);
},
{
closed = 1;
nodes = (
(358,642,l),
(396,663,l),
(449,564,l),
(411,543,l)
);
},
{
closed = 1;
nodes = (
(105,500,l),
(105,543,l),
(209,543,l),
(209,500,l)
);
},
{
closed = 1;
nodes = (
(304,500,l),
(304,543,l),
(408,543,l),
(408,500,l)
);
},
{
closed = 1;
nodes = (
(30,358,l),
(30,400,l),
(425,400,l),
(425,358,l)
);
},
{
closed = 1;
nodes = (
(101,239,l),
(405,357,l),
(421,317,l),
(117,199,l)
);
},
{
closed = 1;
nodes = (
(426,0,l),
(426,357,l),
(468,357,l),
(468,0,l)
);
},
{
closed = 1;
nodes = (
(119,19,l),
(395,290,l),
(425,260,l),
(149,-12,l)
);
},
{
closed = 1;
nodes = (
(73,21,l),
(73,196,l),
(116,196,l),
(116,21,l)
);
}
);
width = 518;
}
);
note = adieresis;
unicode = 228;
},
{
glyphname = agrave;
lastChange = "2024-02-25 17:05:27 +0000";
layers = (
{
hints = (
{
horizontal = 1;
place = (196, 162);
place = (196, 162);
type = Stem;
},
{
horizontal = 1;
place = (400, 100);
place = (400, 100);
type = Stem;
},
{
place = (405, 21);
place = (405, 21);
type = Stem;
},
{
horizontal = 1;
place = (317, 41);
place = (317, 41);
type = Stem;
},
{
horizontal = 1;
place = (290, 68);
place = (290, 68);
type = Stem;
},
{
place = (116, 33);
place = (116, 33);
type = Stem;
}
);
layerId = m01;
shapes = (
{
closed = 1;
nodes = (
(138,674,l),
(166,707,l),
(374,533,l),
(347,500,l)
);
},
{
closed = 1;
nodes = (
(30,358,l),
(30,400,l),
(425,400,l),
(425,358,l)
);
},
{
closed = 1;
nodes = (
(101,239,l),
(405,357,l),
(421,317,l),
(117,199,l)
);
},
{
closed = 1;
nodes = (
(426,0,l),
(426,357,l),
(468,357,l),
(468,0,l)
);
},
{
closed = 1;
nodes = (
(119,19,l),
(395,290,l),
(425,260,l),
(149,-12,l)
);
},
{
closed = 1;
nodes = (
(73,21,l),
(73,196,l),
(116,196,l),
(116,21,l)
);
}
);
width = 518;
},
{
hints = (
{
horizontal = 1;
place = (196, 162);
place = (196, 162);
type = Stem;
},
{
horizontal = 1;
place = (400, 100);
place = (400, 100);
type = Stem;
},
{
place = (405, 21);
place = (405, 21);
type = Stem;
},
{
horizontal = 1;
place = (317, 41);
place = (317, 41);
type = Stem;
},
{
horizontal = 1;
place = (290, 68);
place = (290, 68);
type = Stem;
},
{
place = (116, 33);
place = (116, 33);
type = Stem;
}
);
layerId = "7844E041-0347-4A22-AC49-F696B23A3360";
shapes = (
{
closed = 1;
nodes = (
(138,674,l),
(166,707,l),
(374,533,l),
(347,500,l)
);
},
{
closed = 1;
nodes = (
(30,358,l),
(30,400,l),
(425,400,l),
(425,358,l)
);
},
{
closed = 1;
nodes = (
(101,239,l),
(405,357,l),
(421,317,l),
(117,199,l)
);
},
{
closed = 1;
nodes = (
(426,0,l),
(426,357,l),
(468,357,l),
(468,0,l)
);
},
{
closed = 1;
nodes = (
(119,19,l),
(395,290,l),
(425,260,l),
(149,-12,l)
);
},
{
closed = 1;
nodes = (
(73,21,l),
(73,196,l),
(116,196,l),
(116,21,l)
);
}
);
width = 518;
}
);
note = agrave;
unicode = 224;
},
{
glyphname = aring;
lastChange = "2024-02-25 17:05:27 +0000";
layers = (
{
hints = (
{
horizontal = 1;
place = (196, 162);
place = (196, 162);
type = Stem;
},
{
horizontal = 1;
place = (400, 100);
place = (400, 100);
type = Stem;
},
{
horizontal = 1;
place = (543, 116);
place = (543, 116);
type = Stem;
},
{
place = (197, 117);
place = (197, 117);
type = Stem;
},
{
place = (405, 21);
place = (405, 21);
type = Stem;
},
{
horizontal = 1;
place = (400, 147);
place = (400, 147);
type = Stem;
},
{
horizontal = 1;
place = (317, 41);
place = (317, 41);
type = Stem;
},
{
horizontal = 1;
place = (290, 68);
place = (290, 68);
type = Stem;
},
{
place = (116, 33);
place = (116, 33);
type = Stem;
}
);
layerId = m01;
shapes = (
{
closed = 1;
nodes = (
(201,659,l),
(201,702,l),
(310,702,l),
(310,659,l)
);
},
{
closed = 1;
nodes = (
(154,547,l),
(154,655,l),
(197,655,l),
(197,547,l)
);
},
{
closed = 1;
nodes = (
(314,547,l),
(314,655,l),
(357,655,l),
(357,547,l)
);
},
{
closed = 1;
nodes = (
(201,500,l),
(201,543,l),
(310,543,l),
(310,500,l)
);
},
{
closed = 1;
nodes = (
(30,358,l),
(30,400,l),
(425,400,l),
(425,358,l)
);
},
{
closed = 1;
nodes = (
(101,239,l),
(405,357,l),
(421,317,l),
(117,199,l)
);
},
{
closed = 1;
nodes = (
(426,0,l),
(426,357,l),
(468,357,l),
(468,0,l)
);
},
{
closed = 1;
nodes = (
(119,19,l),
(395,290,l),
(425,260,l),
(149,-12,l)
);
},
{
closed = 1;
nodes = (
(73,21,l),
(73,196,l),
(116,196,l),
(116,21,l)
);
}
);
width = 518;
},
{
hints = (
{
horizontal = 1;
place = (196, 162);
place = (196, 162);
type = Stem;
},
{
horizontal = 1;
place = (400, 100);
place = (400, 100);
type = Stem;
},
{
horizontal = 1;
place = (543, 116);
place = (543, 116);
type = Stem;
},
{
place = (197, 117);
place = (197, 117);
type = Stem;
},
{
place = (405, 21);
place = (405, 21);
type = Stem;
},
{
horizontal = 1;
place = (400, 147);
place = (400, 147);
type = Stem;
},
{
horizontal = 1;
place = (317, 41);
place = (317, 41);
type = Stem;
},
{
horizontal = 1;
place = (290, 68);
place = (290, 68);
type = Stem;
},
{
place = (116, 33);
place = (116, 33);
type = Stem;
}
);
layerId = "7844E041-0347-4A22-AC49-F696B23A3360";
shapes = (
{
closed = 1;
nodes = (
(201,659,l),
(201,702,l),
(310,702,l),
(310,659,l)
);
},
{
closed = 1;
nodes = (
(154,547,l),
(154,655,l),
(197,655,l),
(197,547,l)
);
},
{
closed = 1;
nodes = (
(314,547,l),
(314,655,l),
(357,655,l),
(357,547,l)
);
},
{
closed = 1;
nodes = (
(201,500,l),
(201,543,l),
(310,543,l),
(310,500,l)
);
},
{
closed = 1;
nodes = (
(30,358,l),
(30,400,l),
(425,400,l),
(425,358,l)
);
},
{
closed = 1;
nodes = (
(101,239,l),
(405,357,l),
(421,317,l),
(117,199,l)
);
},
{
closed = 1;
nodes = (
(426,0,l),
(426,357,l),
(468,357,l),
(468,0,l)
);
},
{
closed = 1;
nodes = (
(119,19,l),
(395,290,l),
(425,260,l),
(149,-12,l)
);
},
{
closed = 1;
nodes = (
(73,21,l),
(73,196,l),
(116,196,l),
(116,21,l)
);
}
);
width = 518;
}
);
note = aring;
unicode = 229;
},
{
glyphname = atilde;
lastChange = "2024-02-25 17:05:27 +0000";
layers = (
{
hints = (
{
horizontal = 1;
place = (196, 162);
place = (196, 162);
type = Stem;
},
{
horizontal = 1;
place = (400, 100);
place = (400, 100);
type = Stem;
},
{
place = (405, 21);
place = (405, 21);
type = Stem;
},
{
horizontal = 1;
place = (400, 130);
place = (400, 130);
type = Stem;
},
{
horizontal = 1;
place = (400, 108);
place = (400, 108);
type = Stem;
},
{
horizontal = 1;
place = (317, 41);
place = (317, 41);
type = Stem;
},
{
horizontal = 1;
place = (290, 68);
place = (290, 68);
type = Stem;
},
{
place = (116, 33);
place = (116, 33);
type = Stem;
}
);
layerId = m01;
shapes = (
{
closed = 1;
nodes = (
(142,625,l),
(165,662,l),
(369,536,l),
(347,500,l)
);
},
{
closed = 1;
nodes = (
(373,540,l),
(399,653,l),
(441,643,l),
(414,530,l)
);
},
{
closed = 1;
nodes = (
(71,518,l),
(97,631,l),
(139,621,l),
(113,508,l)
);
},
{
closed = 1;
nodes = (
(30,358,l),
(30,400,l),
(425,400,l),
(425,358,l)
);
},
{
closed = 1;
nodes = (
(101,239,l),
(405,357,l),
(421,317,l),
(117,199,l)
);
},
{
closed = 1;
nodes = (
(426,0,l),
(426,357,l),
(468,357,l),
(468,0,l)
);
},
{
closed = 1;
nodes = (
(119,19,l),
(395,290,l),
(425,260,l),
(149,-12,l)
);
},
{
closed = 1;
nodes = (
(73,21,l),
(73,196,l),
(116,196,l),
(116,21,l)
);
}
);
width = 518;
},
{
hints = (
{
horizontal = 1;
place = (196, 162);
place = (196, 162);
type = Stem;
},
{
horizontal = 1;
place = (400, 100);
place = (400, 100);
type = Stem;
},
{
place = (405, 21);
place = (405, 21);
type = Stem;
},
{
horizontal = 1;
place = (400, 130);
place = (400, 130);
type = Stem;
},
{
horizontal = 1;
place = (400, 108);
place = (400, 108);
type = Stem;
},
{
horizontal = 1;
place = (317, 41);
place = (317, 41);
type = Stem;
},
{
horizontal = 1;
place = (290, 68);
place = (290, 68);
type = Stem;
},
{
place = (116, 33);
place = (116, 33);
type = Stem;
}
);
layerId = "7844E041-0347-4A22-AC49-F696B23A3360";
shapes = (
{
closed = 1;
nodes = (
(142,625,l),
(165,662,l),
(369,536,l),
(347,500,l)
);
},
{
closed = 1;
nodes = (
(373,540,l),
(399,653,l),
(441,643,l),
(414,530,l)
);
},
{
closed = 1;
nodes = (
(71,518,l),
(97,631,l),
(139,621,l),
(113,508,l)
);
},
{
closed = 1;
nodes = (
(30,358,l),
(30,400,l),
(425,400,l),
(425,358,l)
);
},
{
closed = 1;
nodes = (
(101,239,l),
(405,357,l),
(421,317,l),
(117,199,l)
);
},
{
closed = 1;
nodes = (
(426,0,l),
(426,357,l),
(468,357,l),
(468,0,l)
);
},
{
closed = 1;
nodes = (
(119,19,l),
(395,290,l),
(425,260,l),
(149,-12,l)
);
},
{
closed = 1;
nodes = (
(73,21,l),
(73,196,l),
(116,196,l),
(116,21,l)
);
}
);
width = 518;
}
);
note = atilde;
unicode = 227;
},
{
glyphname = ae;
lastChange = "2024-02-25 17:05:27 +0000";
layers = (
{
hints = (
{
horizontal = 1;
place = (43, 149);
place = (43, 149);
type = Stem;
},
{
horizontal = 1;
place = (235, 123);
place = (235, 123);
type = Stem;
},
{
place = (344, 22);
place = (344, 22);
type = Stem;
},
{
place = (408, 12);
place = (408, 12);
type = Stem;
},
{
horizontal = 1;
place = (235, 21);
place = (235, 21);
type = Stem;
},
{
horizontal = 1;
place = (257, 101);
place = (257, 101);
type = Stem;
},
{
horizontal = 1;
place = (313, 45);
place = (313, 45);
type = Stem;
},
{
place = (114, 252);
place = (114, 252);
type = Stem;
},
{
horizontal = 1;
place = (214, 144);
place = (214, 144);
type = Stem;
}
);
layerId = m01;
shapes = (
{
closed = 1;
nodes = (
(537,362,l),
(555,401,l),
(832,272,l),
(814,233,l)
);
},
{
closed = 1;
nodes = (
(30,358,l),
(30,400,l),
(365,400,l),
(365,358,l)
);
},
{
closed = 1;
nodes = (
(411,285,l),
(507,387,l),
(538,358,l),
(442,256,l)
);
},
{
closed = 1;
nodes = (
(366,45,l),
(366,356,l),
(408,356,l),
(408,45,l)
);
},
{
closed = 1;
nodes = (
(99,257,l),
(344,353,l),
(360,313,l),
(115,217,l)
);
},
{
closed = 1;
nodes = (
(420,192,l),
(420,235,l),
(797,235,l),
(797,192,l)
);
},
{
closed = 1;
nodes = (
(117,19,l),
(330,228,l),
(360,198,l),
(147,-12,l)
);
},
{
closed = 1;
nodes = (
(71,21,l),
(71,214,l),
(114,214,l),
(114,21,l)
);
},
{
closed = 1;
nodes = (
(410,0,l),
(410,43,l),
(694,43,l),
(694,0,l)
);
}
);
width = 842;
},
{
hints = (
{
horizontal = 1;
place = (43, 149);
place = (43, 149);
type = Stem;
},
{
horizontal = 1;
place = (235, 123);
place = (235, 123);
type = Stem;
},
{
place = (344, 22);
place = (344, 22);
type = Stem;
},
{
place = (408, 12);
place = (408, 12);
type = Stem;
},
{
horizontal = 1;
place = (235, 21);
place = (235, 21);
type = Stem;
},
{
horizontal = 1;
place = (257, 101);
place = (257, 101);
type = Stem;
},
{
horizontal = 1;
place = (313, 45);
place = (313, 45);
type = Stem;
},
{
place = (114, 252);
place = (114, 252);
type = Stem;
},
{
horizontal = 1;
place = (214, 144);
place = (214, 144);
type = Stem;
}
);
layerId = "7844E041-0347-4A22-AC49-F696B23A3360";
shapes = (
{
closed = 1;
nodes = (
(537,362,l),
(555,401,l),
(832,272,l),
(814,233,l)
);
},
{
closed = 1;
nodes = (
(30,358,l),
(30,400,l),
(365,400,l),
(365,358,l)
);
},
{
closed = 1;
nodes = (
(411,285,l),
(507,387,l),
(538,358,l),
(442,256,l)
);
},
{
closed = 1;
nodes = (
(366,45,l),
(366,356,l),
(408,356,l),
(408,45,l)
);
},
{
closed = 1;
nodes = (
(99,257,l),
(344,353,l),
(360,313,l),
(115,217,l)
);
},
{
closed = 1;
nodes = (
(420,192,l),
(420,235,l),
(797,235,l),
(797,192,l)
);
},
{
closed = 1;
nodes = (
(117,19,l),
(330,228,l),
(360,198,l),
(147,-12,l)
);
},
{
closed = 1;
nodes = (
(71,21,l),
(71,214,l),
(114,214,l),
(114,21,l)
);
},
{
closed = 1;
nodes = (
(410,0,l),
(410,43,l),
(694,43,l),
(694,0,l)
);
}
);
width = 842;
}
);
note = ae;
unicode = 230;
},
{
glyphname = b;
lastChange = "2024-02-25 17:05:27 +0000";
layers = (
{
hints = (
{
horizontal = 1;
place = (276, 34);
place = (276, 34);
type = Stem;
},
{
place = (113, 14);
place = (113, 14);
type = Stem;
}
);
layerId = m01;
shapes = (
{
closed = 1;
nodes = (
(70,700,l),
(113,700,l),
(113,0,l),
(70,0,l)
);
},
{
closed = 1;
nodes = (
(127,353,l),
(441,353,l),
(441,310,l),
(127,310,l)
);
},
{
closed = 1;
nodes = (
(115,18,l),
(441,309,l),
(470,276,l),
(144,-14,l)
);
}
);
width = 490;
},
{
hints = (
{
horizontal = 1;
place = (276, 34);
place = (276, 34);
type = Stem;
},
{
place = (113, 14);
place = (113, 14);
type = Stem;
}
);
layerId = "7844E041-0347-4A22-AC49-F696B23A3360";
shapes = (
{
closed = 1;
nodes = (
(70,700,l),
(113,700,l),
(113,0,l),
(70,0,l)
);
},
{
closed = 1;
nodes = (
(127,353,l),
(441,353,l),
(441,310,l),
(127,310,l)
);
},
{
closed = 1;
nodes = (
(115,18,l),
(441,309,l),
(470,276,l),
(144,-14,l)
);
}
);
width = 490;
}
);
note = b;
unicode = 98;
},
{
glyphname = c;
kernLeft = a;
kernRight = c;
lastChange = "2024-02-25 17:05:27 +0000";
layers = (
{
hints = (
{
horizontal = 1;
place = (0, 417);
place = (0, 417);
type = Stem;
},
{
place = (20, 455);
place = (20, 455);
type = Stem;
}
);
layerId = m01;
shapes = (
{
closed = 1;
nodes = (
(218,386,l),
(247,417,l),
(426,246,l),
(396,215,l)
);
},
{
closed = 1;
nodes = (
(20,63,l),
(177,404,l),
(216,386,l),
(59,45,l)
);
},
{
closed = 1;
nodes = (
(59,0,l),
(59,43,l),
(475,43,l),
(475,0,l)
);
}
);
width = 500;
},
{
hints = (
{
horizontal = 1;
place = (0, 417);
place = (0, 417);
type = Stem;
},
{
place = (20, 455);
place = (20, 455);
type = Stem;
}
);
layerId = "7844E041-0347-4A22-AC49-F696B23A3360";
shapes = (
{
closed = 1;
nodes = (
(218,386,l),
(247,417,l),
(426,246,l),
(396,215,l)
);
},
{
closed = 1;
nodes = (
(20,63,l),
(177,404,l),
(216,386,l),
(59,45,l)
);
},
{
closed = 1;
nodes = (
(59,0,l),
(59,43,l),
(475,43,l),
(475,0,l)
);
}
);
width = 500;
}
);
note = c;
unicode = 99;
},
{
glyphname = ccedilla;
lastChange = "2024-02-25 17:05:27 +0000";
layers = (
{
hints = (
{
horizontal = 1;
place = (-137, 21);
target = up;
type = BottomGhost;
},
{
horizontal = 1;
place = (-56, 56);
place = (-56, 56);
type = Stem;
},
{
place = (20, 455);
place = (20, 455);
type = Stem;
}
);
layerId = m01;
shapes = (
{
closed = 1;
nodes = (
(218,386,l),
(247,417,l),
(426,246,l),
(396,215,l)
);
},
{
closed = 1;
nodes = (
(20,63,l),
(177,404,l),
(216,386,l),
(59,45,l)
);
},
{
closed = 1;
nodes = (
(59,0,l),
(59,43,l),
(475,43,l),
(475,0,l)
);
},
{
closed = 1;
nodes = (
(144,-95,l),
(161,-56,l),
(352,-137,l),
(335,-176,l)
);
},
{
closed = 1;
nodes = (
(352,-220,l),
(161,-301,l),
(144,-262,l),
(335,-181,l)
);
}
);
width = 500;
},
{
hints = (
{
horizontal = 1;
place = (-137, 21);
target = up;
type = BottomGhost;
},
{
horizontal = 1;
place = (-56, 56);
place = (-56, 56);
type = Stem;
},
{
place = (20, 455);
place = (20, 455);
type = Stem;
}
);
layerId = "7844E041-0347-4A22-AC49-F696B23A3360";
shapes = (
{
closed = 1;
nodes = (
(218,386,l),
(247,417,l),
(426,246,l),
(396,215,l)
);
},
{
closed = 1;
nodes = (
(20,63,l),
(177,404,l),
(216,386,l),
(59,45,l)
);
},
{
closed = 1;
nodes = (
(59,0,l),
(59,43,l),
(475,43,l),
(475,0,l)
);
},
{
closed = 1;
nodes = (
(144,-95,l),
(161,-56,l),
(352,-137,l),
(335,-176,l)
);
},
{
closed = 1;
nodes = (
(352,-220,l),
(161,-301,l),
(144,-262,l),
(335,-181,l)
);
}
);
width = 500;
}
);
note = ccedilla;
unicode = 231;
},
{
glyphname = d;
kernLeft = d;
lastChange = "2024-02-25 17:05:27 +0000";
layers = (
{
hints = (
{
horizontal = 1;
place = (276, 34);
place = (276, 34);
type = Stem;
},
{
place = (363, 14);
place = (363, 14);
type = Stem;
}
);
layerId = m01;
shapes = (
{
closed = 1;
nodes = (
(377,0,l),
(377,700,l),
(420,700,l),
(420,0,l)
);
},
{
closed = 1;
nodes = (
(49,310,l),
(49,353,l),
(363,353,l),
(363,310,l)
);
},
{
closed = 1;
nodes = (
(20,276,l),
(49,309,l),
(375,18,l),
(346,-14,l)
);
}
);
width = 490;
},
{
hints = (
{
horizontal = 1;
place = (276, 34);
place = (276, 34);
type = Stem;
},
{
place = (363, 14);
place = (363, 14);
type = Stem;
}
);
layerId = "7844E041-0347-4A22-AC49-F696B23A3360";
shapes = (
{
closed = 1;
nodes = (
(377,0,l),
(377,700,l),
(420,700,l),
(420,0,l)
);
},
{
closed = 1;
nodes = (
(49,310,l),
(49,353,l),
(363,353,l),
(363,310,l)
);
},
{
closed = 1;
nodes = (
(20,276,l),
(49,309,l),
(375,18,l),
(346,-14,l)
);
}
);
width = 490;
}
);
note = d;
unicode = 100;
},
{
glyphname = e;
kernLeft = a;
kernRight = c;
lastChange = "2024-02-25 17:05:27 +0000";
layers = (
{
hints = (
{
horizontal = 1;
place = (43, 149);
place = (43, 149);
type = Stem;
},
{
place = (92, 16);
place = (92, 16);
type = Stem;
},
{
horizontal = 1;
place = (197, 30);
place = (197, 30);
type = Stem;
},
{
horizontal = 1;
place = (235, 143);
place = (235, 143);
type = Stem;
}
);
layerId = m01;
shapes = (
{
closed = 1;
nodes = (
(244,378,l),
(262,417,l),
(576,272,l),
(558,233,l)
);
},
{
closed = 1;
nodes = (
(40,227,l),
(212,407,l),
(243,378,l),
(71,198,l)
);
},
{
closed = 1;
nodes = (
(108,192,l),
(108,235,l),
(550,235,l),
(550,192,l)
);
},
{
closed = 1;
nodes = (
(50,44,l),
(50,197,l),
(92,197,l),
(92,44,l)
);
},
{
closed = 1;
nodes = (
(93,0,l),
(93,43,l),
(438,43,l),
(438,0,l)
);
}
);
width = 606;
},
{
hints = (
{
horizontal = 1;
place = (43, 149);
place = (43, 149);
type = Stem;
},
{
place = (92, 16);
place = (92, 16);
type = Stem;
},
{
horizontal = 1;
place = (197, 30);
place = (197, 30);
type = Stem;
},
{
horizontal = 1;
place = (235, 143);
place = (235, 143);
type = Stem;
}
);
layerId = "7844E041-0347-4A22-AC49-F696B23A3360";
shapes = (
{
closed = 1;
nodes = (
(244,378,l),
(262,417,l),
(576,272,l),
(558,233,l)
);
},
{
closed = 1;
nodes = (
(40,227,l),
(212,407,l),
(243,378,l),
(71,198,l)
);
},
{
closed = 1;
nodes = (
(108,192,l),
(108,235,l),
(550,235,l),
(550,192,l)
);
},
{
closed = 1;
nodes = (
(50,44,l),
(50,197,l),
(92,197,l),
(92,44,l)
);
},
{
closed = 1;
nodes = (
(93,0,l),
(93,43,l),
(438,43,l),
(438,0,l)
);
}
);
width = 606;
}
);
note = e;
unicode = 101;
},
{
glyphname = eacute;
lastChange = "2024-02-25 17:05:27 +0000";
layers = (
{
hints = (
{
horizontal = 1;
place = (43, 149);
place = (43, 149);
type = Stem;
},
{
place = (92, 16);
place = (92, 16);
type = Stem;
},
{
horizontal = 1;
place = (197, 30);
place = (197, 30);
type = Stem;
},
{
horizontal = 1;
place = (235, 143);
place = (235, 143);
type = Stem;
}
);
layerId = m01;
shapes = (
{
closed = 1;
nodes = (
(181,533,l),
(389,707,l),
(416,675,l),
(208,500,l)
);
},
{
closed = 1;
nodes = (
(244,378,l),
(262,417,l),
(576,272,l),
(558,233,l)
);
},
{
closed = 1;
nodes = (
(40,227,l),
(212,407,l),
(243,378,l),
(71,198,l)
);
},
{
closed = 1;
nodes = (
(108,192,l),
(108,235,l),
(550,235,l),
(550,192,l)
);
},
{
closed = 1;
nodes = (
(50,44,l),
(50,197,l),
(92,197,l),
(92,44,l)
);
},
{
closed = 1;
nodes = (
(93,0,l),
(93,43,l),
(438,43,l),
(438,0,l)
);
}
);
width = 606;
},
{
hints = (
{
horizontal = 1;
place = (43, 149);
place = (43, 149);
type = Stem;
},
{
place = (92, 16);
place = (92, 16);
type = Stem;
},
{
horizontal = 1;
place = (197, 30);
place = (197, 30);
type = Stem;
},
{
horizontal = 1;
place = (235, 143);
place = (235, 143);
type = Stem;
}
);
layerId = "7844E041-0347-4A22-AC49-F696B23A3360";
shapes = (
{
closed = 1;
nodes = (
(181,533,l),
(389,707,l),
(416,675,l),
(208,500,l)
);
},
{
closed = 1;
nodes = (
(244,378,l),
(262,417,l),
(576,272,l),
(558,233,l)
);
},
{
closed = 1;
nodes = (
(40,227,l),
(212,407,l),
(243,378,l),
(71,198,l)
);
},
{
closed = 1;
nodes = (
(108,192,l),
(108,235,l),
(550,235,l),
(550,192,l)
);
},
{
closed = 1;
nodes = (
(50,44,l),
(50,197,l),
(92,197,l),
(92,44,l)
);
},
{
closed = 1;
nodes = (
(93,0,l),
(93,43,l),
(438,43,l),
(438,0,l)
);
}
);
width = 606;
}
);
note = eacute;
unicode = 233;
},
{
glyphname = ecircumflex;
lastChange = "2024-02-25 17:05:27 +0000";
layers = (
{
hints = (
{
horizontal = 1;
place = (43, 149);
place = (43, 149);
type = Stem;
},
{
place = (92, 16);
place = (92, 16);
type = Stem;
},
{
horizontal = 1;
place = (197, 30);
place = (197, 30);
type = Stem;
},
{
horizontal = 1;
place = (235, 143);
place = (235, 143);
type = Stem;
}
);
layerId = m01;
shapes = (
{
closed = 1;
nodes = (
(166,521,l),
(258,695,l),
(296,675,l),
(204,500,l)
);
},
{
closed = 1;
nodes = (
(300,675,l),
(338,695,l),
(431,521,l),
(393,500,l)
);
},
{
closed = 1;
nodes = (
(244,378,l),
(262,417,l),
(576,272,l),
(558,233,l)
);
},
{
closed = 1;
nodes = (
(40,227,l),
(212,407,l),
(243,378,l),
(71,198,l)
);
},
{
closed = 1;
nodes = (
(108,192,l),
(108,235,l),
(550,235,l),
(550,192,l)
);
},
{
closed = 1;
nodes = (
(50,44,l),
(50,197,l),
(92,197,l),
(92,44,l)
);
},
{
closed = 1;
nodes = (
(93,0,l),
(93,43,l),
(438,43,l),
(438,0,l)
);
}
);
width = 606;
},
{
hints = (
{
horizontal = 1;
place = (43, 149);
place = (43, 149);
type = Stem;
},
{
place = (92, 16);
place = (92, 16);
type = Stem;
},
{
horizontal = 1;
place = (197, 30);
place = (197, 30);
type = Stem;
},
{
horizontal = 1;
place = (235, 143);
place = (235, 143);
type = Stem;
}
);
layerId = "7844E041-0347-4A22-AC49-F696B23A3360";
shapes = (
{
closed = 1;
nodes = (
(166,521,l),
(258,695,l),
(296,675,l),
(204,500,l)
);
},
{
closed = 1;
nodes = (
(300,675,l),
(338,695,l),
(431,521,l),
(393,500,l)
);
},
{
closed = 1;
nodes = (
(244,378,l),
(262,417,l),
(576,272,l),
(558,233,l)
);
},
{
closed = 1;
nodes = (
(40,227,l),
(212,407,l),
(243,378,l),
(71,198,l)
);
},
{
closed = 1;
nodes = (
(108,192,l),
(108,235,l),
(550,235,l),
(550,192,l)
);
},
{
closed = 1;
nodes = (
(50,44,l),
(50,197,l),
(92,197,l),
(92,44,l)
);
},
{
closed = 1;
nodes = (
(93,0,l),
(93,43,l),
(438,43,l),
(438,0,l)
);
}
);
width = 606;
}
);
note = ecircumflex;
unicode = 234;
},
{
glyphname = edieresis;
lastChange = "2024-02-25 17:05:27 +0000";
layers = (
{
hints = (
{
horizontal = 1;
place = (43, 149);
place = (43, 149);
type = Stem;
},
{
horizontal = 1;
place = (235, 265);
place = (235, 265);
type = Stem;
},
{
horizontal = 1;
place = (543, 21);
place = (543, 21);
type = Stem;
},
{
place = (92, 16);
place = (92, 16);
type = Stem;
},
{
place = (252, 95);
place = (252, 95);
type = Stem;
},
{
horizontal = 1;
place = (197, 30);
place = (197, 30);
type = Stem;
}
);
layerId = m01;
shapes = (
{
closed = 1;
nodes = (
(107,564,l),
(160,663,l),
(198,642,l),
(145,543,l)
);
},
{
closed = 1;
nodes = (
(202,642,l),
(240,663,l),
(293,564,l),
(255,543,l)
);
},
{
closed = 1;
nodes = (
(306,564,l),
(359,663,l),
(397,642,l),
(344,543,l)
);
},
{
closed = 1;
nodes = (
(401,642,l),
(439,663,l),
(492,564,l),
(454,543,l)
);
},
{
closed = 1;
nodes = (
(148,500,l),
(148,543,l),
(252,543,l),
(252,500,l)
);
},
{
closed = 1;
nodes = (
(347,500,l),
(347,543,l),
(451,543,l),
(451,500,l)
);
},
{
closed = 1;
nodes = (
(244,378,l),
(262,417,l),
(576,272,l),
(558,233,l)
);
},
{
closed = 1;
nodes = (
(40,227,l),
(212,407,l),
(243,378,l),
(71,198,l)
);
},
{
closed = 1;
nodes = (
(108,192,l),
(108,235,l),
(550,235,l),
(550,192,l)
);
},
{
closed = 1;
nodes = (
(50,44,l),
(50,197,l),
(92,197,l),
(92,44,l)
);
},
{
closed = 1;
nodes = (
(93,0,l),
(93,43,l),
(438,43,l),
(438,0,l)
);
}
);
width = 606;
},
{
hints = (
{
horizontal = 1;
place = (43, 149);
place = (43, 149);
type = Stem;
},
{
horizontal = 1;
place = (235, 265);
place = (235, 265);
type = Stem;
},
{
horizontal = 1;
place = (543, 21);
place = (543, 21);
type = Stem;
},
{
place = (92, 16);
place = (92, 16);
type = Stem;
},
{
place = (252, 95);
place = (252, 95);
type = Stem;
},
{
horizontal = 1;
place = (197, 30);
place = (197, 30);
type = Stem;
}
);
layerId = "7844E041-0347-4A22-AC49-F696B23A3360";
shapes = (
{
closed = 1;
nodes = (
(107,564,l),
(160,663,l),
(198,642,l),
(145,543,l)
);
},
{
closed = 1;
nodes = (
(202,642,l),
(240,663,l),
(293,564,l),
(255,543,l)
);
},
{
closed = 1;
nodes = (
(306,564,l),
(359,663,l),
(397,642,l),
(344,543,l)
);
},
{
closed = 1;
nodes = (
(401,642,l),
(439,663,l),
(492,564,l),
(454,543,l)
);
},
{
closed = 1;
nodes = (
(148,500,l),
(148,543,l),
(252,543,l),
(252,500,l)
);
},
{
closed = 1;
nodes = (
(347,500,l),
(347,543,l),
(451,543,l),
(451,500,l)
);
},
{
closed = 1;
nodes = (
(244,378,l),
(262,417,l),
(576,272,l),
(558,233,l)
);
},
{
closed = 1;
nodes = (
(40,227,l),
(212,407,l),
(243,378,l),
(71,198,l)
);
},
{
closed = 1;
nodes = (
(108,192,l),
(108,235,l),
(550,235,l),
(550,192,l)
);
},
{
closed = 1;
nodes = (
(50,44,l),
(50,197,l),
(92,197,l),
(92,44,l)
);
},
{
closed = 1;
nodes = (
(93,0,l),
(93,43,l),
(438,43,l),
(438,0,l)
);
}
);
width = 606;
}
);
note = edieresis;
unicode = 235;
},
{
glyphname = egrave;
lastChange = "2024-02-25 17:05:27 +0000";
layers = (
{
hints = (
{
horizontal = 1;
place = (43, 149);
place = (43, 149);
type = Stem;
},
{
place = (92, 16);
place = (92, 16);
type = Stem;
},
{
horizontal = 1;
place = (197, 30);
place = (197, 30);
type = Stem;
},
{
horizontal = 1;
place = (235, 143);
place = (235, 143);
type = Stem;
}
);
layerId = m01;
shapes = (
{
closed = 1;
nodes = (
(181,674,l),
(209,707,l),
(417,533,l),
(390,500,l)
);
},
{
closed = 1;
nodes = (
(244,378,l),
(262,417,l),
(576,272,l),
(558,233,l)
);
},
{
closed = 1;
nodes = (
(40,227,l),
(212,407,l),
(243,378,l),
(71,198,l)
);
},
{
closed = 1;
nodes = (
(108,192,l),
(108,235,l),
(550,235,l),
(550,192,l)
);
},
{
closed = 1;
nodes = (
(50,44,l),
(50,197,l),
(92,197,l),
(92,44,l)
);
},
{
closed = 1;
nodes = (
(93,0,l),
(93,43,l),
(438,43,l),
(438,0,l)
);
}
);
width = 606;
},
{
hints = (
{
horizontal = 1;
place = (43, 149);
place = (43, 149);
type = Stem;
},
{
place = (92, 16);
place = (92, 16);
type = Stem;
},
{
horizontal = 1;
place = (197, 30);
place = (197, 30);
type = Stem;
},
{
horizontal = 1;
place = (235, 143);
place = (235, 143);
type = Stem;
}
);
layerId = "7844E041-0347-4A22-AC49-F696B23A3360";
shapes = (
{
closed = 1;
nodes = (
(181,674,l),
(209,707,l),
(417,533,l),
(390,500,l)
);
},
{
closed = 1;
nodes = (
(244,378,l),
(262,417,l),
(576,272,l),
(558,233,l)
);
},
{
closed = 1;
nodes = (
(40,227,l),
(212,407,l),
(243,378,l),
(71,198,l)
);
},
{
closed = 1;
nodes = (
(108,192,l),
(108,235,l),
(550,235,l),
(550,192,l)
);
},
{
closed = 1;
nodes = (
(50,44,l),
(50,197,l),
(92,197,l),
(92,44,l)
);
},
{
closed = 1;
nodes = (
(93,0,l),
(93,43,l),
(438,43,l),
(438,0,l)
);
}
);
width = 606;
}
);
note = egrave;
unicode = 232;
},
{
glyphname = f;
lastChange = "2024-02-25 17:05:27 +0000";
layers = (
{
hints = (
{
horizontal = 1;
place = (346, 11);
place = (346, 11);
type = Stem;
},
{
horizontal = 1;
place = (400, 33);
place = (400, 33);
type = Stem;
},
{
place = (490, 29);
place = (490, 29);
type = Stem;
},
{
horizontal = 1;
place = (401, -20);
target = down;
type = TopGhost;
},
{
horizontal = 1;
place = (400, 150);
place = (400, 150);
type = Stem;
}
);
layerId = m01;
shapes = (
{
closed = 1;
nodes = (
(177,433,l),
(490,712,l),
(518,680,l),
(205,401,l)
);
},
{
closed = 1;
nodes = (
(519,550,l),
(519,679,l),
(562,679,l),
(562,550,l)
);
},
{
closed = 1;
nodes = (
(15,357,l),
(15,400,l),
(505,400,l),
(505,357,l)
);
},
{
closed = 1;
nodes = (
(182,0,l),
(182,346,l),
(225,346,l),
(225,0,l)
);
}
);
width = 567;
},
{
hints = (
{
horizontal = 1;
place = (346, 11);
place = (346, 11);
type = Stem;
},
{
horizontal = 1;
place = (400, 33);
place = (400, 33);
type = Stem;
},
{
place = (490, 29);
place = (490, 29);
type = Stem;
},
{
horizontal = 1;
place = (401, -20);
target = down;
type = TopGhost;
},
{
horizontal = 1;
place = (400, 150);
place = (400, 150);
type = Stem;
}
);
layerId = "7844E041-0347-4A22-AC49-F696B23A3360";
shapes = (
{
closed = 1;
nodes = (
(177,433,l),
(490,712,l),
(518,680,l),
(205,401,l)
);
},
{
closed = 1;
nodes = (
(519,550,l),
(519,679,l),
(562,679,l),
(562,550,l)
);
},
{
closed = 1;
nodes = (
(15,357,l),
(15,400,l),
(505,400,l),
(505,357,l)
);
},
{
closed = 1;
nodes = (
(182,0,l),
(182,346,l),
(225,346,l),
(225,0,l)
);
}
);
width = 567;
}
);
note = f;
unicode = 102;
},
{
glyphname = g;
lastChange = "2024-02-25 17:05:27 +0000";
layers = (
{
hints = (
{
horizontal = 1;
place = (43, 27);
place = (43, 27);
type = Stem;
},
{
horizontal = 1;
place = (514, 45);
place = (514, 45);
type = Stem;
},
{
place = (334, 21);
place = (334, 21);
type = Stem;
},
{
place = (398, 43);
place = (398, 43);
type = Stem;
},
{
place = (103, 252);
place = (103, 252);
type = Stem;
}
);
layerId = m01;
shapes = (
{
closed = 1;
nodes = (
(97,559,l),
(343,608,l),
(352,566,l),
(105,517,l)
);
},
{
closed = 1;
nodes = (
(355,44,l),
(355,564,l),
(398,564,l),
(398,44,l)
);
},
{
closed = 1;
nodes = (
(60,275,l),
(60,514,l),
(103,514,l),
(103,275,l)
);
},
{
closed = 1;
nodes = (
(105,274,l),
(334,397,l),
(354,359,l),
(126,236,l)
);
},
{
closed = 1;
nodes = (
(166,70,l),
(321,271,l),
(354,245,l),
(199,43,l)
);
},
{
closed = 1;
nodes = (
(399,243,l),
(441,252,l),
(495,9,l),
(453,0,l)
);
},
{
closed = 1;
nodes = (
(200,0,l),
(200,43,l),
(354,43,l),
(354,0,l)
);
}
);
width = 520;
},
{
hints = (
{
horizontal = 1;
place = (43, 27);
place = (43, 27);
type = Stem;
},
{
horizontal = 1;
place = (514, 45);
place = (514, 45);
type = Stem;
},
{
place = (334, 21);
place = (334, 21);
type = Stem;
},
{
place = (398, 43);
place = (398, 43);
type = Stem;
},
{
place = (103, 252);
place = (103, 252);
type = Stem;
}
);
layerId = "7844E041-0347-4A22-AC49-F696B23A3360";
shapes = (
{
closed = 1;
nodes = (
(97,559,l),
(343,608,l),
(352,566,l),
(105,517,l)
);
},
{
closed = 1;
nodes = (
(355,44,l),
(355,564,l),
(398,564,l),
(398,44,l)
);
},
{
closed = 1;
nodes = (
(60,275,l),
(60,514,l),
(103,514,l),
(103,275,l)
);
},
{
closed = 1;
nodes = (
(105,274,l),
(334,397,l),
(354,359,l),
(126,236,l)
);
},
{
closed = 1;
nodes = (
(166,70,l),
(321,271,l),
(354,245,l),
(199,43,l)
);
},
{
closed = 1;
nodes = (
(399,243,l),
(441,252,l),
(495,9,l),
(453,0,l)
);
},
{
closed = 1;
nodes = (
(200,0,l),
(200,43,l),
(354,43,l),
(354,0,l)
);
}
);
width = 520;
}
);
note = g;
unicode = 103;
},
